<svg width="16" height="20" viewBox="0 0 16 20" fill="none" xmlns="http://www.w3.org/2000/svg">
<path d="M2.25 0C1.015 0 0 1.015 0 2.25V17.75C0 18.985 1.015 20 2.25 20H13.75C14.985 20 16 18.985 16 17.75V2.25C16 1.015 14.985 0 13.75 0H2.25ZM2.25 1.5H13.75C14.175 1.5 14.5 1.825 14.5 2.25V17.75C14.5 18.175 14.175 18.5 13.75 18.5H2.25C1.825 18.5 1.5 18.175 1.5 17.75V2.25C1.5 1.825 1.825 1.5 2.25 1.5ZM4.75 4C4.335 3.995 3.995 4.325 3.99 4.74C3.985 5.155 4.315 5.495 4.73 5.5C4.735 5.5 4.745 5.5 4.75 5.5H7.25C7.665 5.505 8.005 5.175 8.01 4.76C8.015 4.345 7.685 4.005 7.27 4C7.265 4 7.255 4 7.25 4H4.75ZM4.75 8.5C4.335 8.495 3.995 8.825 3.99 9.24C3.985 9.655 4.315 9.995 4.73 10C4.735 10 4.745 10 4.75 10H11.25C11.665 10.005 12.005 9.675 12.01 9.26C12.015 8.845 11.685 8.505 11.27 8.5C11.265 8.5 11.255 8.5 11.25 8.5H4.75ZM4.75 11.5C4.335 11.495 3.995 11.825 3.99 12.24C3.985 12.655 4.315 12.995 4.73 13C4.735 13 4.745 13 4.75 13H11.25C11.665 13.005 12.005 12.675 12.01 12.26C12.015 11.845 11.685 11.505 11.27 11.5C11.265 11.5 11.255 11.5 11.25 11.5H4.75ZM4.75 14.5C4.335 14.495 3.995 14.825 3.99 15.24C3.985 15.655 4.315 15.995 4.73 16C4.735 16 4.745 16 4.75 16H9.25C9.665 16.005 10.005 15.675 10.01 15.26C10.015 14.845 9.685 14.505 9.27 14.5C9.265 14.5 9.255 14.5 9.25 14.5H4.75Z" fill="#04242B"/>
</svg>
