<svg width="9" height="16" viewBox="0 0 9 16" fill="none" xmlns="http://www.w3.org/2000/svg">
<path d="M1.81 7.8475L8.38 1.2775C8.67 0.9875 8.67 0.5075 8.38 0.2175C8.09 -0.0725 7.61 -0.0725 7.32 0.2175L0.22 7.3175C0.18 7.3575 0.16 7.3975 0.14 7.4475C0.11 7.4875 0.07 7.5275 0.05 7.5675C0.04 7.6075 0.04 7.6575 0.03 7.6975C0.02 7.7475 0 7.7975 0 7.8475C0 7.8875 0.02 7.9275 0.02 7.9675C0.03 8.0175 0.03 8.0775 0.05 8.1275C0.07 8.1675 0.1 8.2075 0.13 8.2475C0.16 8.2875 0.18 8.3375 0.22 8.3775L7.32 15.3775C7.47 15.5175 7.66 15.5975 7.85 15.5975C8.04 15.5975 8.24 15.5275 8.38 15.3775C8.67 15.0875 8.67 14.6075 8.37 14.3175L1.81 7.8475Z" fill="white"/>
</svg>
