<svg width="20" height="21" viewBox="0 0 20 21" fill="none" xmlns="http://www.w3.org/2000/svg">
<path d="M11.3 0C10.4 0 9.7 0.5 9.3 1.2C8.9 1.1 8.6 1 8.3 1C7 1 6 2 6 3.3V12.5C5.3 12.1 4.4 11.6 3.7 11.3C3.3 11.1 2.9 11 2.5 11C1.5 11 0.7 11.5 0.4 12.1C0.1 12.6 0 13.1 0 13.1C0 13.3 0.1 13.6 0.2 13.7C0.2 13.7 4.4 17.5 5.5 18.7C6.5 19.7 7.8 20.5 9.4 20.5H13.7C16.9 20.5 19.5 17.9 19.5 14.8V5.3C19.5 4.1 18.5 3 17.2 3C16.9 3 16.7 3.1 16.4 3.1C16.4 2 15.4 1 14.3 1C13.9 1 13.6 1.1 13.3 1.3C12.9 0.5 12.1 0 11.3 0ZM11.3 1.5C11.7 1.5 12.1 1.8 12.1 2.3V3.3V9.8C12.1 10.2 12.4 10.6 12.8 10.6C13.2 10.6 13.6 10.3 13.6 9.9V3.3C13.6 2.9 13.9 2.5 14.4 2.5C14.8 2.5 15.2 2.8 15.2 3.3V5.3V10.3C15.2 10.7 15.5 11.1 15.9 11.1C16.3 11.1 16.7 10.8 16.7 10.4V5.4C16.7 5 17 4.6 17.5 4.6C18 4.6 18 4.8 18 5.3V14.8C18 17.2 16.1 19.1 13.7 19H9.4C8.4 19 7.4 18.5 6.7 17.7C5.4 16.4 2.1 13.4 1.6 13C1.6 13 1.6 13 1.6 12.9C1.7 12.7 1.9 12.5 2.5 12.5C2.7 12.5 2.9 12.5 3.1 12.6C3.7 12.8 4.9 13.5 5.6 14C6.4 14.5 7.5 13.8 7.5 12.9V3.3C7.5 2.9 7.8 2.5 8.3 2.5C8.7 2.5 9 2.8 9 3.3V9.8C9 10.2 9.3 10.6 9.7 10.6C10.1 10.6 10.5 10.3 10.5 9.9V3.3V2.3C10.5 1.8 10.8 1.5 11.3 1.5ZM14.2 12C14 12 13.8 12.1 13.7 12.2L12.5 13.4L11.3 12.2C11.2 12.1 11 12 10.8 12C10.4 12 10.1 12.3 10.1 12.8C10.1 13 10.2 13.2 10.3 13.3L11.5 14.5L10.3 15.7C10 16 10 16.5 10.3 16.8C10.6 17.1 11.1 17.1 11.4 16.8L12.6 15.6L13.8 16.8C14.1 17.1 14.6 17.1 14.9 16.8C15.2 16.5 15.2 16 14.9 15.7L13.7 14.5L14.9 13.3C15.2 13 15.2 12.5 14.9 12.2C14.7 12.1 14.5 12 14.2 12Z" fill="#04242B"/>
</svg>
