<svg width="12" height="12" viewBox="0 0 12 12" fill="none" xmlns="http://www.w3.org/2000/svg">
<path d="M10.9998 0H8.40984C7.51984 0 7.06984 1.08 7.69984 1.71L8.45984 2.47L5.61984 5.31C5.32984 5.6 5.32984 6.08 5.61984 6.37C5.90984 6.66 6.38984 6.66 6.67984 6.37L9.51984 3.53L10.2898 4.3C10.9198 4.92 11.9998 4.48 11.9998 3.59V1C11.9998 0.45 11.5498 0 10.9998 0Z" fill="white"/>
<path d="M11.5 6C11.22 6 11 6.22 11 6.5V7V7.5V9C11 10.1 10.1 11 9 11H3C1.9 11 1 10.1 1 9V3C1 1.9 1.9 1 3 1H4.5H5H5.5C5.78 1 6 0.78 6 0.5C6 0.22 5.78 0 5.5 0H5H4.5H3C1.34 0 0 1.34 0 3V9C0 10.66 1.34 12 3 12H9C10.66 12 12 10.66 12 9V7.5V7V6.5C12 6.22 11.78 6 11.5 6Z" fill="white"/>
</svg>
