<svg width="13" height="13" viewBox="0 0 13 13" fill="none" xmlns="http://www.w3.org/2000/svg">
<path d="M12.5875 11.5275L7.4675 6.4075L12.5975 1.2775C12.8875 0.9875 12.8875 0.5075 12.5975 0.2175C12.3075 -0.0725 11.8275 -0.0725 11.5375 0.2175L6.4075 5.3475L1.2775 0.2175C0.9875 -0.0725 0.5075 -0.0725 0.2175 0.2175C-0.0725 0.5075 -0.0725 0.9875 0.2175 1.2775L5.3475 6.4075L0.2175 11.5375C-0.0725 11.8275 -0.0725 12.3075 0.2175 12.5975C0.5075 12.8875 0.9875 12.8875 1.2775 12.5975L6.4075 7.4675L11.5375 12.5975C11.8275 12.8875 12.3075 12.8875 12.5975 12.5975C12.8875 12.2975 12.8875 11.8275 12.5875 11.5275Z" fill="white"/>
</svg>
