<svg width="102" height="37" viewBox="0 0 102 37" fill="none" xmlns="http://www.w3.org/2000/svg">
<g filter="url(#filter0_d_7_199)">
<rect x="5" y="3" width="92" height="27" rx="6" fill="white"/>
<rect x="5.5" y="3.5" width="91" height="26" rx="5.5" stroke="url(#paint0_linear_7_199)"/>
<rect x="5.5" y="3.5" width="91" height="26" rx="5.5" stroke="#FFCA41" stroke-opacity="0.4"/>
</g>
<path d="M20.2614 9.5H24.2814V10.07C24.1114 10.18 23.9164 10.275 23.6964 10.355C23.4764 10.425 23.2764 10.475 23.0964 10.505L20.2464 14.12C20.4764 14.44 20.7464 14.805 21.0564 15.215C21.3664 15.615 21.6964 16.035 22.0464 16.475C22.3964 16.905 22.7564 17.345 23.1264 17.795C23.4964 18.235 23.8564 18.655 24.2064 19.055L24.9264 19.49V20H22.3164L21.7164 19.58C21.4764 19.28 21.2214 18.95 20.9514 18.59C20.6914 18.22 20.4314 17.84 20.1714 17.45C19.9114 17.05 19.6564 16.65 19.4064 16.25C19.1564 15.85 18.9214 15.46 18.7014 15.08H18.0564V18.995C18.2764 19.035 18.4764 19.095 18.6564 19.175C18.8364 19.255 18.9914 19.34 19.1214 19.43V20H14.5764V19.43C14.7764 19.33 14.9814 19.245 15.1914 19.175C15.4014 19.095 15.6064 19.035 15.8064 18.995V10.505C15.5764 10.475 15.3514 10.42 15.1314 10.34C14.9214 10.26 14.7364 10.17 14.5764 10.07V9.5H19.1214V10.07C18.9914 10.15 18.8314 10.23 18.6414 10.31C18.4614 10.39 18.2664 10.455 18.0564 10.505V14.315L18.9414 14.105L21.3564 10.505C21.1564 10.465 20.9564 10.405 20.7564 10.325C20.5664 10.235 20.4014 10.15 20.2614 10.07V9.5ZM24.8195 16.25C24.8195 15.64 24.9095 15.095 25.0895 14.615C25.2795 14.125 25.5445 13.71 25.8845 13.37C26.2345 13.03 26.6545 12.77 27.1445 12.59C27.6345 12.41 28.1895 12.32 28.8095 12.32C29.5095 12.32 30.1095 12.42 30.6095 12.62C31.1195 12.81 31.5345 13.08 31.8545 13.43C32.1845 13.77 32.4245 14.185 32.5745 14.675C32.7245 15.155 32.7995 15.68 32.7995 16.25C32.7995 16.86 32.7095 17.41 32.5295 17.9C32.3495 18.38 32.0845 18.79 31.7345 19.13C31.3945 19.47 30.9745 19.73 30.4745 19.91C29.9845 20.09 29.4295 20.18 28.8095 20.18C28.1295 20.18 27.5395 20.085 27.0395 19.895C26.5395 19.695 26.1245 19.425 25.7945 19.085C25.4645 18.735 25.2195 18.32 25.0595 17.84C24.8995 17.35 24.8195 16.82 24.8195 16.25ZM27.1445 16.25C27.1445 16.7 27.1695 17.115 27.2195 17.495C27.2795 17.865 27.3795 18.18 27.5195 18.44C27.6595 18.7 27.8495 18.905 28.0895 19.055C28.3295 19.195 28.6395 19.265 29.0195 19.265C29.2395 19.265 29.4395 19.215 29.6195 19.115C29.7995 19.005 29.9545 18.835 30.0845 18.605C30.2145 18.365 30.3095 18.055 30.3695 17.675C30.4395 17.285 30.4745 16.81 30.4745 16.25C30.4745 15.79 30.4445 15.375 30.3845 15.005C30.3345 14.635 30.2395 14.32 30.0995 14.06C29.9695 13.8 29.7895 13.6 29.5595 13.46C29.3295 13.31 29.0395 13.235 28.6895 13.235C28.4295 13.235 28.2045 13.29 28.0145 13.4C27.8245 13.5 27.6645 13.67 27.5345 13.91C27.4045 14.14 27.3045 14.45 27.2345 14.84C27.1745 15.22 27.1445 15.69 27.1445 16.25ZM37.6707 20H33.6957V19.415C33.8357 19.335 33.9907 19.27 34.1607 19.22C34.3307 19.16 34.5057 19.105 34.6857 19.055V13.445C34.5057 13.395 34.3307 13.345 34.1607 13.295C33.9907 13.235 33.8357 13.165 33.6957 13.085V12.5H37.6707V13.085C37.4407 13.225 37.1657 13.345 36.8457 13.445V15.785H39.6357V13.445C39.3457 13.385 39.0707 13.265 38.8107 13.085V12.5H42.7857V13.085C42.5157 13.255 42.1857 13.375 41.7957 13.445V19.055C41.9757 19.095 42.1507 19.14 42.3207 19.19C42.4907 19.24 42.6457 19.315 42.7857 19.415V20H38.8107V19.415C39.0707 19.225 39.3457 19.105 39.6357 19.055V16.64H36.8457V19.055C37.0157 19.095 37.1657 19.145 37.2957 19.205C37.4357 19.265 37.5607 19.335 37.6707 19.415V20ZM50.0617 18.785C49.9917 18.985 49.8767 19.17 49.7167 19.34C49.5567 19.5 49.3617 19.645 49.1317 19.775C48.9117 19.905 48.6567 20.005 48.3667 20.075C48.0867 20.145 47.7917 20.18 47.4817 20.18C46.8217 20.18 46.2517 20.09 45.7717 19.91C45.3017 19.72 44.9117 19.455 44.6017 19.115C44.2917 18.765 44.0617 18.35 43.9117 17.87C43.7617 17.38 43.6867 16.84 43.6867 16.25C43.6867 14.98 44.0317 14.01 44.7217 13.34C45.4217 12.66 46.4117 12.32 47.6917 12.32C48.1817 12.32 48.6317 12.375 49.0417 12.485C49.4517 12.585 49.7917 12.705 50.0617 12.845C50.0417 13.015 50.0117 13.205 49.9717 13.415C49.9417 13.615 49.9017 13.82 49.8517 14.03C49.8117 14.23 49.7617 14.43 49.7017 14.63C49.6417 14.82 49.5817 14.98 49.5217 15.11H48.7867L48.1567 13.325C48.0867 13.275 48.0117 13.24 47.9317 13.22C47.8517 13.19 47.7317 13.175 47.5717 13.175C47.3117 13.175 47.0867 13.225 46.8967 13.325C46.7067 13.415 46.5417 13.575 46.4017 13.805C46.2717 14.035 46.1717 14.34 46.1017 14.72C46.0417 15.1 46.0117 15.57 46.0117 16.13C46.0117 16.54 46.0567 16.92 46.1467 17.27C46.2367 17.61 46.3717 17.91 46.5517 18.17C46.7417 18.42 46.9767 18.62 47.2567 18.77C47.5367 18.91 47.8667 18.98 48.2467 18.98C48.5967 18.98 48.9017 18.93 49.1617 18.83C49.4217 18.73 49.6417 18.61 49.8217 18.47L50.0617 18.785ZM54.0723 15.485C54.2423 15.465 54.4673 15.44 54.7473 15.41C55.0273 15.38 55.3673 15.365 55.7673 15.365C56.5873 15.365 57.2423 15.555 57.7323 15.935C58.2223 16.305 58.4673 16.865 58.4673 17.615C58.4673 18.015 58.3873 18.37 58.2273 18.68C58.0673 18.98 57.8473 19.235 57.5673 19.445C57.2873 19.645 56.9523 19.8 56.5623 19.91C56.1823 20.01 55.7673 20.06 55.3173 20.06C55.1773 20.06 54.9773 20.055 54.7173 20.045C54.4673 20.045 54.1923 20.04 53.8923 20.03C53.6023 20.02 53.3123 20.01 53.0223 20C52.7423 20 52.5073 20 52.3173 20H50.9223V19.415C51.0723 19.335 51.2323 19.27 51.4023 19.22C51.5723 19.16 51.7423 19.105 51.9123 19.055V13.445C51.7223 13.405 51.5473 13.355 51.3873 13.295C51.2273 13.235 51.0723 13.165 50.9223 13.085V12.5H54.9723V13.085C54.7323 13.225 54.4323 13.345 54.0723 13.445V15.485ZM54.0723 19.145C54.1723 19.165 54.2773 19.18 54.3873 19.19C54.5073 19.2 54.6223 19.205 54.7323 19.205C54.9423 19.205 55.1323 19.18 55.3023 19.13C55.4723 19.08 55.6173 18.995 55.7373 18.875C55.8573 18.745 55.9473 18.58 56.0073 18.38C56.0773 18.17 56.1123 17.91 56.1123 17.6C56.1123 17.33 56.0773 17.11 56.0073 16.94C55.9473 16.76 55.8573 16.62 55.7373 16.52C55.6273 16.41 55.4923 16.335 55.3323 16.295C55.1823 16.245 55.0173 16.22 54.8373 16.22C54.7173 16.22 54.5873 16.225 54.4473 16.235C54.3173 16.245 54.1923 16.265 54.0723 16.295V19.145ZM65.9951 18.74C65.9151 18.91 65.7851 19.085 65.6051 19.265C65.4351 19.435 65.2201 19.59 64.9601 19.73C64.7101 19.86 64.4151 19.965 64.0751 20.045C63.7451 20.135 63.3851 20.18 62.9951 20.18C62.3751 20.18 61.8251 20.09 61.3451 19.91C60.8651 19.72 60.4651 19.455 60.1451 19.115C59.8251 18.765 59.5801 18.35 59.4101 17.87C59.2501 17.39 59.1701 16.85 59.1701 16.25C59.1701 14.97 59.5051 13.995 60.1751 13.325C60.8451 12.655 61.7751 12.32 62.9651 12.32C63.4751 12.32 63.9501 12.39 64.3901 12.53C64.8401 12.67 65.2101 12.9 65.5001 13.22C65.8001 13.54 66.0051 13.96 66.1151 14.48C66.2351 15 66.2301 15.635 66.1001 16.385H61.4951C61.5051 17.175 61.7051 17.805 62.0951 18.275C62.4951 18.745 63.0801 18.98 63.8501 18.98C64.1801 18.98 64.5201 18.93 64.8701 18.83C65.2301 18.73 65.5101 18.6 65.7101 18.44L65.9951 18.74ZM62.9051 13.175C62.7051 13.175 62.5251 13.21 62.3651 13.28C62.2151 13.35 62.0801 13.48 61.9601 13.67C61.8501 13.85 61.7601 14.1 61.6901 14.42C61.6201 14.73 61.5701 15.125 61.5401 15.605H63.9551C64.0251 14.825 63.9801 14.225 63.8201 13.805C63.6601 13.385 63.3551 13.175 62.9051 13.175ZM71.2167 23H67.0767V22.415C67.4167 22.255 67.7467 22.135 68.0667 22.055V13.565L67.0767 13.445V12.86C67.2367 12.79 67.4317 12.725 67.6617 12.665C67.9017 12.605 68.1467 12.555 68.3967 12.515C68.6467 12.465 68.8867 12.425 69.1167 12.395C69.3567 12.365 69.5567 12.34 69.7167 12.32H70.2267V14H70.2417C70.4117 13.52 70.6767 13.12 71.0367 12.8C71.4067 12.48 71.9167 12.32 72.5667 12.32C73.0067 12.32 73.4017 12.395 73.7517 12.545C74.1117 12.685 74.4117 12.91 74.6517 13.22C74.9017 13.52 75.0917 13.91 75.2217 14.39C75.3617 14.86 75.4317 15.425 75.4317 16.085C75.4317 16.715 75.3417 17.285 75.1617 17.795C74.9917 18.305 74.7417 18.735 74.4117 19.085C74.0917 19.435 73.6967 19.705 73.2267 19.895C72.7667 20.085 72.2417 20.18 71.6517 20.18C71.3117 20.18 71.0417 20.155 70.8417 20.105C70.6517 20.065 70.4467 19.99 70.2267 19.88V22.055C70.3867 22.075 70.5467 22.11 70.7067 22.16C70.8667 22.22 71.0367 22.305 71.2167 22.415V23ZM71.6967 13.52C71.3567 13.52 71.0517 13.64 70.7817 13.88C70.5217 14.12 70.3367 14.49 70.2267 14.99V18.98C70.3867 19.1 70.5567 19.19 70.7367 19.25C70.9167 19.3 71.1517 19.325 71.4417 19.325C72.0117 19.325 72.4317 19.05 72.7017 18.5C72.9717 17.95 73.1067 17.145 73.1067 16.085C73.1067 15.265 73.0017 14.635 72.7917 14.195C72.5917 13.745 72.2267 13.52 71.6967 13.52ZM84.2326 12.5H87.3676V13.085C87.1976 13.205 86.9126 13.325 86.5126 13.445C86.1926 13.865 85.8826 14.255 85.5826 14.615C85.2926 14.965 84.9876 15.33 84.6676 15.71C84.7976 15.89 84.9576 16.11 85.1476 16.37C85.3376 16.63 85.5426 16.91 85.7626 17.21C85.9826 17.51 86.2126 17.82 86.4526 18.14C86.7026 18.45 86.9476 18.755 87.1876 19.055L87.7276 19.415V20H85.5976L85.1776 19.655C85.0076 19.445 84.8326 19.2 84.6526 18.92C84.4726 18.63 84.2976 18.34 84.1276 18.05C83.9576 17.76 83.8026 17.485 83.6626 17.225C83.5326 16.965 83.4276 16.75 83.3476 16.58H82.6876V19.055C82.9976 19.135 83.2976 19.255 83.5876 19.415V20H79.8976V19.415C80.0376 19.345 80.1726 19.28 80.3026 19.22C80.4426 19.16 80.5876 19.105 80.7376 19.055V16.49L79.9876 16.64C79.9076 16.78 79.8076 16.98 79.6876 17.24C79.5676 17.49 79.4276 17.76 79.2676 18.05C79.1076 18.34 78.9376 18.63 78.7576 18.92C78.5876 19.21 78.4126 19.455 78.2326 19.655L77.7826 20H75.6826V19.415L76.3126 19.055C76.5626 18.765 76.8026 18.465 77.0326 18.155C77.2626 17.845 77.4776 17.545 77.6776 17.255C77.8776 16.965 78.0626 16.695 78.2326 16.445C78.4026 16.195 78.5576 15.98 78.6976 15.8C78.3376 15.42 78.0076 15.045 77.7076 14.675C77.4176 14.305 77.1126 13.895 76.7926 13.445C76.5326 13.385 76.2826 13.265 76.0426 13.085V12.5H79.1776V13.085C78.9876 13.225 78.7376 13.345 78.4276 13.445C78.5576 13.685 78.6826 13.9 78.8026 14.09C78.9226 14.28 79.0426 14.465 79.1626 14.645C79.2926 14.825 79.4226 15.01 79.5526 15.2C79.6926 15.38 79.8526 15.59 80.0326 15.83H80.7376V13.445C80.5676 13.405 80.4226 13.355 80.3026 13.295C80.1926 13.235 80.0826 13.165 79.9726 13.085V12.5H83.4226V13.085C83.3226 13.165 83.2176 13.235 83.1076 13.295C83.0076 13.355 82.8676 13.405 82.6876 13.445V15.92L83.4526 15.77C83.6326 15.53 83.7826 15.32 83.9026 15.14C84.0326 14.96 84.1526 14.785 84.2626 14.615C84.3826 14.435 84.4976 14.255 84.6076 14.075C84.7176 13.895 84.8426 13.685 84.9826 13.445C84.8426 13.395 84.7126 13.345 84.5926 13.295C84.4726 13.245 84.3526 13.175 84.2326 13.085V12.5Z" fill="url(#paint1_linear_7_199)"/>
<path d="M20.2614 9.5H24.2814V10.07C24.1114 10.18 23.9164 10.275 23.6964 10.355C23.4764 10.425 23.2764 10.475 23.0964 10.505L20.2464 14.12C20.4764 14.44 20.7464 14.805 21.0564 15.215C21.3664 15.615 21.6964 16.035 22.0464 16.475C22.3964 16.905 22.7564 17.345 23.1264 17.795C23.4964 18.235 23.8564 18.655 24.2064 19.055L24.9264 19.49V20H22.3164L21.7164 19.58C21.4764 19.28 21.2214 18.95 20.9514 18.59C20.6914 18.22 20.4314 17.84 20.1714 17.45C19.9114 17.05 19.6564 16.65 19.4064 16.25C19.1564 15.85 18.9214 15.46 18.7014 15.08H18.0564V18.995C18.2764 19.035 18.4764 19.095 18.6564 19.175C18.8364 19.255 18.9914 19.34 19.1214 19.43V20H14.5764V19.43C14.7764 19.33 14.9814 19.245 15.1914 19.175C15.4014 19.095 15.6064 19.035 15.8064 18.995V10.505C15.5764 10.475 15.3514 10.42 15.1314 10.34C14.9214 10.26 14.7364 10.17 14.5764 10.07V9.5H19.1214V10.07C18.9914 10.15 18.8314 10.23 18.6414 10.31C18.4614 10.39 18.2664 10.455 18.0564 10.505V14.315L18.9414 14.105L21.3564 10.505C21.1564 10.465 20.9564 10.405 20.7564 10.325C20.5664 10.235 20.4014 10.15 20.2614 10.07V9.5ZM24.8195 16.25C24.8195 15.64 24.9095 15.095 25.0895 14.615C25.2795 14.125 25.5445 13.71 25.8845 13.37C26.2345 13.03 26.6545 12.77 27.1445 12.59C27.6345 12.41 28.1895 12.32 28.8095 12.32C29.5095 12.32 30.1095 12.42 30.6095 12.62C31.1195 12.81 31.5345 13.08 31.8545 13.43C32.1845 13.77 32.4245 14.185 32.5745 14.675C32.7245 15.155 32.7995 15.68 32.7995 16.25C32.7995 16.86 32.7095 17.41 32.5295 17.9C32.3495 18.38 32.0845 18.79 31.7345 19.13C31.3945 19.47 30.9745 19.73 30.4745 19.91C29.9845 20.09 29.4295 20.18 28.8095 20.18C28.1295 20.18 27.5395 20.085 27.0395 19.895C26.5395 19.695 26.1245 19.425 25.7945 19.085C25.4645 18.735 25.2195 18.32 25.0595 17.84C24.8995 17.35 24.8195 16.82 24.8195 16.25ZM27.1445 16.25C27.1445 16.7 27.1695 17.115 27.2195 17.495C27.2795 17.865 27.3795 18.18 27.5195 18.44C27.6595 18.7 27.8495 18.905 28.0895 19.055C28.3295 19.195 28.6395 19.265 29.0195 19.265C29.2395 19.265 29.4395 19.215 29.6195 19.115C29.7995 19.005 29.9545 18.835 30.0845 18.605C30.2145 18.365 30.3095 18.055 30.3695 17.675C30.4395 17.285 30.4745 16.81 30.4745 16.25C30.4745 15.79 30.4445 15.375 30.3845 15.005C30.3345 14.635 30.2395 14.32 30.0995 14.06C29.9695 13.8 29.7895 13.6 29.5595 13.46C29.3295 13.31 29.0395 13.235 28.6895 13.235C28.4295 13.235 28.2045 13.29 28.0145 13.4C27.8245 13.5 27.6645 13.67 27.5345 13.91C27.4045 14.14 27.3045 14.45 27.2345 14.84C27.1745 15.22 27.1445 15.69 27.1445 16.25ZM37.6707 20H33.6957V19.415C33.8357 19.335 33.9907 19.27 34.1607 19.22C34.3307 19.16 34.5057 19.105 34.6857 19.055V13.445C34.5057 13.395 34.3307 13.345 34.1607 13.295C33.9907 13.235 33.8357 13.165 33.6957 13.085V12.5H37.6707V13.085C37.4407 13.225 37.1657 13.345 36.8457 13.445V15.785H39.6357V13.445C39.3457 13.385 39.0707 13.265 38.8107 13.085V12.5H42.7857V13.085C42.5157 13.255 42.1857 13.375 41.7957 13.445V19.055C41.9757 19.095 42.1507 19.14 42.3207 19.19C42.4907 19.24 42.6457 19.315 42.7857 19.415V20H38.8107V19.415C39.0707 19.225 39.3457 19.105 39.6357 19.055V16.64H36.8457V19.055C37.0157 19.095 37.1657 19.145 37.2957 19.205C37.4357 19.265 37.5607 19.335 37.6707 19.415V20ZM50.0617 18.785C49.9917 18.985 49.8767 19.17 49.7167 19.34C49.5567 19.5 49.3617 19.645 49.1317 19.775C48.9117 19.905 48.6567 20.005 48.3667 20.075C48.0867 20.145 47.7917 20.18 47.4817 20.18C46.8217 20.18 46.2517 20.09 45.7717 19.91C45.3017 19.72 44.9117 19.455 44.6017 19.115C44.2917 18.765 44.0617 18.35 43.9117 17.87C43.7617 17.38 43.6867 16.84 43.6867 16.25C43.6867 14.98 44.0317 14.01 44.7217 13.34C45.4217 12.66 46.4117 12.32 47.6917 12.32C48.1817 12.32 48.6317 12.375 49.0417 12.485C49.4517 12.585 49.7917 12.705 50.0617 12.845C50.0417 13.015 50.0117 13.205 49.9717 13.415C49.9417 13.615 49.9017 13.82 49.8517 14.03C49.8117 14.23 49.7617 14.43 49.7017 14.63C49.6417 14.82 49.5817 14.98 49.5217 15.11H48.7867L48.1567 13.325C48.0867 13.275 48.0117 13.24 47.9317 13.22C47.8517 13.19 47.7317 13.175 47.5717 13.175C47.3117 13.175 47.0867 13.225 46.8967 13.325C46.7067 13.415 46.5417 13.575 46.4017 13.805C46.2717 14.035 46.1717 14.34 46.1017 14.72C46.0417 15.1 46.0117 15.57 46.0117 16.13C46.0117 16.54 46.0567 16.92 46.1467 17.27C46.2367 17.61 46.3717 17.91 46.5517 18.17C46.7417 18.42 46.9767 18.62 47.2567 18.77C47.5367 18.91 47.8667 18.98 48.2467 18.98C48.5967 18.98 48.9017 18.93 49.1617 18.83C49.4217 18.73 49.6417 18.61 49.8217 18.47L50.0617 18.785ZM54.0723 15.485C54.2423 15.465 54.4673 15.44 54.7473 15.41C55.0273 15.38 55.3673 15.365 55.7673 15.365C56.5873 15.365 57.2423 15.555 57.7323 15.935C58.2223 16.305 58.4673 16.865 58.4673 17.615C58.4673 18.015 58.3873 18.37 58.2273 18.68C58.0673 18.98 57.8473 19.235 57.5673 19.445C57.2873 19.645 56.9523 19.8 56.5623 19.91C56.1823 20.01 55.7673 20.06 55.3173 20.06C55.1773 20.06 54.9773 20.055 54.7173 20.045C54.4673 20.045 54.1923 20.04 53.8923 20.03C53.6023 20.02 53.3123 20.01 53.0223 20C52.7423 20 52.5073 20 52.3173 20H50.9223V19.415C51.0723 19.335 51.2323 19.27 51.4023 19.22C51.5723 19.16 51.7423 19.105 51.9123 19.055V13.445C51.7223 13.405 51.5473 13.355 51.3873 13.295C51.2273 13.235 51.0723 13.165 50.9223 13.085V12.5H54.9723V13.085C54.7323 13.225 54.4323 13.345 54.0723 13.445V15.485ZM54.0723 19.145C54.1723 19.165 54.2773 19.18 54.3873 19.19C54.5073 19.2 54.6223 19.205 54.7323 19.205C54.9423 19.205 55.1323 19.18 55.3023 19.13C55.4723 19.08 55.6173 18.995 55.7373 18.875C55.8573 18.745 55.9473 18.58 56.0073 18.38C56.0773 18.17 56.1123 17.91 56.1123 17.6C56.1123 17.33 56.0773 17.11 56.0073 16.94C55.9473 16.76 55.8573 16.62 55.7373 16.52C55.6273 16.41 55.4923 16.335 55.3323 16.295C55.1823 16.245 55.0173 16.22 54.8373 16.22C54.7173 16.22 54.5873 16.225 54.4473 16.235C54.3173 16.245 54.1923 16.265 54.0723 16.295V19.145ZM65.9951 18.74C65.9151 18.91 65.7851 19.085 65.6051 19.265C65.4351 19.435 65.2201 19.59 64.9601 19.73C64.7101 19.86 64.4151 19.965 64.0751 20.045C63.7451 20.135 63.3851 20.18 62.9951 20.18C62.3751 20.18 61.8251 20.09 61.3451 19.91C60.8651 19.72 60.4651 19.455 60.1451 19.115C59.8251 18.765 59.5801 18.35 59.4101 17.87C59.2501 17.39 59.1701 16.85 59.1701 16.25C59.1701 14.97 59.5051 13.995 60.1751 13.325C60.8451 12.655 61.7751 12.32 62.9651 12.32C63.4751 12.32 63.9501 12.39 64.3901 12.53C64.8401 12.67 65.2101 12.9 65.5001 13.22C65.8001 13.54 66.0051 13.96 66.1151 14.48C66.2351 15 66.2301 15.635 66.1001 16.385H61.4951C61.5051 17.175 61.7051 17.805 62.0951 18.275C62.4951 18.745 63.0801 18.98 63.8501 18.98C64.1801 18.98 64.5201 18.93 64.8701 18.83C65.2301 18.73 65.5101 18.6 65.7101 18.44L65.9951 18.74ZM62.9051 13.175C62.7051 13.175 62.5251 13.21 62.3651 13.28C62.2151 13.35 62.0801 13.48 61.9601 13.67C61.8501 13.85 61.7601 14.1 61.6901 14.42C61.6201 14.73 61.5701 15.125 61.5401 15.605H63.9551C64.0251 14.825 63.9801 14.225 63.8201 13.805C63.6601 13.385 63.3551 13.175 62.9051 13.175ZM71.2167 23H67.0767V22.415C67.4167 22.255 67.7467 22.135 68.0667 22.055V13.565L67.0767 13.445V12.86C67.2367 12.79 67.4317 12.725 67.6617 12.665C67.9017 12.605 68.1467 12.555 68.3967 12.515C68.6467 12.465 68.8867 12.425 69.1167 12.395C69.3567 12.365 69.5567 12.34 69.7167 12.32H70.2267V14H70.2417C70.4117 13.52 70.6767 13.12 71.0367 12.8C71.4067 12.48 71.9167 12.32 72.5667 12.32C73.0067 12.32 73.4017 12.395 73.7517 12.545C74.1117 12.685 74.4117 12.91 74.6517 13.22C74.9017 13.52 75.0917 13.91 75.2217 14.39C75.3617 14.86 75.4317 15.425 75.4317 16.085C75.4317 16.715 75.3417 17.285 75.1617 17.795C74.9917 18.305 74.7417 18.735 74.4117 19.085C74.0917 19.435 73.6967 19.705 73.2267 19.895C72.7667 20.085 72.2417 20.18 71.6517 20.18C71.3117 20.18 71.0417 20.155 70.8417 20.105C70.6517 20.065 70.4467 19.99 70.2267 19.88V22.055C70.3867 22.075 70.5467 22.11 70.7067 22.16C70.8667 22.22 71.0367 22.305 71.2167 22.415V23ZM71.6967 13.52C71.3567 13.52 71.0517 13.64 70.7817 13.88C70.5217 14.12 70.3367 14.49 70.2267 14.99V18.98C70.3867 19.1 70.5567 19.19 70.7367 19.25C70.9167 19.3 71.1517 19.325 71.4417 19.325C72.0117 19.325 72.4317 19.05 72.7017 18.5C72.9717 17.95 73.1067 17.145 73.1067 16.085C73.1067 15.265 73.0017 14.635 72.7917 14.195C72.5917 13.745 72.2267 13.52 71.6967 13.52ZM84.2326 12.5H87.3676V13.085C87.1976 13.205 86.9126 13.325 86.5126 13.445C86.1926 13.865 85.8826 14.255 85.5826 14.615C85.2926 14.965 84.9876 15.33 84.6676 15.71C84.7976 15.89 84.9576 16.11 85.1476 16.37C85.3376 16.63 85.5426 16.91 85.7626 17.21C85.9826 17.51 86.2126 17.82 86.4526 18.14C86.7026 18.45 86.9476 18.755 87.1876 19.055L87.7276 19.415V20H85.5976L85.1776 19.655C85.0076 19.445 84.8326 19.2 84.6526 18.92C84.4726 18.63 84.2976 18.34 84.1276 18.05C83.9576 17.76 83.8026 17.485 83.6626 17.225C83.5326 16.965 83.4276 16.75 83.3476 16.58H82.6876V19.055C82.9976 19.135 83.2976 19.255 83.5876 19.415V20H79.8976V19.415C80.0376 19.345 80.1726 19.28 80.3026 19.22C80.4426 19.16 80.5876 19.105 80.7376 19.055V16.49L79.9876 16.64C79.9076 16.78 79.8076 16.98 79.6876 17.24C79.5676 17.49 79.4276 17.76 79.2676 18.05C79.1076 18.34 78.9376 18.63 78.7576 18.92C78.5876 19.21 78.4126 19.455 78.2326 19.655L77.7826 20H75.6826V19.415L76.3126 19.055C76.5626 18.765 76.8026 18.465 77.0326 18.155C77.2626 17.845 77.4776 17.545 77.6776 17.255C77.8776 16.965 78.0626 16.695 78.2326 16.445C78.4026 16.195 78.5576 15.98 78.6976 15.8C78.3376 15.42 78.0076 15.045 77.7076 14.675C77.4176 14.305 77.1126 13.895 76.7926 13.445C76.5326 13.385 76.2826 13.265 76.0426 13.085V12.5H79.1776V13.085C78.9876 13.225 78.7376 13.345 78.4276 13.445C78.5576 13.685 78.6826 13.9 78.8026 14.09C78.9226 14.28 79.0426 14.465 79.1626 14.645C79.2926 14.825 79.4226 15.01 79.5526 15.2C79.6926 15.38 79.8526 15.59 80.0326 15.83H80.7376V13.445C80.5676 13.405 80.4226 13.355 80.3026 13.295C80.1926 13.235 80.0826 13.165 79.9726 13.085V12.5H83.4226V13.085C83.3226 13.165 83.2176 13.235 83.1076 13.295C83.0076 13.355 82.8676 13.405 82.6876 13.445V15.92L83.4526 15.77C83.6326 15.53 83.7826 15.32 83.9026 15.14C84.0326 14.96 84.1526 14.785 84.2626 14.615C84.3826 14.435 84.4976 14.255 84.6076 14.075C84.7176 13.895 84.8426 13.685 84.9826 13.445C84.8426 13.395 84.7126 13.345 84.5926 13.295C84.4726 13.245 84.3526 13.175 84.2326 13.085V12.5Z" fill="#FFCA41" fill-opacity="0.4"/>
<defs>
<filter id="filter0_d_7_199" x="0" y="0" width="102" height="37" filterUnits="userSpaceOnUse" color-interpolation-filters="sRGB">
<feFlood flood-opacity="0" result="BackgroundImageFix"/>
<feColorMatrix in="SourceAlpha" type="matrix" values="0 0 0 0 0 0 0 0 0 0 0 0 0 0 0 0 0 0 127 0" result="hardAlpha"/>
<feOffset dy="2"/>
<feGaussianBlur stdDeviation="2.5"/>
<feComposite in2="hardAlpha" operator="out"/>
<feColorMatrix type="matrix" values="0 0 0 0 0 0 0 0 0 0 0 0 0 0 0 0 0 0 0.09 0"/>
<feBlend mode="normal" in2="BackgroundImageFix" result="effect1_dropShadow_7_199"/>
<feBlend mode="normal" in="SourceGraphic" in2="effect1_dropShadow_7_199" result="shape"/>
</filter>
<linearGradient id="paint0_linear_7_199" x1="-45.9994" y1="-54.9998" x2="68.3554" y2="54.7216" gradientUnits="userSpaceOnUse">
<stop offset="0.494921" stop-color="#976123"/>
<stop offset="0.563768" stop-color="#E8B945"/>
<stop offset="0.637897" stop-color="#FFF1A8"/>
<stop offset="0.706377" stop-color="#E1A94A"/>
<stop offset="0.760947" stop-color="#E1A94A"/>
<stop offset="0.843565" stop-color="#BA812B"/>
<stop offset="0.930386" stop-color="#FFF1A8"/>
<stop offset="1" stop-color="#E8B945"/>
</linearGradient>
<linearGradient id="paint1_linear_7_199" x1="-45.9994" y1="-53.9998" x2="68.3554" y2="55.7216" gradientUnits="userSpaceOnUse">
<stop offset="0.494921" stop-color="#976123"/>
<stop offset="0.563768" stop-color="#E8B945"/>
<stop offset="0.637897" stop-color="#FFF1A8"/>
<stop offset="0.706377" stop-color="#E1A94A"/>
<stop offset="0.760947" stop-color="#E1A94A"/>
<stop offset="0.843565" stop-color="#BA812B"/>
<stop offset="0.930386" stop-color="#FFF1A8"/>
<stop offset="1" stop-color="#E8B945"/>
</linearGradient>
</defs>
</svg>
