<svg width="20" height="20" viewBox="0 0 20 20" fill="none" xmlns="http://www.w3.org/2000/svg">
<path d="M10 0C4.485 0 0 4.485 0 10C0 15.515 4.485 20 10 20C15.515 20 20 15.515 20 10C20 4.485 15.515 0 10 0ZM10 1.5C14.705 1.5 18.5 5.295 18.5 10C18.5 14.705 14.705 18.5 10 18.5C5.295 18.5 1.5 14.705 1.5 10C1.5 5.295 5.295 1.5 10 1.5ZM10 4.5C8.35 4.5 7 5.85 7 7.5V7.75C6.995 8.165 7.325 8.505 7.74 8.51C8.155 8.515 8.495 8.185 8.5 7.77C8.5 7.765 8.5 7.755 8.5 7.75V7.5C8.5 6.665 9.165 6 10 6C10.835 6 11.5 6.665 11.5 7.5C11.5 8.67 11.195 8.815 10.66 9.235C10.395 9.445 10.045 9.685 9.745 10.095C9.445 10.505 9.25 11.07 9.25 11.75C9.245 12.165 9.575 12.505 9.99 12.51C10.405 12.515 10.745 12.185 10.75 11.77C10.75 11.765 10.75 11.755 10.75 11.75C10.75 11.325 10.835 11.15 10.955 10.98C11.075 10.81 11.29 10.645 11.585 10.415C12.18 9.95 13 9.08 13 7.5C13 5.85 11.65 4.5 10 4.5ZM10 14C9.45 14 9 14.45 9 15C9 15.55 9.45 16 10 16C10.55 16 11 15.55 11 15C11 14.45 10.55 14 10 14Z" fill="#04242B"/>
</svg>
