<svg width="21" height="24" viewBox="0 0 21 24" fill="none" xmlns="http://www.w3.org/2000/svg">
<path d="M10.3352 16.78C10.2302 16.645 10.0802 16.5 9.92517 16.5C9.35517 16.5 8.87018 16.76 8.51018 16.965C8.38518 17 8.28518 17.105 8.26018 17.235C8.23518 17.365 8.27518 17.495 8.37518 17.585C8.82518 17.965 9.61517 18.505 10.4902 18.505C11.3602 18.505 12.1452 17.965 12.5952 17.585C12.6952 17.5 12.7402 17.365 12.7102 17.24C12.6802 17.11 12.5852 17.01 12.4602 16.975C12.1052 16.755 11.6202 16.5 11.0502 16.5C10.9002 16.5 10.7452 16.645 10.6402 16.78C10.5552 16.86 10.4202 16.86 10.3352 16.78Z" fill="#04242B"/>
<path d="M17 11.0245V9.44954C17 9.05954 16.97 8.68454 16.925 8.31954L15.35 7.96454C15.155 7.94454 14.96 7.93454 14.775 7.95454C14.21 8.00954 13.69 8.19954 13.22 8.41454C12.285 8.84454 11.545 9.40454 11.545 9.40454C11.21 9.64954 11.14 10.1195 11.385 10.4545C11.63 10.7895 12.1 10.8595 12.435 10.6145C12.44 10.6095 12.445 10.6045 12.45 10.6045C12.45 10.6045 13.09 10.1245 13.84 9.77954C14.215 9.60954 14.615 9.47954 14.92 9.44954C15.22 9.41954 15.38 9.46454 15.5 9.56454V10.4995C13.82 10.5045 12.32 11.0345 11.575 12.2345C11.425 12.4645 11.495 12.7745 11.725 12.9245C11.955 13.0745 12.265 13.0045 12.415 12.7745C12.42 12.7695 12.42 12.7645 12.425 12.7595C12.565 12.5295 12.765 12.3345 13.005 12.1645C13 12.1945 12.995 12.2195 12.995 12.2495C12.995 12.6645 13.33 12.9995 13.745 12.9995C14.16 12.9995 14.495 12.6645 14.495 12.2495C14.495 12.0045 14.375 11.7895 14.19 11.6495C14.59 11.5545 15.025 11.4995 15.5 11.4995V12.7295C15.5 14.3045 14.675 16.2095 13.585 17.6545C13.04 18.3795 12.43 18.9895 11.865 19.4045C11.3 19.8195 10.785 19.9995 10.5 19.9995C10.215 19.9995 9.70002 19.8145 9.13502 19.4045C8.57002 18.9945 7.96003 18.3795 7.41503 17.6545C6.32503 16.2045 5.50003 14.3045 5.50003 12.7295V11.4995C5.97503 11.4995 6.41003 11.5545 6.80503 11.6495C6.62003 11.7895 6.50003 12.0045 6.50003 12.2495C6.50003 12.6645 6.83503 12.9995 7.25003 12.9995C7.66503 12.9995 8.00003 12.6645 8.00003 12.2495C8.00003 12.2195 7.99503 12.1945 7.99003 12.1645C8.23003 12.3345 8.43003 12.5345 8.57002 12.7595C8.71002 12.9945 9.02002 13.0745 9.25502 12.9295C9.49002 12.7895 9.57002 12.4795 9.42502 12.2445C9.42002 12.2395 9.42002 12.2345 9.41502 12.2295C8.67002 11.0295 7.17503 10.4995 5.49003 10.4945V9.55454C5.61003 9.45454 5.77003 9.40954 6.07003 9.43954C6.37503 9.46954 6.77003 9.59954 7.15003 9.76954C7.90003 10.1145 8.54002 10.5945 8.54002 10.5945C8.86502 10.8495 9.34002 10.7895 9.59502 10.4645C9.85002 10.1395 9.79002 9.66454 9.46502 9.40954C9.46002 9.40454 9.45502 9.39954 9.45002 9.39954C9.45002 9.39954 8.71502 8.83454 7.77503 8.40954C7.30503 8.19454 6.78503 8.00454 6.22003 7.94954C6.03503 7.92954 5.84003 7.93954 5.64503 7.95954C5.82503 7.06454 6.18003 6.30455 6.66503 5.69455C6.83503 5.52955 6.79503 5.55955 7.14503 5.31455C7.80503 4.85955 8.33003 4.79955 8.54002 4.78455C9.82002 5.73955 11.32 5.88955 12.59 6.00455C13.965 6.12955 15.005 6.25955 15.655 6.99955C15.78 7.14454 15.955 7.22454 16.13 7.24954H16.325C16.465 7.22954 16.6 7.16954 16.715 7.06955C17.025 6.79455 17.06 6.32455 16.785 6.00955C15.685 4.75455 14.105 4.62955 12.725 4.50455C11.35 4.37955 10.13 4.24955 9.21502 3.43955C9.08002 3.31955 8.90002 3.24955 8.71502 3.24955C8.71502 3.24955 7.44503 3.19956 6.29003 4.06955C5.69503 4.51955 5.23003 5.12455 5.17503 5.16455C4.40504 6.34955 4.00004 7.81954 4.00004 9.44954V11.0445C3.45504 11.2045 3.16504 11.7995 3.16504 12.3995C3.16504 13.4145 3.52004 14.2945 4.22504 14.4745C4.58004 15.9495 5.32503 17.3695 6.22003 18.5545C6.30503 18.6695 6.41503 18.7295 6.50003 18.8395C6.50003 18.8445 6.50003 18.8495 6.50003 18.8495V22.2445C6.49503 22.6595 6.82503 22.9995 7.24003 23.0045C7.65503 23.0095 7.99503 22.6795 8.00003 22.2645C8.00003 22.2595 8.00003 22.2495 8.00003 22.2445V20.3545C8.08503 20.4245 8.16003 20.5445 8.25003 20.6095C8.96502 21.1395 9.70502 21.4995 10.5 21.4995C11.295 21.4995 12.035 21.1395 12.75 20.6145C12.84 20.5495 12.915 20.4295 13 20.3595V22.2495C12.995 22.6645 13.325 23.0045 13.74 23.0095C14.155 23.0145 14.495 22.6845 14.5 22.2695C14.5 22.2645 14.5 22.2545 14.5 22.2495V18.8545C14.5 18.8495 14.5 18.8445 14.5 18.8445C14.59 18.7345 14.695 18.6745 14.78 18.5595C15.67 17.3795 16.41 15.9645 16.77 14.4995H16.79C17.54 14.3595 17.915 13.4495 17.915 12.3995C17.915 11.7695 17.6 11.1445 17 11.0245Z" fill="#04242B"/>
<path d="M19.245 4.46499C17.785 1.685 15.04 0 10.75 0C6.46004 0 3.61005 1.67 2.02005 4.43999C0.430055 7.20998 5.60743e-05 10.95 5.60743e-05 15.25V22.2499C-0.00494391 22.6649 0.325055 23.0049 0.740054 23.0099C1.15505 23.0149 1.49505 22.6849 1.50005 22.2699C1.50005 22.2649 1.50005 22.2549 1.50005 22.2499V15.25C1.50005 11.05 1.96505 7.53998 3.32005 5.18499C4.67504 2.82999 6.82504 1.5 10.75 1.5C12.15 1.5 13.305 1.67 14.27 1.98999C14.275 1.98999 14.28 1.99499 14.285 1.99499C16.015 2.57499 17.125 3.65499 17.92 5.15999C19.15 7.50998 19.5 11.04 19.5 15.25V22.2499C19.495 22.6649 19.825 23.0049 20.24 23.0099C20.655 23.0149 20.995 22.6849 21 22.2699C21 22.2649 21 22.2549 21 22.2499V15.25C21 10.96 20.705 7.23998 19.245 4.46499Z" fill="#04242B"/>
</svg>
