<svg width="11" height="10" viewBox="0 0 11 10" fill="none" xmlns="http://www.w3.org/2000/svg">
<path d="M3.7475 9.50027C3.5475 9.50027 3.3575 9.42027 3.2175 9.28027L0.2175 6.28027C-0.0725 5.99027 -0.0725 5.51027 0.2175 5.22027C0.5075 4.93027 0.9875 4.93027 1.2775 5.22027L3.6675 7.61027L9.1475 0.300273C9.3975 -0.0297272 9.8675 -0.0997272 10.1975 0.150273C10.5275 0.400273 10.5975 0.870273 10.3475 1.20027L4.3475 9.20027C4.2175 9.37027 4.0175 9.48027 3.7975 9.50027C3.7875 9.50027 3.7675 9.50027 3.7475 9.50027Z" fill="url(#paint0_linear_7_206)"/>
<path d="M3.7475 9.50027C3.5475 9.50027 3.3575 9.42027 3.2175 9.28027L0.2175 6.28027C-0.0725 5.99027 -0.0725 5.51027 0.2175 5.22027C0.5075 4.93027 0.9875 4.93027 1.2775 5.22027L3.6675 7.61027L9.1475 0.300273C9.3975 -0.0297272 9.8675 -0.0997272 10.1975 0.150273C10.5275 0.400273 10.5975 0.870273 10.3475 1.20027L4.3475 9.20027C4.2175 9.37027 4.0175 9.48027 3.7975 9.50027C3.7875 9.50027 3.7675 9.50027 3.7475 9.50027Z" fill="#FFCA41" fill-opacity="0.4"/>
<defs>
<linearGradient id="paint0_linear_7_206" x1="-5.81935" y1="-20.4079" x2="17.0297" y2="-13.2984" gradientUnits="userSpaceOnUse">
<stop offset="0.494921" stop-color="#976123"/>
<stop offset="0.563768" stop-color="#E8B945"/>
<stop offset="0.637897" stop-color="#FFF1A8"/>
<stop offset="0.706377" stop-color="#E1A94A"/>
<stop offset="0.760947" stop-color="#E1A94A"/>
<stop offset="0.843565" stop-color="#BA812B"/>
<stop offset="0.930386" stop-color="#FFF1A8"/>
<stop offset="1" stop-color="#E8B945"/>
</linearGradient>
</defs>
</svg>
