<svg width="170" height="60" viewBox="0 0 170 60" fill="none" xmlns="http://www.w3.org/2000/svg">
<path d="M4.99016 5.99097C5.54316 5.99097 5.99082 5.5433 5.99082 4.99031C5.99082 4.43731 5.54316 3.98965 4.99016 3.98965C4.43717 3.98965 3.9895 4.43731 3.9895 4.99031C3.9895 5.5433 4.43717 5.99097 4.99016 5.99097Z" fill="white"/>
<path d="M20.9611 5.99097C21.5141 5.99097 21.9618 5.5433 21.9618 4.99031C21.9618 4.43731 21.5141 3.98965 20.9611 3.98965C20.4081 3.98965 19.9605 4.43731 19.9605 4.99031C19.9736 5.5433 20.4213 5.99097 20.9611 5.99097Z" fill="white"/>
<path d="M24.9638 5.99097C25.5168 5.99097 25.9645 5.5433 25.9645 4.99031C25.9645 4.43731 25.5168 3.98965 24.9638 3.98965C24.4108 3.98965 23.9632 4.43731 23.9632 4.99031C23.9632 5.5433 24.4108 5.99097 24.9638 5.99097Z" fill="white"/>
<path d="M14.9704 7.99223C15.5234 7.99223 15.971 7.54457 15.971 6.99158C15.971 6.43858 15.5234 5.99092 14.9704 5.99092C14.4174 5.99092 13.9697 6.43858 13.9697 6.99158C13.9697 7.54457 14.4305 7.99223 14.9704 7.99223Z" fill="white"/>
<path d="M18.973 7.99223C19.5257 7.99223 19.9737 7.54422 19.9737 6.99158C19.9737 6.43893 19.5257 5.99092 18.973 5.99092C18.4204 5.99092 17.9724 6.43893 17.9724 6.99158C17.9724 7.54422 18.4204 7.99223 18.973 7.99223Z" fill="white"/>
<path d="M22.9625 7.99223C23.5155 7.99223 23.9631 7.54457 23.9631 6.99158C23.9631 6.43858 23.5155 5.99092 22.9625 5.99092C22.4095 5.99092 21.9618 6.43858 21.9618 6.99158C21.9618 7.54457 22.4095 7.99223 22.9625 7.99223Z" fill="white"/>
<path d="M28.9532 7.99223C29.5062 7.99223 29.9539 7.54457 29.9539 6.99158C29.9539 6.43858 29.5062 5.99092 28.9532 5.99092C28.4002 5.99092 27.9526 6.43858 27.9526 6.99158C27.9526 7.54457 28.4002 7.99223 28.9532 7.99223Z" fill="white"/>
<path d="M30.9546 7.99223C31.5076 7.99223 31.9552 7.54457 31.9552 6.99158C31.9552 6.43858 31.5076 5.99092 30.9546 5.99092C30.4016 5.99092 29.9539 6.43858 29.9539 6.99158C29.9539 7.54457 30.4016 7.99223 30.9546 7.99223Z" fill="white"/>
<path d="M40.9349 2.00132C41.4879 2.00132 41.9355 1.55365 41.9355 1.00066C41.9355 0.447663 41.4879 0 40.9349 0C40.3819 0 39.9342 0.447663 39.9342 1.00066C39.9342 1.55365 40.3819 2.00132 40.9349 2.00132Z" fill="white"/>
<path d="M45.9249 1.00066C45.9249 0.447663 45.4773 0 44.9243 0C44.3713 0 43.9236 0.447663 43.9236 1.00066C43.9236 1.55365 44.3713 2.00132 44.9243 2.00132C45.4773 2.00132 45.9249 1.55365 45.9249 1.00066Z" fill="white"/>
<path d="M51.9157 1.00066C51.9157 0.447663 51.4681 0 50.9151 0C50.3621 0 49.9144 0.447663 49.9144 1.00066C49.9144 1.55365 50.3621 2.00132 50.9151 2.00132C51.4681 2.00132 51.9157 1.55365 51.9157 1.00066Z" fill="white"/>
<path d="M38.9335 3.9894C39.4865 3.9894 39.9342 3.54174 39.9342 2.98874C39.9342 2.43575 39.4865 1.98809 38.9335 1.98809C38.3805 1.98809 37.9329 2.43575 37.9329 2.98874C37.9329 3.54174 38.3805 3.9894 38.9335 3.9894Z" fill="white"/>
<path d="M42.9361 2.00127C42.3831 2.00127 41.9355 2.44893 41.9355 3.00193C41.9355 3.55492 42.3831 4.00259 42.9361 4.00259C43.4891 4.00259 43.9368 3.55492 43.9368 3.00193C43.9236 2.44893 43.476 2.00127 42.9361 2.00127Z" fill="white"/>
<path d="M45.9249 2.98874C45.9249 2.43575 45.4773 1.98809 44.9243 1.98809C44.3713 1.98809 43.9236 2.43575 43.9236 2.98874C43.9236 3.54174 44.3713 3.9894 44.9243 3.9894C45.4773 3.9894 45.9249 3.54174 45.9249 2.98874Z" fill="white"/>
<path d="M49.9145 2.98874C49.9145 2.43575 49.4668 1.98809 48.9138 1.98809C48.3608 1.98809 47.9131 2.43575 47.9131 2.98874C47.9131 3.54174 48.3608 3.9894 48.9138 3.9894C49.4668 3.9894 49.9145 3.54174 49.9145 2.98874Z" fill="white"/>
<path d="M50.9151 3.9894C51.4681 3.9894 51.9157 3.54174 51.9157 2.98874C51.9157 2.43575 51.4681 1.98809 50.9151 1.98809C50.3621 1.98809 49.9145 2.43575 49.9145 2.98874C49.9145 3.54174 50.3621 3.9894 50.9151 3.9894Z" fill="white"/>
<path d="M32.9427 5.99097C33.4957 5.99097 33.9434 5.5433 33.9434 4.99031C33.9434 4.43731 33.4957 3.98965 32.9427 3.98965C32.3898 3.98965 31.9421 4.43731 31.9421 4.99031C31.9421 5.5433 32.3898 5.99097 32.9427 5.99097Z" fill="white"/>
<path d="M36.9454 5.99097C37.4984 5.99097 37.946 5.5433 37.946 4.99031C37.946 4.43731 37.4984 3.98965 36.9454 3.98965C36.3924 3.98965 35.9447 4.43731 35.9447 4.99031C35.9447 5.5433 36.3924 5.99097 36.9454 5.99097Z" fill="white"/>
<path d="M41.9355 4.99031C41.9355 4.43731 41.4879 3.98965 40.9349 3.98965C40.3819 3.98965 39.9342 4.43731 39.9342 4.99031C39.9342 5.5433 40.3819 5.99097 40.9349 5.99097C41.4879 5.99097 41.9355 5.5433 41.9355 4.99031Z" fill="white"/>
<path d="M44.9243 3.9894C44.3713 3.9894 43.9236 4.43731 43.9236 4.99031C43.9236 5.5433 44.3713 5.99097 44.9243 5.99097C45.4773 5.99097 45.9249 5.5433 45.9249 4.99031C45.9249 4.43731 45.4773 3.9894 44.9243 3.9894Z" fill="white"/>
<path d="M47.9263 4.99031C47.9263 4.43731 47.4786 3.98965 46.9256 3.98965C46.3726 3.98965 45.9249 4.43731 45.9249 4.99031C45.9249 5.5433 46.3726 5.99097 46.9256 5.99097C47.4786 5.99097 47.9263 5.5433 47.9263 4.99031Z" fill="white"/>
<path d="M48.927 5.99097C49.48 5.99097 49.9276 5.5433 49.9276 4.99031C49.9276 4.43731 49.48 3.98965 48.927 3.98965C48.374 3.98965 47.9263 4.43731 47.9263 4.99031C47.9263 5.5433 48.374 5.99097 48.927 5.99097Z" fill="white"/>
<path d="M51.9157 4.99031C51.9157 5.5433 52.3634 5.99097 52.9164 5.99097C53.4694 5.99097 53.9171 5.5433 53.9171 4.99031C53.9171 4.43731 53.4694 3.98965 52.9164 3.98965C52.3634 3.98965 51.9157 4.43731 51.9157 4.99031Z" fill="white"/>
<path d="M38.9335 5.99092C38.3805 5.99092 37.9329 6.43858 37.9329 6.99158C37.9329 7.54457 38.3805 7.99223 38.9335 7.99223C39.4865 7.99223 39.9342 7.54457 39.9342 6.99158C39.9342 6.43858 39.4865 5.99092 38.9335 5.99092Z" fill="white"/>
<path d="M40.9349 5.99097C40.3819 5.99097 39.9342 6.43858 39.9342 6.99158C39.9342 7.54457 40.3819 7.99223 40.9349 7.99223C41.4879 7.99223 41.9355 7.54457 41.9355 6.99158C41.9355 6.43858 41.4879 5.99097 40.9349 5.99097Z" fill="white"/>
<path d="M43.9237 6.99158C43.9237 6.43858 43.476 5.99092 42.923 5.99092C42.37 5.99092 41.9224 6.43858 41.9224 6.99158C41.9224 7.54457 42.37 7.99223 42.923 7.99223C43.476 7.99223 43.9237 7.54457 43.9237 6.99158Z" fill="white"/>
<path d="M47.9263 6.99158C47.9263 6.43858 47.4786 5.99097 46.9256 5.99097C46.3726 5.99097 45.925 6.43858 45.925 6.99158C45.925 7.54457 46.3726 7.99223 46.9256 7.99223C47.4786 7.99223 47.9263 7.54457 47.9263 6.99158Z" fill="white"/>
<path d="M48.927 5.99097C48.374 5.99097 47.9263 6.43858 47.9263 6.99158C47.9263 7.54457 48.374 7.99223 48.927 7.99223C49.48 7.99223 49.9276 7.54457 49.9276 6.99158C49.9276 6.43858 49.4668 5.99097 48.927 5.99097Z" fill="white"/>
<path d="M51.9157 6.99158C51.9157 6.43858 51.4681 5.99092 50.9151 5.99092C50.3621 5.99092 49.9144 6.43858 49.9144 6.99158C49.9144 7.54457 50.3621 7.99223 50.9151 7.99223C51.4681 7.99223 51.9157 7.54457 51.9157 6.99158Z" fill="white"/>
<path d="M52.9164 7.99223C53.4691 7.99223 53.9171 7.54422 53.9171 6.99158C53.9171 6.43893 53.4691 5.99097 52.9164 5.99097C52.3638 5.99097 51.9157 6.43893 51.9157 6.99158C51.9157 7.54422 52.3638 7.99223 52.9164 7.99223Z" fill="white"/>
<path d="M1.00066 9.98034C1.55365 9.98034 2.00132 9.53267 2.00132 8.97968C2.00132 8.42668 1.55365 7.99219 1.00066 7.99219C0.447663 7.99219 0 8.43985 0 8.97968C0 9.51951 0.447663 9.98034 1.00066 9.98034Z" fill="white"/>
<path d="M6.99143 7.99219C6.43843 7.99219 5.99077 8.43985 5.99077 8.99285C5.99077 9.54584 6.43843 9.9935 6.99143 9.9935C7.54442 9.9935 7.99209 9.54584 7.99209 8.99285C7.99209 8.43985 7.54442 7.99219 6.99143 7.99219Z" fill="white"/>
<path d="M24.9638 9.98032C25.5168 9.98032 25.9645 9.53266 25.9645 8.97966C25.9645 8.42667 25.5168 7.979 24.9638 7.979C24.4108 7.979 23.9632 8.42667 23.9632 8.97966C23.9632 9.53266 24.4108 9.98032 24.9638 9.98032Z" fill="white"/>
<path d="M16.9717 11.9816C17.5247 11.9816 17.9724 11.5339 17.9724 10.9809C17.9724 10.4279 17.5247 9.98027 16.9717 9.98027C16.4187 9.98027 15.971 10.4279 15.971 10.9809C15.971 11.5339 16.4187 11.9816 16.9717 11.9816Z" fill="white"/>
<path d="M20.9611 9.98027C20.4081 9.98027 19.9605 10.4279 19.9605 10.9809C19.9605 11.5339 20.4081 11.9816 20.9611 11.9816C21.5141 11.9816 21.9618 11.5339 21.9618 10.9809C21.9618 10.4279 21.5141 9.98027 20.9611 9.98027Z" fill="white"/>
<path d="M22.9625 9.98027C22.4095 9.98027 21.9618 10.4279 21.9618 10.9809C21.9618 11.5339 22.4095 11.9816 22.9625 11.9816C23.5155 11.9816 23.9631 11.5339 23.9631 10.9809C23.9631 10.4279 23.5155 9.98027 22.9625 9.98027Z" fill="white"/>
<path d="M29.9539 10.9809C29.9539 10.4279 29.5062 9.98027 28.9532 9.98027C28.4002 9.98027 27.9526 10.4279 27.9526 10.9809C27.9526 11.5339 28.4002 11.9816 28.9532 11.9816C29.5062 11.9816 29.9539 11.5339 29.9539 10.9809Z" fill="white"/>
<path d="M2.98883 13.9832C3.54183 13.9832 3.98949 13.5355 3.98949 12.9825C3.98949 12.4295 3.54183 11.9818 2.98883 11.9818C2.43584 11.9818 2.00134 12.4295 2.00134 12.9825C2.00134 13.5355 2.44901 13.9832 2.98883 13.9832Z" fill="white"/>
<path d="M12.9822 13.9832C13.5352 13.9832 13.9829 13.5355 13.9829 12.9825C13.9829 12.4295 13.5352 11.9818 12.9822 11.9818C12.4292 11.9818 11.9815 12.4295 11.9815 12.9825C11.9815 13.5355 12.4292 13.9832 12.9822 13.9832Z" fill="white"/>
<path d="M18.973 11.9818C18.42 11.9818 17.9724 12.4295 17.9724 12.9825C17.9724 13.5355 18.42 13.9832 18.973 13.9832C19.526 13.9832 19.9737 13.5355 19.9737 12.9825C19.9737 12.4295 19.526 11.9818 18.973 11.9818Z" fill="white"/>
<path d="M24.9638 13.9832C25.5168 13.9832 25.9645 13.5355 25.9645 12.9825C25.9645 12.4295 25.5168 11.9818 24.9638 11.9818C24.4108 11.9818 23.9632 12.4295 23.9632 12.9825C23.9632 13.5355 24.4108 13.9832 24.9638 13.9832Z" fill="white"/>
<path d="M27.9526 12.9825C27.9526 13.5355 28.4002 13.9832 28.9532 13.9832C29.5062 13.9832 29.9539 13.5355 29.9539 12.9825C29.9539 12.4295 29.5062 11.9816 28.9532 11.9816C28.4002 11.9816 27.9526 12.4295 27.9526 12.9825Z" fill="white"/>
<path d="M8.97959 15.9712C9.53259 15.9712 9.98025 15.5236 9.98025 14.9706C9.98025 14.4176 9.53259 13.9699 8.97959 13.9699C8.42659 13.9699 7.97893 14.4176 7.97893 14.9706C7.9921 15.5236 8.43976 15.9712 8.97959 15.9712Z" fill="white"/>
<path d="M21.9618 14.9706C21.9618 14.4176 21.5141 13.9699 20.9611 13.9699C20.4081 13.9699 19.9605 14.4176 19.9605 14.9706C19.9605 15.5236 20.4081 15.9712 20.9611 15.9712C21.5141 15.9712 21.9618 15.5236 21.9618 14.9706Z" fill="white"/>
<path d="M23.9632 14.9706C23.9632 15.5236 24.4108 15.9712 24.9638 15.9712C25.5168 15.9712 25.9645 15.5236 25.9645 14.9706C25.9645 14.4176 25.5168 13.9699 24.9638 13.9699C24.4108 13.9831 23.9632 14.4308 23.9632 14.9706Z" fill="white"/>
<path d="M31.9421 14.9706C31.9421 14.4176 31.4944 13.9699 30.9414 13.9699C30.3884 13.9699 29.9407 14.4176 29.9407 14.9706C29.9407 15.5236 30.3884 15.9712 30.9414 15.9712C31.5076 15.9712 31.9421 15.5236 31.9421 14.9706Z" fill="white"/>
<path d="M33.9434 8.97966C33.9434 8.42667 33.4957 7.979 32.9427 7.979C32.3898 7.979 31.9421 8.42667 31.9421 8.97966C31.9421 9.53266 32.3898 9.98032 32.9427 9.98032C33.4957 9.98032 33.9434 9.53266 33.9434 8.97966Z" fill="white"/>
<path d="M43.9237 8.97966C43.9237 8.42667 43.476 7.979 42.923 7.979C42.37 7.979 41.9224 8.42667 41.9224 8.97966C41.9224 9.53266 42.37 9.98032 42.923 9.98032C43.476 9.98032 43.9237 9.53266 43.9237 8.97966Z" fill="white"/>
<path d="M44.9243 9.98032C45.4773 9.98032 45.9249 9.53266 45.9249 8.97966C45.9249 8.42667 45.4773 7.979 44.9243 7.979C44.3713 7.979 43.9237 8.42667 43.9237 8.97966C43.9237 9.53266 44.3713 9.98032 44.9243 9.98032Z" fill="white"/>
<path d="M46.9256 9.98032C47.4786 9.98032 47.9263 9.53266 47.9263 8.97966C47.9263 8.42667 47.4786 7.979 46.9256 7.979C46.3726 7.979 45.9249 8.42667 45.9249 8.97966C45.9249 9.53266 46.3726 9.98032 46.9256 9.98032Z" fill="white"/>
<path d="M51.9157 8.97966C51.9157 8.42667 51.4681 7.979 50.9151 7.979C50.3621 7.979 49.9144 8.42667 49.9144 8.97966C49.9144 9.53266 50.3621 9.98032 50.9151 9.98032C51.4681 9.98032 51.9157 9.53266 51.9157 8.97966Z" fill="white"/>
<path d="M52.9164 9.98032C53.4691 9.98032 53.9171 9.53231 53.9171 8.97966C53.9171 8.42701 53.4691 7.979 52.9164 7.979C52.3638 7.979 51.9157 8.42701 51.9157 8.97966C51.9157 9.53231 52.3638 9.98032 52.9164 9.98032Z" fill="white"/>
<path d="M53.9171 8.97966C53.9171 9.53266 54.3648 9.98032 54.9177 9.98032C55.4707 9.98032 55.9184 9.53266 55.9184 8.97966C55.9184 8.42667 55.4707 7.979 54.9177 7.979C54.3648 7.979 53.9171 8.43983 53.9171 8.97966Z" fill="white"/>
<path d="M31.9421 10.9809C31.9421 11.5339 32.3898 11.9816 32.9427 11.9816C33.4957 11.9816 33.9434 11.5339 33.9434 10.9809C33.9434 10.4279 33.4957 9.98032 32.9427 9.98032C32.3898 9.98032 31.9421 10.4279 31.9421 10.9809Z" fill="white"/>
<path d="M36.9454 11.9816C37.4984 11.9816 37.946 11.5339 37.946 10.9809C37.946 10.4279 37.4984 9.98027 36.9454 9.98027C36.3924 9.98027 35.9447 10.4279 35.9447 10.9809C35.9447 11.5339 36.3924 11.9816 36.9454 11.9816Z" fill="white"/>
<path d="M38.9335 11.9816C39.4865 11.9816 39.9342 11.5339 39.9342 10.9809C39.9342 10.4279 39.4865 9.98027 38.9335 9.98027C38.3805 9.98027 37.9329 10.4279 37.9329 10.9809C37.9329 11.5339 38.3805 11.9816 38.9335 11.9816Z" fill="white"/>
<path d="M43.9237 10.9809C43.9237 10.4279 43.476 9.98032 42.923 9.98032C42.37 9.98032 41.9224 10.4279 41.9224 10.9809C41.9224 11.5339 42.37 11.9816 42.923 11.9816C43.476 11.9816 43.9237 11.5339 43.9237 10.9809Z" fill="white"/>
<path d="M47.9263 10.9809C47.9263 10.4279 47.4786 9.98032 46.9256 9.98032C46.3726 9.98032 45.925 10.4279 45.925 10.9809C45.925 11.5339 46.3726 11.9816 46.9256 11.9816C47.4786 11.9816 47.9263 11.5339 47.9263 10.9809Z" fill="white"/>
<path d="M48.927 11.9816C49.48 11.9816 49.9276 11.5339 49.9276 10.9809C49.9276 10.4279 49.48 9.98027 48.927 9.98027C48.374 9.98027 47.9263 10.4279 47.9263 10.9809C47.9263 11.5339 48.374 11.9816 48.927 11.9816Z" fill="white"/>
<path d="M50.9151 11.9816C51.4681 11.9816 51.9157 11.5339 51.9157 10.9809C51.9157 10.4279 51.4681 9.98032 50.9151 9.98032C50.3621 9.98032 49.9144 10.4279 49.9144 10.9809C49.9144 11.5339 50.3621 11.9816 50.9151 11.9816Z" fill="white"/>
<path d="M54.9177 9.98032C54.3648 9.98032 53.9171 10.4279 53.9171 10.9809C53.9171 11.5339 54.3648 11.9816 54.9177 11.9816C55.4707 11.9816 55.9184 11.5339 55.9184 10.9809C55.9052 10.4279 55.4576 9.98032 54.9177 9.98032Z" fill="white"/>
<path d="M42.9361 11.9818C42.3831 11.9818 41.9355 12.4295 41.9355 12.9825C41.9355 13.5355 42.3831 13.9832 42.9361 13.9832C43.4891 13.9832 43.9368 13.5355 43.9368 12.9825C43.9236 12.4295 43.476 11.9818 42.9361 11.9818Z" fill="white"/>
<path d="M44.9243 11.9818C44.3713 11.9818 43.9236 12.4295 43.9236 12.9825C43.9236 13.5355 44.3713 13.9832 44.9243 13.9832C45.4773 13.9832 45.9249 13.5355 45.9249 12.9825C45.9249 12.4295 45.4773 11.9818 44.9243 11.9818Z" fill="white"/>
<path d="M47.9263 12.9825C47.9263 12.4295 47.4786 11.9816 46.9256 11.9816C46.3726 11.9816 45.9249 12.4295 45.9249 12.9825C45.9249 13.5355 46.3726 13.9832 46.9256 13.9832C47.4786 13.9832 47.9263 13.5355 47.9263 12.9825Z" fill="white"/>
<path d="M49.9145 12.9825C49.9145 12.4295 49.4668 11.9818 48.9138 11.9818C48.3608 11.9818 47.9131 12.4295 47.9131 12.9825C47.9131 13.5355 48.3608 13.9832 48.9138 13.9832C49.4668 13.9832 49.9145 13.5355 49.9145 12.9825Z" fill="white"/>
<path d="M50.9151 11.9816C50.3621 11.9816 49.9145 12.4295 49.9145 12.9825C49.9145 13.5355 50.3621 13.9832 50.9151 13.9832C51.4681 13.9832 51.9157 13.5355 51.9157 12.9825C51.9157 12.4295 51.4681 11.9816 50.9151 11.9816Z" fill="white"/>
<path d="M52.9164 11.9818C52.3634 11.9818 51.9157 12.4295 51.9157 12.9825C51.9157 13.5355 52.3634 13.9832 52.9164 13.9832C53.4694 13.9832 53.9171 13.5355 53.9171 12.9825C53.9171 12.4295 53.4694 11.9818 52.9164 11.9818Z" fill="white"/>
<path d="M54.9177 11.9816C54.3648 11.9816 53.9171 12.4295 53.9171 12.9825C53.9171 13.5355 54.3648 13.9832 54.9177 13.9832C55.4707 13.9832 55.9184 13.5355 55.9184 12.9825C55.9052 12.4295 55.4576 11.9816 54.9177 11.9816Z" fill="white"/>
<path d="M36.9454 15.9712C37.4984 15.9712 37.946 15.5236 37.946 14.9706C37.946 14.4176 37.4984 13.9699 36.9454 13.9699C36.3924 13.9699 35.9447 14.4176 35.9447 14.9706C35.9447 15.5236 36.3924 15.9712 36.9454 15.9712Z" fill="white"/>
<path d="M41.9355 14.9706C41.9355 14.4176 41.4879 13.9699 40.9349 13.9699C40.3819 13.9699 39.9342 14.4176 39.9342 14.9706C39.9342 15.5236 40.3819 15.9712 40.9349 15.9712C41.4879 15.9712 41.9355 15.5236 41.9355 14.9706Z" fill="white"/>
<path d="M47.9263 14.9706C47.9263 14.4176 47.4786 13.9699 46.9256 13.9699C46.3726 13.9699 45.925 14.4176 45.925 14.9706C45.925 15.5236 46.3726 15.9712 46.9256 15.9712C47.4786 15.9712 47.9263 15.5236 47.9263 14.9706Z" fill="white"/>
<path d="M49.9145 14.9706C49.9145 14.4176 49.4668 13.9699 48.9138 13.9699C48.3608 13.9699 47.9131 14.4176 47.9131 14.9706C47.9131 15.5236 48.3608 15.9712 48.9138 15.9712C49.4668 15.9712 49.9145 15.5236 49.9145 14.9706Z" fill="white"/>
<path d="M52.9164 13.9832C52.3634 13.9832 51.9157 14.4308 51.9157 14.9838C51.9157 15.5368 52.3634 15.9844 52.9164 15.9844C53.4694 15.9844 53.9171 15.5368 53.9171 14.9838C53.9171 14.4308 53.4694 13.9832 52.9164 13.9832Z" fill="white"/>
<path d="M1.00066 17.9722C1.55365 17.9722 2.00132 17.5246 2.00132 16.9716C2.00132 16.4186 1.55365 15.9709 1.00066 15.9709C0.447663 15.9709 0 16.4186 0 16.9716C0 17.5246 0.447663 17.9722 1.00066 17.9722Z" fill="white"/>
<path d="M20.9611 17.9722C21.5138 17.9722 21.9618 17.5242 21.9618 16.9716C21.9618 16.4189 21.5138 15.9712 20.9611 15.9712C20.4085 15.9712 19.9605 16.4189 19.9605 16.9716C19.9605 17.5242 20.4085 17.9722 20.9611 17.9722Z" fill="white"/>
<path d="M29.9539 16.9716C29.9539 17.5246 30.4016 17.9722 30.9546 17.9722C31.5076 17.9722 31.9552 17.5246 31.9552 16.9716C31.9552 16.4186 31.5076 15.9709 30.9546 15.9709C30.4016 15.9709 29.9539 16.4186 29.9539 16.9716Z" fill="white"/>
<path d="M10.9809 17.9722C10.4279 17.9722 9.98027 18.4198 9.98027 18.9728C9.98027 19.5258 10.4279 19.9735 10.9809 19.9735C11.5339 19.9735 11.9816 19.5258 11.9816 18.9728C11.9816 18.4198 11.5339 17.9722 10.9809 17.9722Z" fill="white"/>
<path d="M23.9631 18.9728C23.9631 18.4198 23.5155 17.9722 22.9625 17.9722C22.4095 17.9722 21.9618 18.4198 21.9618 18.9728C21.9618 19.5258 22.4095 19.9735 22.9625 19.9735C23.5155 19.9735 23.9631 19.5258 23.9631 18.9728Z" fill="white"/>
<path d="M24.9638 19.9735C25.5168 19.9735 25.9645 19.5258 25.9645 18.9728C25.9645 18.4198 25.5168 17.9722 24.9638 17.9722C24.4108 17.9722 23.9631 18.4198 23.9631 18.9728C23.9631 19.5258 24.4108 19.9735 24.9638 19.9735Z" fill="white"/>
<path d="M29.9539 18.9728C29.9539 18.4198 29.5062 17.9722 28.9532 17.9722C28.4002 17.9722 27.9526 18.4198 27.9526 18.9728C27.9526 19.5258 28.4002 19.9735 28.9532 19.9735C29.5062 19.9735 29.9539 19.5258 29.9539 18.9728Z" fill="white"/>
<path d="M14.9704 19.9734C14.4174 19.9734 13.9697 20.4211 13.9697 20.9741C13.9697 21.5271 14.4174 21.9748 14.9704 21.9748C15.5234 21.9748 15.971 21.5271 15.971 20.9741C15.971 20.4211 15.5234 19.9734 14.9704 19.9734Z" fill="white"/>
<path d="M18.973 19.9734C18.42 19.9734 17.9724 20.4211 17.9724 20.9741C17.9724 21.5271 18.42 21.9748 18.973 21.9748C19.526 21.9748 19.9737 21.5271 19.9737 20.9741C19.9737 20.4211 19.526 19.9734 18.973 19.9734Z" fill="white"/>
<path d="M21.9618 20.9609C21.9618 21.5139 22.4095 21.9616 22.9625 21.9616C23.5155 21.9616 23.9631 21.5139 23.9631 20.9609C23.9631 20.4079 23.5155 19.9603 22.9625 19.9603C22.4095 19.9734 21.9618 20.4211 21.9618 20.9609Z" fill="white"/>
<path d="M26.952 21.9616C27.505 21.9616 27.9526 21.5139 27.9526 20.9609C27.9526 20.4079 27.505 19.9603 26.952 19.9603C26.399 19.9603 25.9513 20.4079 25.9513 20.9609C25.9645 21.5139 26.399 21.9616 26.952 21.9616Z" fill="white"/>
<path d="M28.9532 21.9616C29.5062 21.9616 29.9539 21.5139 29.9539 20.9609C29.9539 20.4079 29.5062 19.9603 28.9532 19.9603C28.4002 19.9603 27.9526 20.4079 27.9526 20.9609C27.9526 21.5139 28.4002 21.9616 28.9532 21.9616Z" fill="white"/>
<path d="M30.9546 21.9616C31.5076 21.9616 31.9552 21.5139 31.9552 20.9609C31.9552 20.4079 31.5076 19.9603 30.9546 19.9603C30.4016 19.9603 29.9539 20.4079 29.9539 20.9609C29.9539 21.5139 30.4016 21.9616 30.9546 21.9616Z" fill="white"/>
<path d="M12.9822 21.9618C12.4292 21.9618 11.9815 22.4095 11.9815 22.9625C11.9815 23.5155 12.4292 23.9631 12.9822 23.9631C13.5352 23.9631 13.9829 23.5155 13.9829 22.9625C13.9829 22.4095 13.5352 21.9618 12.9822 21.9618Z" fill="white"/>
<path d="M20.9611 23.9631C21.5138 23.9631 21.9618 23.5151 21.9618 22.9625C21.9618 22.4098 21.5138 21.9618 20.9611 21.9618C20.4085 21.9618 19.9605 22.4098 19.9605 22.9625C19.9605 23.5151 20.4085 23.9631 20.9611 23.9631Z" fill="white"/>
<path d="M24.9638 21.9618C24.4108 21.9618 23.9632 22.4095 23.9632 22.9625C23.9632 23.5155 24.4108 23.9631 24.9638 23.9631C25.5168 23.9631 25.9645 23.5155 25.9645 22.9625C25.9645 22.4095 25.5168 21.9618 24.9638 21.9618Z" fill="white"/>
<path d="M34.9441 17.9722C35.4967 17.9722 35.9447 17.5242 35.9447 16.9716C35.9447 16.4189 35.4967 15.9709 34.9441 15.9709C34.3914 15.9709 33.9434 16.4189 33.9434 16.9716C33.9434 17.5242 34.3914 17.9722 34.9441 17.9722Z" fill="white"/>
<path d="M38.9335 15.9709C38.3805 15.9709 37.9329 16.4186 37.9329 16.9716C37.9329 17.5246 38.3805 17.9722 38.9335 17.9722C39.4865 17.9722 39.9342 17.5246 39.9342 16.9716C39.9342 16.4186 39.4865 15.9709 38.9335 15.9709Z" fill="white"/>
<path d="M40.9349 15.9712C40.3819 15.9712 39.9342 16.4186 39.9342 16.9716C39.9342 17.5246 40.3819 17.9722 40.9349 17.9722C41.4879 17.9722 41.9355 17.5246 41.9355 16.9716C41.9355 16.4186 41.4879 15.9712 40.9349 15.9712Z" fill="white"/>
<path d="M42.9361 15.9709C42.3831 15.9709 41.9355 16.4186 41.9355 16.9716C41.9355 17.5246 42.3831 17.9722 42.9361 17.9722C43.4891 17.9722 43.9368 17.5246 43.9368 16.9716C43.9368 16.4186 43.476 15.9709 42.9361 15.9709Z" fill="white"/>
<path d="M45.9249 16.9716C45.9249 16.4186 45.4773 15.9709 44.9243 15.9709C44.3713 15.9709 43.9236 16.4186 43.9236 16.9716C43.9236 17.5246 44.3713 17.9722 44.9243 17.9722C45.4773 17.9722 45.9249 17.5246 45.9249 16.9716Z" fill="white"/>
<path d="M46.9256 17.9722C47.4786 17.9722 47.9263 17.5246 47.9263 16.9716C47.9263 16.4186 47.4786 15.9712 46.9256 15.9712C46.3726 15.9712 45.9249 16.4186 45.9249 16.9716C45.9249 17.5246 46.3726 17.9722 46.9256 17.9722Z" fill="white"/>
<path d="M48.927 15.9709C48.374 15.9709 47.9263 16.4186 47.9263 16.9716C47.9263 17.5246 48.374 17.9722 48.927 17.9722C49.48 17.9722 49.9276 17.5246 49.9276 16.9716C49.9276 16.4186 49.4668 15.9709 48.927 15.9709Z" fill="white"/>
<path d="M51.9157 16.9716C51.9157 16.4186 51.4681 15.9709 50.9151 15.9709C50.3621 15.9709 49.9144 16.4186 49.9144 16.9716C49.9144 17.5246 50.3621 17.9722 50.9151 17.9722C51.4681 17.9722 51.9157 17.5246 51.9157 16.9716Z" fill="white"/>
<path d="M52.9164 17.9722C53.4691 17.9722 53.9171 17.5242 53.9171 16.9716C53.9171 16.4189 53.4691 15.9709 52.9164 15.9709C52.3638 15.9709 51.9157 16.4189 51.9157 16.9716C51.9157 17.5242 52.3638 17.9722 52.9164 17.9722Z" fill="white"/>
<path d="M32.9427 17.9722C32.3898 17.9722 31.9421 18.4198 31.9421 18.9728C31.9421 19.5258 32.3898 19.9735 32.9427 19.9735C33.4957 19.9735 33.9434 19.5258 33.9434 18.9728C33.9434 18.4198 33.4957 17.9722 32.9427 17.9722Z" fill="white"/>
<path d="M36.9454 17.9722C36.3924 17.9722 35.9447 18.4198 35.9447 18.9728C35.9447 19.5258 36.3924 19.9735 36.9454 19.9735C37.4984 19.9735 37.946 19.5258 37.946 18.9728C37.9328 18.4198 37.4984 17.9722 36.9454 17.9722Z" fill="white"/>
<path d="M45.9249 18.9728C45.9249 18.4198 45.4773 17.9722 44.9243 17.9722C44.3713 17.9722 43.9236 18.4198 43.9236 18.9728C43.9236 19.5258 44.3713 19.9735 44.9243 19.9735C45.4773 19.9735 45.9249 19.5258 45.9249 18.9728Z" fill="white"/>
<path d="M45.9249 18.9728C45.9249 19.5258 46.3726 19.9735 46.9256 19.9735C47.4786 19.9735 47.9263 19.5258 47.9263 18.9728C47.9263 18.4198 47.4786 17.9722 46.9256 17.9722C46.3726 17.9722 45.9249 18.4198 45.9249 18.9728Z" fill="white"/>
<path d="M51.9157 18.9728C51.9157 18.4198 51.4681 17.9722 50.9151 17.9722C50.3621 17.9722 49.9144 18.4198 49.9144 18.9728C49.9144 19.5258 50.3621 19.9735 50.9151 19.9735C51.4681 19.9735 51.9157 19.5258 51.9157 18.9728Z" fill="white"/>
<path d="M51.9157 18.9728C51.9157 19.5258 52.3634 19.9735 52.9164 19.9735C53.4694 19.9735 53.9171 19.5258 53.9171 18.9728C53.9171 18.4198 53.4694 17.9722 52.9164 17.9722C52.3634 17.9722 51.9157 18.4198 51.9157 18.9728Z" fill="white"/>
<path d="M53.9171 18.9728C53.9171 19.5258 54.3648 19.9735 54.9177 19.9735C55.4707 19.9735 55.9184 19.5258 55.9184 18.9728C55.9184 18.4198 55.4707 17.9722 54.9177 17.9722C54.3648 17.9722 53.9171 18.4198 53.9171 18.9728Z" fill="white"/>
<path d="M34.9441 19.9734C34.3911 19.9734 33.9434 20.4211 33.9434 20.9741C33.9434 21.5271 34.3911 21.9748 34.9441 21.9748C35.4971 21.9748 35.9447 21.5271 35.9447 20.9741C35.9447 20.4211 35.4971 19.9734 34.9441 19.9734Z" fill="white"/>
<path d="M41.9355 20.9609C41.9355 20.4079 41.4879 19.9603 40.9349 19.9603C40.3819 19.9603 39.9342 20.4079 39.9342 20.9609C39.9342 21.5139 40.3819 21.9616 40.9349 21.9616C41.4879 21.9616 41.9355 21.5139 41.9355 20.9609Z" fill="white"/>
<path d="M45.9249 20.9609C45.9249 20.4079 45.4773 19.9603 44.9243 19.9603C44.3713 19.9603 43.9236 20.4079 43.9236 20.9609C43.9236 21.5139 44.3713 21.9616 44.9243 21.9616C45.4773 21.9616 45.9249 21.5139 45.9249 20.9609Z" fill="white"/>
<path d="M49.9145 20.9609C49.9145 20.4079 49.4668 19.9603 48.9138 19.9603C48.3608 19.9603 47.9131 20.4079 47.9131 20.9609C47.9131 21.5139 48.3608 21.9616 48.9138 21.9616C49.4668 21.9616 49.9145 21.5139 49.9145 20.9609Z" fill="white"/>
<path d="M50.9151 21.9616C51.4681 21.9616 51.9157 21.5139 51.9157 20.9609C51.9157 20.4079 51.4681 19.9603 50.9151 19.9603C50.3621 19.9603 49.9145 20.4079 49.9145 20.9609C49.9145 21.5139 50.3621 21.9616 50.9151 21.9616Z" fill="white"/>
<path d="M54.9177 19.9735C54.3648 19.9735 53.9171 20.4211 53.9171 20.9741C53.9171 21.5271 54.3648 21.9748 54.9177 21.9748C55.4707 21.9748 55.9184 21.5271 55.9184 20.9741C55.9052 20.4211 55.4576 19.9735 54.9177 19.9735Z" fill="white"/>
<path d="M40.9349 21.9616C40.3819 21.9616 39.9342 22.4095 39.9342 22.9625C39.9342 23.5155 40.3819 23.9631 40.9349 23.9631C41.4879 23.9631 41.9355 23.5155 41.9355 22.9625C41.9355 22.4095 41.4879 21.9616 40.9349 21.9616Z" fill="white"/>
<path d="M42.9361 21.9618C42.3831 21.9618 41.9355 22.4095 41.9355 22.9625C41.9355 23.5155 42.3831 23.9631 42.9361 23.9631C43.4891 23.9631 43.9368 23.5155 43.9368 22.9625C43.9236 22.4095 43.476 21.9618 42.9361 21.9618Z" fill="white"/>
<path d="M45.9249 22.9625C45.9249 22.4095 45.4773 21.9616 44.9243 21.9616C44.3713 21.9616 43.9236 22.4095 43.9236 22.9625C43.9236 23.5155 44.3713 23.9631 44.9243 23.9631C45.4773 23.9631 45.9249 23.5155 45.9249 22.9625Z" fill="white"/>
<path d="M46.9256 21.9618C46.3726 21.9618 45.9249 22.4095 45.9249 22.9625C45.9249 23.5155 46.3726 23.9631 46.9256 23.9631C47.4786 23.9631 47.9263 23.5155 47.9263 22.9625C47.9263 22.4095 47.4786 21.9618 46.9256 21.9618Z" fill="white"/>
<path d="M49.9145 22.9625C49.9145 22.4095 49.4668 21.9616 48.9138 21.9616C48.3608 21.9616 47.9131 22.4095 47.9131 22.9625C47.9131 23.5155 48.3608 23.9631 48.9138 23.9631C49.4668 23.9631 49.9145 23.5155 49.9145 22.9625Z" fill="white"/>
<path d="M50.9151 21.9616C50.3621 21.9616 49.9145 22.4095 49.9145 22.9625C49.9145 23.5155 50.3621 23.9631 50.9151 23.9631C51.4681 23.9631 51.9157 23.5155 51.9157 22.9625C51.9157 22.4095 51.4681 21.9616 50.9151 21.9616Z" fill="white"/>
<path d="M52.9164 23.9631C53.4691 23.9631 53.9171 23.5151 53.9171 22.9625C53.9171 22.4098 53.4691 21.9618 52.9164 21.9618C52.3638 21.9618 51.9157 22.4098 51.9157 22.9625C51.9157 23.5151 52.3638 23.9631 52.9164 23.9631Z" fill="white"/>
<path d="M53.9171 22.9625C53.9171 23.5155 54.3648 23.9631 54.9177 23.9631C55.4707 23.9631 55.9184 23.5155 55.9184 22.9625C55.9184 22.4095 55.4707 21.9618 54.9177 21.9618C54.3648 21.9618 53.9171 22.4095 53.9171 22.9625Z" fill="white"/>
<path d="M55.9053 22.9625C55.9053 23.5155 56.3529 23.9631 56.9059 23.9631C57.4589 23.9631 57.9066 23.5155 57.9066 22.9625C57.9066 22.4095 57.4589 21.9618 56.9059 21.9618C56.3529 21.9618 55.9053 22.4095 55.9053 22.9625Z" fill="white"/>
<path d="M4.99016 23.9631C4.43717 23.9631 3.9895 24.4107 3.9895 24.9637C3.9895 25.5167 4.43717 25.9644 4.99016 25.9644C5.54316 25.9644 5.99082 25.5167 5.99082 24.9637C5.99082 24.4107 5.54316 23.9631 4.99016 23.9631Z" fill="white"/>
<path d="M26.952 25.9644C27.505 25.9644 27.9526 25.5167 27.9526 24.9637C27.9526 24.4107 27.505 23.9631 26.952 23.9631C26.399 23.9631 25.9513 24.4107 25.9513 24.9637C25.9513 25.5167 26.399 25.9644 26.952 25.9644Z" fill="white"/>
<path d="M8.97959 25.9644C8.42659 25.9644 7.97893 26.412 7.97893 26.965C7.97893 27.518 8.42659 27.9657 8.97959 27.9657C9.53259 27.9657 9.98025 27.518 9.98025 26.965C9.98025 26.3989 9.53259 25.9644 8.97959 25.9644Z" fill="white"/>
<path d="M16.9717 25.9644C16.4187 25.9644 15.971 26.412 15.971 26.965C15.971 27.518 16.4187 27.9657 16.9717 27.9657C17.5247 27.9657 17.9724 27.518 17.9724 26.965C17.9724 26.3989 17.5247 25.9644 16.9717 25.9644Z" fill="white"/>
<path d="M24.9638 25.9644C24.4108 25.9644 23.9632 26.412 23.9632 26.965C23.9632 27.518 24.4108 27.9657 24.9638 27.9657C25.5168 27.9657 25.9645 27.518 25.9645 26.965C25.9645 26.3989 25.5168 25.9644 24.9638 25.9644Z" fill="white"/>
<path d="M2.98882 29.954C2.43582 29.954 1.98816 30.4017 1.98816 30.9547C1.98816 31.5077 2.43582 31.9553 2.98882 31.9553C3.54181 31.9553 3.98948 31.5077 3.98948 30.9547C3.98948 30.4017 3.54181 29.954 2.98882 29.954Z" fill="white"/>
<path d="M8.97959 29.954C8.42659 29.954 7.97893 30.4017 7.97893 30.9547C7.97893 31.5077 8.42659 31.9553 8.97959 31.9553C9.53259 31.9553 9.98025 31.5077 9.98025 30.9547C9.98025 30.4017 9.53259 29.954 8.97959 29.954Z" fill="white"/>
<path d="M24.9638 29.954C24.4108 29.954 23.9632 30.4017 23.9632 30.9547C23.9632 31.5077 24.4108 31.9553 24.9638 31.9553C25.5168 31.9553 25.9645 31.5077 25.9645 30.9547C25.9645 30.4017 25.5168 29.954 24.9638 29.954Z" fill="white"/>
<path d="M28.9532 29.954C28.4002 29.954 27.9526 30.4017 27.9526 30.9547C27.9526 31.5077 28.4002 31.9553 28.9532 31.9553C29.5062 31.9553 29.9539 31.5077 29.9539 30.9547C29.9539 30.4017 29.5062 29.954 28.9532 29.954Z" fill="white"/>
<path d="M36.9454 25.9644C37.4984 25.9644 37.946 25.5167 37.946 24.9637C37.946 24.4107 37.4984 23.9631 36.9454 23.9631C36.3924 23.9631 35.9447 24.4107 35.9447 24.9637C35.9447 25.5167 36.3924 25.9644 36.9454 25.9644Z" fill="white"/>
<path d="M39.9342 24.9637C39.9342 25.5167 40.3819 25.9644 40.9349 25.9644C41.4879 25.9644 41.9355 25.5167 41.9355 24.9637C41.9355 24.4107 41.4879 23.9631 40.9349 23.9631C40.3819 23.9631 39.9342 24.4107 39.9342 24.9637Z" fill="white"/>
<path d="M45.9249 24.9637C45.9249 24.4107 45.4773 23.9631 44.9243 23.9631C44.3713 23.9631 43.9236 24.4107 43.9236 24.9637C43.9236 25.5167 44.3713 25.9644 44.9243 25.9644C45.4773 25.9644 45.9249 25.5167 45.9249 24.9637Z" fill="white"/>
<path d="M49.9145 24.9637C49.9145 24.4107 49.4668 23.9631 48.9138 23.9631C48.3608 23.9631 47.9131 24.4107 47.9131 24.9637C47.9131 25.5167 48.3608 25.9644 48.9138 25.9644C49.4668 25.9644 49.9145 25.5167 49.9145 24.9637Z" fill="white"/>
<path d="M52.9164 25.9644C53.4691 25.9644 53.9171 25.5164 53.9171 24.9637C53.9171 24.4111 53.4691 23.9631 52.9164 23.9631C52.3638 23.9631 51.9157 24.4111 51.9157 24.9637C51.9157 25.5164 52.3638 25.9644 52.9164 25.9644Z" fill="white"/>
<path d="M54.9177 23.9631C54.3648 23.9631 53.9171 24.4107 53.9171 24.9637C53.9171 25.5167 54.3648 25.9644 54.9177 25.9644C55.4707 25.9644 55.9184 25.5167 55.9184 24.9637C55.9184 24.4107 55.4576 23.9631 54.9177 23.9631Z" fill="white"/>
<path d="M34.9441 25.9644C34.3911 25.9644 33.9434 26.412 33.9434 26.965C33.9434 27.518 34.3911 27.9657 34.9441 27.9657C35.4971 27.9657 35.9447 27.518 35.9447 26.965C35.9447 26.3989 35.4971 25.9644 34.9441 25.9644Z" fill="white"/>
<path d="M42.9361 25.9644C42.3831 25.9644 41.9355 26.412 41.9355 26.965C41.9355 27.518 42.3831 27.9657 42.9361 27.9657C43.4891 27.9657 43.9368 27.518 43.9368 26.965C43.9236 26.3989 43.476 25.9644 42.9361 25.9644Z" fill="white"/>
<path d="M44.9243 25.9644C44.3713 25.9644 43.9236 26.412 43.9236 26.965C43.9236 27.518 44.3713 27.9657 44.9243 27.9657C45.4773 27.9657 45.9249 27.518 45.9249 26.965C45.9249 26.3989 45.4773 25.9644 44.9243 25.9644Z" fill="white"/>
<path d="M47.9263 26.9518C47.9263 26.3988 47.4786 25.9512 46.9256 25.9512C46.3726 25.9512 45.925 26.3988 45.925 26.9518C45.925 27.5048 46.3726 27.9525 46.9256 27.9525C47.4786 27.9525 47.9263 27.5048 47.9263 26.9518Z" fill="white"/>
<path d="M49.9145 26.9518C49.9145 26.3988 49.4668 25.9512 48.9138 25.9512C48.3608 25.9512 47.9131 26.3988 47.9131 26.9518C47.9131 27.5048 48.3608 27.9525 48.9138 27.9525C49.4668 27.9525 49.9145 27.5048 49.9145 26.9518Z" fill="white"/>
<path d="M51.9157 26.9518C51.9157 26.3988 51.4681 25.9512 50.9151 25.9512C50.3621 25.9512 49.9145 26.3988 49.9145 26.9518C49.9145 27.5048 50.3621 27.9525 50.9151 27.9525C51.4681 27.9525 51.9157 27.5048 51.9157 26.9518Z" fill="white"/>
<path d="M52.9164 25.9644C52.3634 25.9644 51.9157 26.412 51.9157 26.965C51.9157 27.518 52.3634 27.9657 52.9164 27.9657C53.4694 27.9657 53.9171 27.518 53.9171 26.965C53.9171 26.3989 53.4694 25.9644 52.9164 25.9644Z" fill="white"/>
<path d="M54.9177 25.9644C54.3648 25.9644 53.9171 26.412 53.9171 26.965C53.9171 27.518 54.3648 27.9657 54.9177 27.9657C55.4707 27.9657 55.9184 27.518 55.9184 26.965C55.9052 26.3989 55.4576 25.9644 54.9177 25.9644Z" fill="white"/>
<path d="M32.9427 27.9524C32.3898 27.9524 31.9421 28.4001 31.9421 28.9531C31.9421 29.5061 32.3898 29.9538 32.9427 29.9538C33.4957 29.9538 33.9434 29.5061 33.9434 28.9531C33.9434 28.4001 33.4957 27.9524 32.9427 27.9524Z" fill="white"/>
<path d="M37.9328 28.9531C37.9328 28.4001 37.4852 27.9524 36.9322 27.9524C36.3792 27.9524 35.9315 28.4001 35.9315 28.9531C35.9315 29.5061 36.3792 29.9538 36.9322 29.9538C37.4983 29.9538 37.9328 29.5061 37.9328 28.9531Z" fill="white"/>
<path d="M41.9355 28.9531C41.9355 28.4001 41.4879 27.9524 40.9349 27.9524C40.3819 27.9524 39.9342 28.4001 39.9342 28.9531C39.9342 29.5061 40.3819 29.9538 40.9349 29.9538C41.4879 29.9538 41.9355 29.5061 41.9355 28.9531Z" fill="white"/>
<path d="M47.9263 28.9531C47.9263 28.4001 47.4786 27.9525 46.9256 27.9525C46.3726 27.9525 45.925 28.4001 45.925 28.9531C45.925 29.5061 46.3726 29.9538 46.9256 29.9538C47.4786 29.9538 47.9263 29.5061 47.9263 28.9531Z" fill="white"/>
<path d="M49.9145 28.9531C49.9145 28.4001 49.4668 27.9525 48.9138 27.9525C48.3608 27.9525 47.9131 28.4001 47.9131 28.9531C47.9131 29.5061 48.3608 29.9538 48.9138 29.9538C49.4668 29.9538 49.9145 29.5061 49.9145 28.9531Z" fill="white"/>
<path d="M50.9151 27.9525C50.3621 27.9525 49.9145 28.4001 49.9145 28.9531C49.9145 29.5061 50.3621 29.9538 50.9151 29.9538C51.4681 29.9538 51.9157 29.5061 51.9157 28.9531C51.9157 28.4001 51.4681 27.9525 50.9151 27.9525Z" fill="white"/>
<path d="M34.9441 29.954C34.3911 29.954 33.9434 30.4017 33.9434 30.9547C33.9434 31.5077 34.3911 31.9553 34.9441 31.9553C35.4971 31.9553 35.9447 31.5077 35.9447 30.9547C35.9447 30.4017 35.4971 29.954 34.9441 29.954Z" fill="white"/>
<path d="M37.9328 30.9547C37.9328 30.4017 37.4852 29.9538 36.9322 29.9538C36.3792 29.9538 35.9315 30.4017 35.9315 30.9547C35.9315 31.5077 36.3792 31.9553 36.9322 31.9553C37.4983 31.9422 37.9328 31.5077 37.9328 30.9547Z" fill="white"/>
<path d="M41.9355 30.9547C41.9355 30.4017 41.4879 29.9538 40.9349 29.9538C40.3819 29.9538 39.9342 30.4017 39.9342 30.9547C39.9342 31.5077 40.3819 31.9553 40.9349 31.9553C41.4879 31.9422 41.9355 31.5077 41.9355 30.9547Z" fill="white"/>
<path d="M42.9361 31.9421C43.4891 31.9421 43.9368 31.4945 43.9368 30.9415C43.9368 30.3885 43.4891 29.9408 42.9361 29.9408C42.3831 29.9408 41.9355 30.3885 41.9355 30.9415C41.9355 31.5076 42.3831 31.9421 42.9361 31.9421Z" fill="white"/>
<path d="M44.9243 31.9421C45.4773 31.9421 45.9249 31.4945 45.9249 30.9415C45.9249 30.3885 45.4773 29.9408 44.9243 29.9408C44.3713 29.9408 43.9236 30.3885 43.9236 30.9415C43.9236 31.5076 44.3713 31.9421 44.9243 31.9421Z" fill="white"/>
<path d="M46.9256 31.9421C47.4786 31.9421 47.9263 31.4945 47.9263 30.9415C47.9263 30.3885 47.4786 29.9408 46.9256 29.9408C46.3726 29.9408 45.9249 30.3885 45.9249 30.9415C45.9249 31.5076 46.3726 31.9421 46.9256 31.9421Z" fill="white"/>
<path d="M49.9145 30.9547C49.9145 30.4017 49.4668 29.9538 48.9138 29.9538C48.3608 29.9538 47.9131 30.4017 47.9131 30.9547C47.9131 31.5077 48.3608 31.9553 48.9138 31.9553C49.4668 31.9422 49.9145 31.5077 49.9145 30.9547Z" fill="white"/>
<path d="M50.9151 29.9538C50.3621 29.9538 49.9145 30.4017 49.9145 30.9547C49.9145 31.5077 50.3621 31.9553 50.9151 31.9553C51.4681 31.9553 51.9157 31.5077 51.9157 30.9547C51.9157 30.4017 51.4681 29.9538 50.9151 29.9538Z" fill="white"/>
<path d="M52.9164 29.954C52.3634 29.954 51.9157 30.4017 51.9157 30.9547C51.9157 31.5077 52.3634 31.9553 52.9164 31.9553C53.4694 31.9553 53.9171 31.5077 53.9171 30.9547C53.9171 30.4017 53.4694 29.954 52.9164 29.954Z" fill="white"/>
<path d="M30.9546 33.9434C31.5076 33.9434 31.9552 33.4957 31.9552 32.9427C31.9552 32.3898 31.5076 31.9421 30.9546 31.9421C30.4016 31.9421 29.9539 32.3898 29.9539 32.9427C29.9539 33.4957 30.4016 33.9434 30.9546 33.9434Z" fill="white"/>
<path d="M1.00066 33.9434C0.447663 33.9434 0 34.391 0 34.944C0 35.497 0.447663 35.9447 1.00066 35.9447C1.55365 35.9447 2.00132 35.497 2.00132 34.944C2.00132 34.391 1.55365 33.9434 1.00066 33.9434Z" fill="white"/>
<path d="M12.9822 33.9434C12.4292 33.9434 11.9815 34.391 11.9815 34.944C11.9815 35.497 12.4292 35.9447 12.9822 35.9447C13.5352 35.9447 13.9829 35.497 13.9829 34.944C13.9829 34.391 13.5352 33.9434 12.9822 33.9434Z" fill="white"/>
<path d="M24.9638 33.9434C24.4108 33.9434 23.9632 34.391 23.9632 34.944C23.9632 35.497 24.4108 35.9447 24.9638 35.9447C25.5168 35.9447 25.9645 35.497 25.9645 34.944C25.9645 34.391 25.5168 33.9434 24.9638 33.9434Z" fill="white"/>
<path d="M28.9532 33.9434C28.4002 33.9434 27.9526 34.391 27.9526 34.944C27.9526 35.497 28.4002 35.9447 28.9532 35.9447C29.5062 35.9447 29.9539 35.497 29.9539 34.944C29.9539 34.391 29.5062 33.9434 28.9532 33.9434Z" fill="white"/>
<path d="M19.9737 36.9453C19.9737 36.3923 19.526 35.9446 18.973 35.9446C18.42 35.9446 17.9724 36.3923 17.9724 36.9453C17.9724 37.4983 18.42 37.9459 18.973 37.9459C19.526 37.9328 19.9737 37.4983 19.9737 36.9453Z" fill="white"/>
<path d="M22.9625 35.9446C22.4095 35.9446 21.9618 36.3923 21.9618 36.9453C21.9618 37.4983 22.4095 37.9459 22.9625 37.9459C23.5155 37.9459 23.9631 37.4983 23.9631 36.9453C23.9631 36.3923 23.5155 35.9446 22.9625 35.9446Z" fill="white"/>
<path d="M27.9526 36.9453C27.9526 36.3923 27.505 35.9446 26.952 35.9446C26.399 35.9446 25.9513 36.3923 25.9513 36.9453C25.9513 37.4983 26.399 37.9459 26.952 37.9459C27.505 37.9328 27.9526 37.4983 27.9526 36.9453Z" fill="white"/>
<path d="M17.9724 38.9337C17.9724 39.4867 18.42 39.9343 18.973 39.9343C19.526 39.9343 19.9737 39.4867 19.9737 38.9337C19.9737 38.3807 19.526 37.933 18.973 37.933C18.42 37.933 17.9724 38.3807 17.9724 38.9337Z" fill="white"/>
<path d="M26.952 37.933C26.399 37.933 25.9513 38.3807 25.9513 38.9337C25.9513 39.4867 26.399 39.9343 26.952 39.9343C27.505 39.9343 27.9526 39.4867 27.9526 38.9337C27.9526 38.3807 27.505 37.933 26.952 37.933Z" fill="white"/>
<path d="M31.9421 38.9337C31.9421 38.3807 31.4944 37.933 30.9414 37.933C30.3884 37.933 29.9407 38.3807 29.9407 38.9337C29.9407 39.4867 30.3884 39.9343 30.9414 39.9343C31.5076 39.9343 31.9421 39.4867 31.9421 38.9337Z" fill="white"/>
<path d="M36.9454 31.9421C36.3924 31.9421 35.9447 32.3898 35.9447 32.9427C35.9447 33.4957 36.3924 33.9434 36.9454 33.9434C37.4984 33.9434 37.946 33.4957 37.946 32.9427C37.9328 32.3898 37.4984 31.9421 36.9454 31.9421Z" fill="white"/>
<path d="M39.9342 32.9427C39.9342 32.3898 39.4865 31.9421 38.9335 31.9421C38.3805 31.9421 37.9329 32.3898 37.9329 32.9427C37.9329 33.4957 38.3805 33.9434 38.9335 33.9434C39.4865 33.9434 39.9342 33.4957 39.9342 32.9427Z" fill="white"/>
<path d="M40.9349 33.9434C41.4879 33.9434 41.9355 33.4957 41.9355 32.9427C41.9355 32.3898 41.4879 31.9421 40.9349 31.9421C40.3819 31.9421 39.9342 32.3898 39.9342 32.9427C39.9342 33.4957 40.3819 33.9434 40.9349 33.9434Z" fill="white"/>
<path d="M43.9237 32.9427C43.9237 32.3898 43.476 31.9421 42.923 31.9421C42.37 31.9421 41.9224 32.3898 41.9224 32.9427C41.9224 33.4957 42.37 33.9434 42.923 33.9434C43.476 33.9434 43.9237 33.4957 43.9237 32.9427Z" fill="white"/>
<path d="M45.9249 32.9427C45.9249 32.3898 45.4773 31.9421 44.9243 31.9421C44.3713 31.9421 43.9237 32.3898 43.9237 32.9427C43.9237 33.4957 44.3713 33.9434 44.9243 33.9434C45.4773 33.9434 45.9249 33.4957 45.9249 32.9427Z" fill="white"/>
<path d="M49.9145 32.9427C49.9145 32.3898 49.4668 31.9421 48.9138 31.9421C48.3608 31.9421 47.9131 32.3898 47.9131 32.9427C47.9131 33.4957 48.3608 33.9434 48.9138 33.9434C49.4668 33.9434 49.9145 33.4957 49.9145 32.9427Z" fill="white"/>
<path d="M51.9157 32.9427C51.9157 32.3898 51.4681 31.9421 50.9151 31.9421C50.3621 31.9421 49.9145 32.3898 49.9145 32.9427C49.9145 33.4957 50.3621 33.9434 50.9151 33.9434C51.4681 33.9434 51.9157 33.4957 51.9157 32.9427Z" fill="white"/>
<path d="M52.9164 33.9434C53.4691 33.9434 53.9171 33.4954 53.9171 32.9427C53.9171 32.3901 53.4691 31.9421 52.9164 31.9421C52.3638 31.9421 51.9157 32.3901 51.9157 32.9427C51.9157 33.4954 52.3638 33.9434 52.9164 33.9434Z" fill="white"/>
<path d="M33.9434 34.944C33.9434 34.391 33.4957 33.9434 32.9427 33.9434C32.3898 33.9434 31.9421 34.391 31.9421 34.944C31.9421 35.497 32.3898 35.9447 32.9427 35.9447C33.4957 35.9447 33.9434 35.497 33.9434 34.944Z" fill="white"/>
<path d="M39.9342 34.944C39.9342 34.391 39.4865 33.9434 38.9335 33.9434C38.3805 33.9434 37.9329 34.391 37.9329 34.944C37.9329 35.497 38.3805 35.9447 38.9335 35.9447C39.4865 35.9447 39.9342 35.497 39.9342 34.944Z" fill="white"/>
<path d="M40.9349 33.9434C40.3819 33.9434 39.9342 34.391 39.9342 34.944C39.9342 35.497 40.3819 35.9447 40.9349 35.9447C41.4879 35.9447 41.9355 35.497 41.9355 34.944C41.9355 34.391 41.4879 33.9434 40.9349 33.9434Z" fill="white"/>
<path d="M32.9427 35.9447C32.3898 35.9447 31.9421 36.3923 31.9421 36.9453C31.9421 37.4983 32.3898 37.9459 32.9427 37.9459C33.4957 37.9459 33.9434 37.4983 33.9434 36.9453C33.9434 36.3923 33.4957 35.9447 32.9427 35.9447Z" fill="white"/>
<path d="M35.9447 36.9453C35.9447 36.3923 35.4971 35.9446 34.9441 35.9446C34.3911 35.9446 33.9434 36.3923 33.9434 36.9453C33.9434 37.4983 34.3911 37.9459 34.9441 37.9459C35.4971 37.9459 35.9447 37.4983 35.9447 36.9453Z" fill="white"/>
<path d="M36.9454 37.9328C37.4984 37.9328 37.946 37.4851 37.946 36.9321C37.946 36.3791 37.4984 35.9314 36.9454 35.9314C36.3924 35.9314 35.9447 36.3791 35.9447 36.9321C35.9447 37.4983 36.3924 37.9328 36.9454 37.9328Z" fill="white"/>
<path d="M38.9335 37.9328C39.4865 37.9328 39.9342 37.4851 39.9342 36.9321C39.9342 36.3791 39.4865 35.9314 38.9335 35.9314C38.3805 35.9314 37.9329 36.3791 37.9329 36.9321C37.9329 37.4983 38.3805 37.9328 38.9335 37.9328Z" fill="white"/>
<path d="M34.9441 37.933C34.3911 37.933 33.9434 38.3807 33.9434 38.9337C33.9434 39.4867 34.3911 39.9343 34.9441 39.9343C35.4971 39.9343 35.9447 39.4867 35.9447 38.9337C35.9447 38.3807 35.4971 37.933 34.9441 37.933Z" fill="white"/>
<path d="M37.9328 38.9337C37.9328 38.3807 37.4852 37.933 36.9322 37.933C36.3792 37.933 35.9315 38.3807 35.9315 38.9337C35.9315 39.4867 36.3792 39.9343 36.9322 39.9343C37.4983 39.9343 37.9328 39.4867 37.9328 38.9337Z" fill="white"/>
<path d="M22.9625 39.9343C22.4095 39.9343 21.9618 40.3819 21.9618 40.9349C21.9618 41.4879 22.4095 41.9356 22.9625 41.9356C23.5155 41.9356 23.9631 41.4879 23.9631 40.9349C23.9631 40.3819 23.5155 39.9343 22.9625 39.9343Z" fill="white"/>
<path d="M31.9421 40.9349C31.9421 40.3819 31.4944 39.9343 30.9414 39.9343C30.3884 39.9343 29.9407 40.3819 29.9407 40.9349C29.9407 41.4879 30.3884 41.9356 30.9414 41.9356C31.5076 41.9356 31.9421 41.4879 31.9421 40.9349Z" fill="white"/>
<path d="M28.9532 41.9355C28.4002 41.9355 27.9526 42.3832 27.9526 42.9362C27.9526 43.4892 28.4002 43.9369 28.9532 43.9369C29.5062 43.9369 29.9539 43.4892 29.9539 42.9362C29.9539 42.3832 29.5062 41.9355 28.9532 41.9355Z" fill="white"/>
<path d="M30.9546 41.9355C30.4016 41.9355 29.9539 42.3832 29.9539 42.9362C29.9539 43.4892 30.4016 43.9369 30.9546 43.9369C31.5076 43.9369 31.9552 43.4892 31.9552 42.9362C31.9552 42.3832 31.5076 41.9355 30.9546 41.9355Z" fill="white"/>
<path d="M29.9539 44.9243C29.9539 45.4773 30.4016 45.9249 30.9546 45.9249C31.5076 45.9249 31.9552 45.4773 31.9552 44.9243C31.9552 44.3713 31.5076 43.9236 30.9546 43.9236C30.4016 43.9236 29.9539 44.3713 29.9539 44.9243Z" fill="white"/>
<path d="M12.9822 45.9249C12.4292 45.9249 11.9815 46.3726 11.9815 46.9256C11.9815 47.4786 12.4292 47.9262 12.9822 47.9262C13.5352 47.9262 13.9829 47.4786 13.9829 46.9256C13.9829 46.3726 13.5352 45.9249 12.9822 45.9249Z" fill="white"/>
<path d="M37.9328 40.9349C37.9328 40.3819 37.4852 39.9343 36.9322 39.9343C36.3792 39.9343 35.9315 40.3819 35.9315 40.9349C35.9315 41.4879 36.3792 41.9356 36.9322 41.9356C37.4983 41.9356 37.9328 41.4879 37.9328 40.9349Z" fill="white"/>
<path d="M32.9427 41.9355C32.3898 41.9355 31.9421 42.3832 31.9421 42.9362C31.9421 43.4892 32.3898 43.9369 32.9427 43.9369C33.4957 43.9369 33.9434 43.4892 33.9434 42.9362C33.9434 42.3832 33.4957 41.9355 32.9427 41.9355Z" fill="white"/>
<path d="M34.9441 43.9369C35.4967 43.9369 35.9447 43.4889 35.9447 42.9362C35.9447 42.3836 35.4967 41.9355 34.9441 41.9355C34.3914 41.9355 33.9434 42.3836 33.9434 42.9362C33.9434 43.4889 34.3914 43.9369 34.9441 43.9369Z" fill="white"/>
<path d="M34.9441 43.9236C34.3911 43.9236 33.9434 44.3713 33.9434 44.9243C33.9434 45.4773 34.3911 45.9249 34.9441 45.9249C35.4971 45.9249 35.9447 45.4773 35.9447 44.9243C35.9447 44.3713 35.4971 43.9236 34.9441 43.9236Z" fill="white"/>
<path d="M28.9532 53.9171C28.4002 53.9171 27.9526 54.3648 27.9526 54.9177C27.9526 55.4707 28.4002 55.9184 28.9532 55.9184C29.5062 55.9184 29.9539 55.4707 29.9539 54.9177C29.9539 54.3648 29.5062 53.9171 28.9532 53.9171Z" fill="white"/>
<path d="M34.9441 49.9275C35.4967 49.9275 35.9447 49.4795 35.9447 48.9268C35.9447 48.3742 35.4967 47.9262 34.9441 47.9262C34.3914 47.9262 33.9434 48.3742 33.9434 48.9268C33.9434 49.4795 34.3914 49.9275 34.9441 49.9275Z" fill="white"/>
<path d="M32.9427 49.9143C32.3898 49.9143 31.9421 50.3619 31.9421 50.9149C31.9421 51.4679 32.3898 51.9156 32.9427 51.9156C33.4957 51.9156 33.9434 51.4679 33.9434 50.9149C33.9434 50.3619 33.4957 49.9143 32.9427 49.9143Z" fill="white"/>
<path d="M34.9441 49.9143C34.3911 49.9143 33.9434 50.3619 33.9434 50.9149C33.9434 51.4679 34.3911 51.9156 34.9441 51.9156C35.4971 51.9156 35.9447 51.4679 35.9447 50.9149C35.9447 50.3619 35.4971 49.9143 34.9441 49.9143Z" fill="white"/>
<path d="M36.9454 49.9143C36.3924 49.9143 35.9447 50.3619 35.9447 50.9149C35.9447 51.4679 36.3924 51.9156 36.9454 51.9156C37.4984 51.9156 37.946 51.4679 37.946 50.9149C37.946 50.3619 37.4984 49.9143 36.9454 49.9143Z" fill="white"/>
<path d="M33.9434 52.9162C33.9434 53.4692 34.3911 53.9168 34.9441 53.9168C35.4971 53.9168 35.9447 53.4692 35.9447 52.9162C35.9447 52.3632 35.4971 51.9156 34.9441 51.9156C34.3911 51.9156 33.9434 52.3632 33.9434 52.9162Z" fill="white"/>
<path d="M32.9427 53.9171C32.3898 53.9171 31.9421 54.3648 31.9421 54.9177C31.9421 55.4707 32.3898 55.9184 32.9427 55.9184C33.4957 55.9184 33.9434 55.4707 33.9434 54.9177C33.9434 54.3648 33.4957 53.9171 32.9427 53.9171Z" fill="white"/>
<path d="M36.9454 53.9171C36.3924 53.9171 35.9447 54.3648 35.9447 54.9177C35.9447 55.4707 36.3924 55.9184 36.9454 55.9184C37.4984 55.9184 37.946 55.4707 37.946 54.9177C37.9328 54.3648 37.4984 53.9171 36.9454 53.9171Z" fill="white"/>
<path d="M52.9164 9.98032C52.3634 9.98032 51.9157 10.4279 51.9157 10.9809C51.9157 11.5339 52.3634 11.9818 52.9164 11.9818C53.4694 11.9818 53.9171 11.5339 53.9171 10.9809C53.9171 10.4279 53.4694 9.98032 52.9164 9.98032Z" fill="white"/>
<path d="M52.9164 27.9524C52.3634 27.9524 51.9157 28.4001 51.9157 28.9531C51.9157 29.5061 52.3634 29.954 52.9164 29.954C53.4694 29.954 53.9171 29.5061 53.9171 28.9531C53.9171 28.4001 53.4694 27.9524 52.9164 27.9524Z" fill="white"/>
<path d="M30.9546 2.00132C31.5076 2.00132 31.9552 1.55365 31.9552 1.00066C31.9552 0.447663 31.5076 0 30.9546 0C30.4016 0 29.9539 0.447663 29.9539 1.00066C29.9539 1.55365 30.4016 2.00132 30.9546 2.00132Z" fill="white"/>
<path d="M60.395 22.6729C60 22.0804 59.5523 21.5405 59.1047 20.9875C58.5122 20.2239 57.8802 19.4866 57.314 18.6966C56.9585 18.2094 56.7742 17.6169 56.682 17.0112C56.6689 16.9322 56.7479 16.8137 56.8137 16.7611C57.3009 16.3792 57.8012 16.0106 58.3015 15.6419C58.42 15.5498 58.5254 15.4181 58.6044 15.2733C58.4069 15.2996 58.2094 15.3523 58.025 15.4181C57.9197 15.4576 57.8275 15.4971 57.7354 15.5366C57.7354 15.5366 57.7222 15.5366 57.7222 15.5498C57.5642 15.6156 57.4194 15.6814 57.2614 15.7604C57.1034 15.8263 56.9454 15.9053 56.7874 15.9711C56.7084 16.0106 56.6425 16.0369 56.5635 16.0764C56.5767 15.7736 56.5635 15.5103 56.6162 15.2469C56.7347 14.4833 56.919 13.7196 57.0112 12.9428C57.1824 11.6788 57.2219 10.4016 57.1034 9.12447C56.998 7.95265 56.7742 6.79399 56.3924 5.67484C55.9842 4.46351 55.4444 3.30486 54.6807 2.29103C54.1541 1.58004 53.5221 0.934877 52.9296 0.276549C52.8637 0.197549 52.7716 0.131717 52.6531 0.0395508L53.3509 2.11987C53.2192 2.05403 53.0876 2.01453 52.9296 2.01453C52.3766 2.01453 51.9289 2.4622 51.9289 3.01519C51.9289 3.56819 52.3766 4.01585 52.9296 4.01585C53.4826 4.01585 53.9302 3.56819 53.9302 3.01519C53.9302 2.97569 53.9171 2.94936 53.9171 2.92303C53.9302 2.93619 53.9302 2.94936 53.9434 2.96253C53.9434 2.97569 53.9302 3.00203 53.9302 3.01519C53.9302 3.43652 54.1936 3.79202 54.5491 3.93685C54.5754 3.97635 54.6017 4.02902 54.6281 4.06852C54.2199 4.20018 53.9302 4.55568 53.9302 5.00334C53.9302 5.55634 54.3779 6.004 54.9309 6.004C55.1021 6.004 55.26 5.95133 55.4049 5.87234C55.418 5.91184 55.4312 5.95133 55.4444 5.99083C55.4707 6.06983 55.4839 6.14883 55.5102 6.22783C55.339 6.10933 55.1547 6.01717 54.9309 6.01717C54.3779 6.01717 53.9302 6.46483 53.9302 7.01783C53.9302 7.57082 54.3779 8.01848 54.9309 8.01848C55.3391 8.01848 55.6814 7.78149 55.8394 7.43916C55.9184 7.82099 55.971 8.21598 56.0237 8.62415C55.971 8.74265 55.9315 8.88748 55.9315 9.03231C55.9315 9.24297 56.0105 9.44047 56.129 9.59847C56.1422 9.8618 56.1554 10.1383 56.1554 10.4148C56.0237 10.586 55.9184 10.7966 55.9184 11.0336C55.9184 11.2575 55.9974 11.4418 56.1159 11.613C56.1027 11.9421 56.0632 12.2581 56.0369 12.5873C55.971 12.7189 55.9184 12.8769 55.9184 13.0349C55.9184 13.0876 55.9447 13.1403 55.9447 13.2061C55.892 13.5221 55.8394 13.8381 55.7867 14.1541C55.7604 14.2594 55.7472 14.3779 55.7209 14.4833C55.5365 14.2199 55.26 14.0356 54.9177 14.0356C54.3647 14.0356 53.9171 14.4833 53.9171 15.0363C53.9171 15.5893 54.3647 16.0369 54.9177 16.0369C55.1679 16.0369 55.3917 15.9316 55.5629 15.7868C55.5629 15.7999 55.5629 15.7999 55.5629 15.8131L55.5497 16.0633L55.5365 16.2739C55.3654 16.1291 55.1547 16.0369 54.9045 16.0369C54.3516 16.0369 53.9039 16.4846 53.9039 17.0376C53.9039 17.5906 54.3516 18.0382 54.9045 18.0382C55.26 18.0382 55.5629 17.8407 55.7472 17.5511C55.8262 17.9197 55.9315 18.2489 56.05 18.5517C55.971 18.6966 55.9052 18.8546 55.9052 19.0389C55.9052 19.5919 56.3529 20.0396 56.9059 20.0396C56.9454 20.0396 56.9849 20.0264 57.0244 20.0264C57.0375 20.0396 57.0507 20.0527 57.0639 20.0791C57.0112 20.0659 56.9717 20.0527 56.919 20.0527C56.366 20.0527 55.9184 20.5004 55.9184 21.0534C55.9184 21.6064 56.366 22.054 56.919 22.054C57.4325 22.054 57.8539 21.659 57.8934 21.1455C57.9065 21.1719 57.9329 21.185 57.946 21.2114C57.9987 21.5669 58.2357 21.8565 58.5648 21.9882L58.6439 22.0935L58.657 22.1067C58.2357 22.2252 57.9197 22.5939 57.9197 23.0547C57.9197 23.3049 58.025 23.5287 58.183 23.713C57.8802 23.8447 57.5774 23.9632 57.2877 24.108C57.2745 24.108 57.2745 24.1212 57.2614 24.1212C57.156 24.0817 57.0507 24.0554 56.9322 24.0554C56.3792 24.0554 55.9315 24.503 55.9315 25.056C55.9315 25.4378 56.1554 25.7538 56.4582 25.925C56.4845 25.9908 56.524 26.0698 56.5635 26.1357C56.1949 26.2805 55.9315 26.636 55.9315 27.0573C55.9315 27.4128 56.129 27.7025 56.4055 27.8868C56.1027 28.0053 55.8789 28.216 55.7472 28.4925C55.5629 28.2291 55.2864 28.058 54.944 28.058C54.3911 28.058 53.9434 28.5056 53.9434 29.0586C53.9434 29.6116 54.3911 30.0593 54.944 30.0593C55.3127 30.0593 55.6155 29.8486 55.7867 29.559C55.8262 29.6248 55.8525 29.7038 55.9052 29.7696C56.0369 29.954 56.1949 30.112 56.3529 30.27C56.2344 30.3621 56.1422 30.4675 56.0632 30.5991C56.0369 30.5991 56.0237 30.6123 55.9974 30.6123L55.8262 30.6386C55.6682 30.2963 55.3259 30.0593 54.9309 30.0593C54.3779 30.0593 53.9302 30.507 53.9302 31.06C53.9302 31.5735 54.3252 31.9816 54.8256 32.0343L54.8387 32.0738C54.3252 32.1264 53.9302 32.5346 53.9302 33.0481C53.9302 33.6011 54.3779 34.0488 54.9309 34.0488C55.1547 34.0488 55.3522 33.9566 55.5102 33.8381C55.5234 33.9698 55.5234 34.1146 55.497 34.2463C55.3391 34.1278 55.1415 34.0488 54.9177 34.0488C54.3647 34.0488 53.9171 34.4964 53.9171 35.0494C53.9171 35.2206 53.9697 35.3786 54.0487 35.5234C53.9434 35.5498 53.8381 35.5761 53.7327 35.6024C53.8381 35.4444 53.9171 35.2601 53.9171 35.0626C53.9171 34.5096 53.4694 34.0619 52.9164 34.0619C52.3634 34.0619 51.9157 34.5096 51.9157 35.0626C51.9157 35.2996 52.0079 35.5234 52.1527 35.6946C51.9947 35.6946 51.8367 35.6946 51.6787 35.6814C51.8236 35.5103 51.9157 35.2996 51.9157 35.0626C51.9157 34.5096 51.4681 34.0619 50.9151 34.0619C50.3621 34.0619 49.9144 34.5096 49.9144 35.0626C49.9144 35.2601 49.9803 35.4313 50.0856 35.5893C49.9803 35.5761 49.8881 35.5498 49.7828 35.5366C49.8618 35.3918 49.9144 35.2338 49.9144 35.0626C49.9144 34.5096 49.4668 34.0619 48.9138 34.0619C48.3608 34.0619 47.9131 34.5096 47.9131 35.0626C47.9131 35.1021 47.9263 35.1284 47.9394 35.1679C47.9263 35.1679 47.9131 35.1679 47.8999 35.1548C47.8999 35.1153 47.9131 35.0889 47.9131 35.0626C47.9131 34.5096 47.4654 34.0619 46.9124 34.0619C46.5306 34.0619 46.2146 34.2858 46.0435 34.5886C45.9381 34.5623 45.8328 34.5359 45.7406 34.5228C45.5563 34.2463 45.2666 34.0619 44.9111 34.0619C44.5293 34.0619 44.2001 34.2858 44.0421 34.6018C43.9631 34.6149 43.8973 34.6281 43.8183 34.6413C43.6603 34.2989 43.318 34.0488 42.9098 34.0488C42.3568 34.0488 41.9092 34.4964 41.9092 35.0494C41.9092 35.2074 41.9487 35.3391 42.0145 35.4708C41.738 35.6683 41.501 35.8921 41.2772 36.1159C41.1718 36.0764 41.0402 36.0501 40.9085 36.0501C40.3555 36.0501 39.9078 36.4977 39.9078 37.0507C39.9078 37.2219 39.9605 37.3667 40.0263 37.4984C39.8288 37.7354 39.6445 37.9724 39.4602 38.2357C39.3022 38.1304 39.1178 38.0514 38.9072 38.0514C38.3542 38.0514 37.9065 38.4991 37.9065 39.0521C37.9065 39.4602 38.1567 39.8157 38.5122 39.9737C38.4859 40.0396 38.4595 40.1185 38.4332 40.1844C38.1172 40.3555 37.8934 40.6715 37.8934 41.0534C37.8934 41.2114 37.9329 41.343 37.9987 41.4747C37.8934 41.8302 37.8144 42.1857 37.7354 42.5412C37.5642 42.2515 37.2614 42.054 36.8927 42.054C36.3397 42.054 35.892 42.5017 35.892 43.0547C35.892 43.6077 36.3397 44.0554 36.8927 44.0554C37.1429 44.0554 37.3535 43.9632 37.5247 43.8052C37.5115 43.95 37.4852 44.108 37.472 44.2529C37.3009 44.1344 37.1165 44.0422 36.8927 44.0422C36.3397 44.0422 35.892 44.4899 35.892 45.0428C35.892 45.5958 36.3397 46.0435 36.8927 46.0435C37.077 46.0435 37.2482 45.9777 37.393 45.8855C37.393 45.9908 37.393 46.0962 37.4062 46.2015C37.2482 46.1093 37.0902 46.0435 36.8927 46.0435C36.3397 46.0435 35.892 46.4912 35.892 47.0442C35.892 47.5972 36.3397 48.0448 36.8927 48.0448C37.1165 48.0448 37.314 47.9527 37.4852 47.8342C37.4984 48.0712 37.5247 48.3082 37.5379 48.5583C37.6037 49.322 37.7354 50.112 37.9065 50.9415C37.9065 50.981 37.8934 51.0073 37.8934 51.0468C37.8934 51.2311 37.9592 51.4023 38.0514 51.5471C38.1304 51.85 38.2094 52.1528 38.3015 52.4688C38.5649 53.3641 38.8545 54.2331 39.2232 55.2733C39.368 55.6814 39.526 56.0633 39.684 56.4583C39.4997 56.2081 39.2232 56.0369 38.894 56.0369C38.341 56.0369 37.8934 56.4846 37.8934 57.0376C37.8934 57.5906 38.341 58.0382 38.894 58.0382C39.447 58.0382 39.8947 57.5906 39.8947 57.0376C39.8947 56.9849 39.8683 56.9322 39.8683 56.8796L41.5668 59.4207C41.7907 59.5787 41.9882 59.7499 42.212 59.8947C42.291 59.9474 42.37 59.9869 42.4885 60.0001C42.3437 59.7236 42.1988 59.4471 42.054 59.1574C41.343 57.7881 40.6847 56.3924 40.1712 54.9441C39.8552 54.0356 39.5392 53.1271 39.2627 52.1923C38.9072 50.981 38.6438 49.7433 38.5385 48.4662C38.4595 47.5313 38.3805 46.5833 38.3937 45.6485C38.42 43.792 38.7623 41.9882 39.4602 40.2502C39.5918 39.9211 39.763 39.6051 39.9473 39.3154C39.9473 39.3154 39.9473 39.3154 39.9473 39.3286C40.158 38.9862 40.395 38.6571 40.6452 38.3279C40.8822 38.0251 41.1323 37.7354 41.3957 37.4457C41.8697 36.9322 42.3305 36.3924 42.9493 36.0501C42.9625 36.0501 42.9756 36.0369 42.9756 36.0369C43.1731 35.9316 43.3838 35.8394 43.5945 35.7604C43.7525 35.6946 43.9105 35.6419 44.0685 35.6024C44.0685 35.6024 44.0685 35.6156 44.0816 35.6288C44.6083 35.4971 45.1481 35.4839 45.7011 35.5893C45.7143 35.5761 45.7143 35.5629 45.7275 35.5498C45.8328 35.5629 45.9381 35.5893 46.0435 35.6156C46.0566 35.6156 46.0698 35.6288 46.0961 35.6288C46.1093 35.6419 46.1093 35.6683 46.1225 35.6814C46.4648 35.7868 46.7939 35.9053 47.1363 36.0106C47.1494 36.0106 47.1758 35.9974 47.1889 35.9843C47.3338 36.0369 47.4786 36.0896 47.6234 36.1159C47.8473 36.1686 48.0711 36.2212 48.2949 36.2739C48.2818 36.2871 48.2686 36.2871 48.2554 36.3002C48.7426 36.4187 49.2429 36.5109 49.7433 36.5636C49.7301 36.5504 49.7301 36.5373 49.7169 36.5241C49.8091 36.5373 49.9013 36.5636 49.9803 36.5636C49.9934 36.5636 50.0066 36.5636 50.0198 36.5636C50.0198 36.5767 50.0066 36.5767 50.0066 36.5899C50.3621 36.6294 50.7044 36.6294 51.0599 36.6426C51.4944 36.6689 51.9289 36.6821 52.3634 36.6821C52.5741 36.6952 52.7716 36.7084 52.9822 36.6952C53.1402 36.6952 53.3114 36.6689 53.4694 36.6294C53.6669 36.6031 53.8512 36.5767 54.0487 36.5241C54.0619 36.5241 54.0619 36.5109 54.0751 36.5109C54.5227 36.4056 54.9572 36.2344 55.3522 35.9843C56.2739 35.4181 56.6425 34.4701 56.4055 33.4168C56.2739 32.8243 56.05 32.2713 55.7472 31.7446C55.734 31.7183 55.7209 31.6788 55.7077 31.6393C55.8262 31.613 55.9447 31.5998 56.0632 31.5735V31.5866C56.4055 31.5208 56.7479 31.4681 57.0639 31.4023C57.1692 31.376 57.2614 31.3496 57.3667 31.3101C57.4589 31.2706 57.5379 31.2311 57.6169 31.1916C57.9724 30.981 58.0382 30.6255 57.7485 30.2963C57.5774 30.0988 57.3667 29.9408 57.1824 29.7565C56.998 29.559 56.8005 29.3746 56.6294 29.164C56.524 29.0191 56.5372 28.9138 56.6557 28.848C56.6952 28.8348 56.7347 28.8216 56.7742 28.8085C57.0902 28.769 57.4325 28.7426 57.7222 28.6373C57.7354 28.6373 57.7354 28.6241 57.7485 28.6241C57.7617 28.6241 57.7617 28.6241 57.7749 28.6241C58.2752 28.4398 58.6439 28.0843 58.8282 27.5577C58.973 27.1627 58.8677 26.9125 58.5254 26.6492C58.183 26.399 57.8407 26.1488 57.5379 25.8592C57.1692 25.53 57.2219 25.2272 57.6564 25.0165C57.6695 25.0033 57.6827 25.0033 57.6959 25.0033C57.7485 24.9902 57.788 24.9638 57.8407 24.9375C57.8539 24.9243 57.8802 24.9243 57.8934 24.9112C58.3937 24.6873 58.9072 24.4767 59.4207 24.2528C59.4602 24.2397 59.4865 24.2265 59.526 24.2133C59.684 24.1475 59.842 24.0817 60 24.0027C60.5662 23.634 60.7242 23.1864 60.395 22.6729ZM57.8407 27.2812C57.8407 27.268 57.8407 27.2548 57.8407 27.2548L57.8539 27.268C57.8539 27.268 57.8539 27.268 57.8407 27.2812Z" fill="white"/>
<path d="M93.2362 39.3394H95.3564L86.6673 20.3333H84.6891L76 39.3394H78.0918L80.3635 34.2661H90.955L93.2362 39.3394ZM81.0828 32.6286L85.6545 22.4061L90.2262 32.6286H81.0828Z" fill="white"/>
<path d="M104.159 39.3391V20.3235H106.137V36.0736L118.3 20.3235H120.117V39.3391H118.139V23.6174L105.976 39.3391H104.159Z" fill="white"/>
<path d="M143.998 23.324C143.373 22.3585 142.484 21.6108 141.319 21.0996C140.165 20.5885 138.773 20.3235 137.164 20.3235H130.046V39.3296H132.053V33.3287H137.155C138.764 33.3287 140.146 33.0637 141.31 32.5431C142.465 32.0225 143.364 31.2747 143.989 30.2998C144.613 29.3344 144.926 28.1796 144.926 26.8356C144.935 25.4726 144.623 24.2989 143.998 23.324ZM141.452 30.3377C140.468 31.1612 139.019 31.5682 137.117 31.5682H132.062V22.0651H137.117C139.019 22.0651 140.458 22.4816 141.452 23.3145C142.436 24.1474 142.928 25.3211 142.928 26.845C142.928 28.35 142.436 29.5142 141.452 30.3377Z" fill="white"/>
<path d="M153.747 39.3391V20.3235H155.725V36.0736L167.888 20.3235H169.706V39.3296H167.727V23.6174L155.565 39.3391H153.747Z" fill="white"/>
<path d="M112.555 12.7327H110.576V20.3238H112.555V12.7327Z" fill="white"/>
</svg>
