<svg width="20" height="17" viewBox="0 0 20 17" fill="none" xmlns="http://www.w3.org/2000/svg">
<path d="M17.64 0.0009375C17.465 0.0109375 17.285 0.0359375 17.11 0.0909375L1.61 4.69594C0.66 4.98594 0 5.86594 0 6.85594V9.11594C0 10.1109 0.66 10.9909 1.61 11.2709L4.11 12.0109C3.89 13.9059 4.98 15.7559 6.87 16.3159C8.755 16.8709 10.675 15.9159 11.52 14.2109L17.11 15.8709C18.535 16.2959 20 15.2009 20 13.7159V2.25094C20 1.13594 19.175 0.240938 18.16 0.0459375C17.99 0.0109375 17.82 -0.0040625 17.64 0.0009375ZM17.72 1.49594C18.145 1.47094 18.5 1.79094 18.5 2.25094V13.7309C18.5 14.2509 18.035 14.5959 17.535 14.4509L2.035 9.84094C1.715 9.74094 1.5 9.45594 1.5 9.12094V6.86094C1.5 6.52594 1.715 6.23594 2.035 6.14094L17.535 1.53094C17.6 1.51094 17.66 1.50094 17.72 1.49594ZM5.54 12.4459L10.08 13.7959C9.5 14.7259 8.395 15.2159 7.29 14.8859C6.18 14.5559 5.52 13.5459 5.54 12.4459Z" fill="#04242B"/>
</svg>
