<svg width="18" height="18" viewBox="0 0 18 18" fill="none" xmlns="http://www.w3.org/2000/svg">
<path d="M2.25 0C1.07 0 0.105 0.93 0.015 2.085C0.005 2.14 0 2.195 0 2.25V3.75V4.5V15.75C0 16.985 1.015 18 2.25 18H15.75C16.985 18 18 16.985 18 15.75V5.25C18 4.015 16.985 3 15.75 3H2.25C1.825 3 1.5 2.675 1.5 2.25C1.5 1.825 1.825 1.5 2.25 1.5H14.75C15.165 1.505 15.505 1.175 15.51 0.76C15.515 0.345 15.185 0.005 14.77 0C14.765 0 14.755 0 14.75 0H2.25ZM1.5 4.5H2.25H15.75C16.175 4.5 16.5 4.825 16.5 5.25V15.75C16.5 16.175 16.175 16.5 15.75 16.5H2.25C1.825 16.5 1.5 16.175 1.5 15.75V4.5ZM13.75 9C13.06 9 12.5 9.56 12.5 10.25C12.5 10.94 13.06 11.5 13.75 11.5C14.44 11.5 15 10.94 15 10.25C15 9.56 14.44 9 13.75 9Z" fill="#04242B"/>
</svg>
