<svg width="20" height="20" viewBox="0 0 20 20" fill="none" xmlns="http://www.w3.org/2000/svg">
<path d="M10 0C4.485 0 0 4.485 0 10C0 15.515 4.485 20 10 20C15.515 20 20 15.515 20 10C20 4.485 15.515 0 10 0ZM10 1.5C14.705 1.5 18.5 5.295 18.5 10C18.5 14.705 14.705 18.5 10 18.5C5.295 18.5 1.5 14.705 1.5 10C1.5 5.295 5.295 1.5 10 1.5ZM7.75 5C7.335 5 7 5.335 7 5.75V9.5H6.25C5.835 9.495 5.495 9.825 5.49 10.24C5.485 10.655 5.815 10.995 6.23 11C6.235 11 6.245 11 6.25 11H7V12H6.25C5.835 11.995 5.495 12.325 5.49 12.74C5.485 13.155 5.815 13.495 6.23 13.5C6.235 13.5 6.245 13.5 6.25 13.5H7V14.75C6.995 15.165 7.325 15.505 7.74 15.51C8.155 15.515 8.495 15.185 8.5 14.77C8.5 14.765 8.5 14.755 8.5 14.75V13.5H11.75C12.165 13.505 12.505 13.175 12.51 12.76C12.515 12.345 12.185 12.005 11.77 12C11.765 12 11.755 12 11.75 12H8.5V11H11.5C13.15 11 14.5 9.65 14.5 8C14.5 6.35 13.15 5 11.5 5H7.75ZM8.5 6.5H11.5C12.335 6.5 13 7.165 13 8C13 8.835 12.335 9.5 11.5 9.5H8.5V6.5Z" fill="#04242B"/>
</svg>
