<svg width="15" height="22" viewBox="0 0 15 22" fill="none" xmlns="http://www.w3.org/2000/svg">
<path d="M7.5 0C6.95 0 6.5 0.45 6.5 1C6.5 1.26 6.6 1.51 6.785 1.695L5.585 3.235L3.45 1.815C3.62 1.29 3.34 0.725 2.815 0.55C2.71 0.515 2.605 0.5 2.5 0.5C1.95 0.5 1.5 0.95 1.5 1.5C1.5 1.86 1.695 2.19 2.005 2.365L2.46 7.36C2.52 8 3.065 8.5 3.705 8.5H4.5V8.75C4.5 11.45 3.635 12.685 2.695 13.705C2.225 14.215 1.725 14.66 1.29 15.195C0.855 15.73 0.5 16.415 0.5 17.24C0.5 17.695 0.625 18.08 0.8 18.405C0.32 18.77 0 19.345 0 19.99C0 21.085 0.905 21.99 2 21.99H13C14.095 21.99 15 21.085 15 19.99C15 19.345 14.68 18.77 14.2 18.405C14.375 18.08 14.5 17.695 14.5 17.24C14.5 16.415 14.14 15.73 13.71 15.195C13.275 14.66 12.775 14.215 12.305 13.705C11.365 12.685 10.5 11.45 10.5 8.75V8.5H11.295C11.935 8.5 12.48 8 12.54 7.365L12.995 2.37C13.475 2.1 13.645 1.49 13.37 1.005C13.19 0.695 12.86 0.5 12.5 0.5C11.95 0.5 11.5 0.95 11.5 1.5C11.5 1.605 11.515 1.715 11.55 1.815L9.415 3.24L8.215 1.7C8.6 1.305 8.595 0.67 8.195 0.285C8.01 0.1 7.76 0 7.5 0ZM7.5 3.22L8.66 4.71C8.9 5.02 9.34 5.09 9.67 4.875L11.365 3.745L11.065 7H3.935L3.64 3.745L5.335 4.875C5.66 5.095 6.1 5.02 6.345 4.71L7.5 3.22ZM6 8.5H9V8.75C9 11.8 10.135 13.56 11.195 14.72C11.725 15.3 12.225 15.745 12.54 16.14C12.855 16.535 13 16.815 13 17.24C13 17.59 12.85 17.815 12.66 17.99H2.34C2.15 17.815 2 17.59 2 17.24C2 16.815 2.14 16.53 2.46 16.14C2.78 15.75 3.275 15.3 3.805 14.72C4.865 13.56 6 11.8 6 8.75V8.5ZM2 19.49H13C13.285 19.49 13.5 19.705 13.5 19.99C13.5 20.275 13.285 20.49 13 20.49H2C1.715 20.49 1.5 20.275 1.5 19.99C1.5 19.705 1.715 19.49 2 19.49Z" fill="#04242B"/>
</svg>
