<svg width="16" height="20" viewBox="0 0 16 20" fill="none" xmlns="http://www.w3.org/2000/svg">
<path d="M8 0C5.245 0 3 2.245 3 5C3 7.755 5.245 10 8 10C10.755 10 13 7.755 13 5C13 2.245 10.755 0 8 0ZM8 1.5C9.94 1.5 11.5 3.06 11.5 5C11.5 6.94 9.94 8.5 8 8.5C6.06 8.5 4.5 6.94 4.5 5C4.5 3.06 6.06 1.5 8 1.5ZM1.99 12C0.9 12 0 12.9 0 13.99V14.75C0 16.55 1.14 17.945 2.655 18.78C4.17 19.615 6.085 20 8 20C9.915 20 11.835 19.615 13.345 18.78C14.635 18.07 15.605 16.93 15.88 15.5H16V13.99C16 12.9 15.1 12 14.01 12H1.99ZM1.99 13.5H14.01C14.29 13.5 14.5 13.71 14.5 13.99V14V14.75C14.5 15.95 13.825 16.805 12.62 17.47C11.415 18.135 9.71 18.5 8 18.5C6.29 18.5 4.585 18.135 3.38 17.47C2.175 16.805 1.5 15.95 1.5 14.75V13.99C1.5 13.71 1.71 13.5 1.99 13.5Z" fill="#04242B"/>
</svg>
