<svg width="84" height="67" viewBox="0 0 84 67" fill="none" xmlns="http://www.w3.org/2000/svg">
<path d="M70.5352 0.00437272C70.0787 0.0204977 69.6181 0.0809665 69.1641 0.187966L9.52734 14.2192H35.7266L70.5391 6.02781C70.8891 5.93981 71.159 6.0689 71.293 6.1489C71.423 6.2309 71.6563 6.418 71.7383 6.77L73.5234 14.2192H79.6562L77.582 5.3989C77.154 3.5789 76.0431 2.03134 74.4531 1.04734C73.2591 0.309341 71.9047 -0.0440023 70.5352 0.00437272ZM7 18.2192C3.17009 18.2192 0 21.3893 0 25.2192V35.2778C0.000104521 35.7031 0.0906047 36.1234 0.265501 36.511C0.440396 36.8987 0.695692 37.2447 1.01446 37.5261C1.33323 37.8076 1.70819 38.0181 2.11448 38.1436C2.52077 38.2692 2.94911 38.3069 3.37109 38.2544C3.5537 38.2315 3.77765 38.2192 4 38.2192C8.46158 38.2192 12 41.7576 12 46.2192C12 50.6808 8.46158 54.2192 4 54.2192C3.77765 54.2192 3.5537 54.2068 3.37109 54.1841C2.94911 54.1315 2.52077 54.1693 2.11448 54.2948C1.70819 54.4204 1.33323 54.6308 1.01446 54.9123C0.695692 55.1938 0.440396 55.5398 0.265501 55.9274C0.0906047 56.315 0.000104521 56.7354 0 57.1606V67.2192C0 71.0491 3.17009 74.2192 7 74.2192H77C80.8299 74.2192 84 71.0491 84 67.2192V57.1606C83.9999 56.7354 83.9094 56.315 83.7345 55.9274C83.5596 55.5398 83.3043 55.1938 82.9855 54.9123C82.6668 54.6308 82.2918 54.4204 81.8855 54.2948C81.4792 54.1693 81.0509 54.1315 80.6289 54.1841C80.4463 54.2069 80.2224 54.2192 80 54.2192C75.5384 54.2192 72 50.6808 72 46.2192C72 41.7576 75.5384 38.2192 80 38.2192C80.2224 38.2192 80.4463 38.2316 80.6289 38.2544C81.0509 38.3069 81.4792 38.2692 81.8855 38.1436C82.2918 38.0181 82.6668 37.8076 82.9855 37.5261C83.3043 37.2447 83.5596 36.8987 83.7345 36.511C83.9094 36.1234 83.9999 35.7031 84 35.2778V25.2192C84 21.3893 80.8299 18.2192 77 18.2192H7ZM7 24.2192H77C77.5901 24.2192 78 24.6291 78 25.2192V32.6255C71.2811 33.6407 66 39.2292 66 46.2192C66 53.2093 71.2811 58.7977 78 59.813V67.2192C78 67.8093 77.5901 68.2192 77 68.2192H7C6.40991 68.2192 6 67.8093 6 67.2192V59.813C12.7189 58.7977 18 53.2093 18 46.2192C18 39.2292 12.7189 33.6407 6 32.6255V25.2192C6 24.6291 6.40991 24.2192 7 24.2192Z" fill="white"/>
</svg>
