<svg width="19" height="23" viewBox="0 0 19 23" fill="none" xmlns="http://www.w3.org/2000/svg">
<path d="M9.52489 0.000250556C9.3299 -0.00474939 9.1449 0.0652498 8.9999 0.195248C8.9999 0.195248 5.24494 3.50021 0.749992 3.50021C0.334996 3.50021 0 3.83521 0 4.2502V10.3801C0 13.7201 1.54498 19.215 9.2099 22.44C9.3949 22.52 9.60489 22.52 9.78989 22.44C17.4548 19.215 18.9998 13.7201 18.9998 10.3801V4.2502C18.9998 3.83521 18.6648 3.50021 18.2498 3.50021C13.7548 3.50021 9.99989 0.195248 9.99989 0.195248C9.86989 0.0752497 9.69989 0.0052505 9.52489 0.000250556ZM9.49989 1.71523C10.5299 2.54522 13.5548 4.6702 17.4998 4.9402V10.3801C17.4998 13.2501 16.3948 17.885 9.49989 20.915C2.60497 17.885 1.49998 13.2501 1.49998 10.3801V4.9402C5.44494 4.6702 8.46991 2.54522 9.49989 1.71523ZM13.2349 7.99516C13.0399 8.00016 12.8549 8.08016 12.7199 8.22016L8.24991 12.6901L6.27993 10.7201C5.99493 10.4201 5.51994 10.4101 5.21994 10.7001C4.91994 10.9901 4.90995 11.4601 5.19994 11.7601C5.20494 11.7651 5.21494 11.7751 5.21994 11.7801L7.71991 14.2801C8.01491 14.5751 8.48991 14.5751 8.7799 14.2801L13.7798 9.28015C14.0748 8.99015 14.0848 8.51516 13.7948 8.22016C13.6498 8.07016 13.4448 7.98516 13.2349 7.99516Z" fill="#04242B"/>
</svg>
