<svg width="21" height="18" viewBox="0 0 21 18" fill="none" xmlns="http://www.w3.org/2000/svg">
<path d="M0.75 0C0.335 0 0 0.335 0 0.75V8V15.25C0 15.665 0.335 16 0.75 16H8.5C9.2 16 9.75 16.55 9.75 17.25C9.755 17.665 10.095 17.995 10.51 17.99C10.915 17.985 11.245 17.655 11.25 17.25C11.25 16.55 11.8 16 12.5 16H20.25C20.665 16 21 15.665 21 15.25V8V0.75C21 0.335 20.665 0 20.25 0H12.5C11.71 0 11.005 0.355 10.5 0.895C9.995 0.355 9.29 0 8.5 0H0.75ZM1.5 1.5H8.5C9.2 1.5 9.75 2.05 9.75 2.75V14.84C9.37 14.64 8.955 14.5 8.5 14.5H1.5V8V1.5ZM12.5 1.5H19.5V8V14.5H12.5C12.045 14.5 11.63 14.64 11.25 14.84V2.76C11.25 2.755 11.25 2.755 11.25 2.75C11.25 2.05 11.8 1.5 12.5 1.5ZM17.245 2.99C17.045 2.995 16.86 3.08 16.72 3.22L15.5 4.44L14.28 3.22C14.14 3.075 13.945 2.99 13.74 2.99C13.325 2.99 12.99 3.325 12.99 3.74C12.99 3.945 13.07 4.135 13.215 4.28L14.44 5.5L13.22 6.72C12.92 7.005 12.91 7.48 13.2 7.78C13.49 8.08 13.96 8.09 14.26 7.8C14.265 7.795 14.275 7.785 14.28 7.78L15.5 6.56L16.72 7.78C17.005 8.08 17.48 8.09 17.78 7.8C18.08 7.51 18.09 7.04 17.8 6.74C17.795 6.735 17.785 6.725 17.78 6.72L16.56 5.5L17.78 4.28C18.08 3.995 18.09 3.52 17.8 3.22C17.655 3.07 17.455 2.985 17.245 2.99ZM7.735 3.495C7.54 3.5 7.355 3.58 7.22 3.72L4.75 6.19L3.78 5.22C3.495 4.92 3.02 4.91 2.72 5.2C2.42 5.49 2.41 5.96 2.7 6.26C2.705 6.265 2.715 6.275 2.72 6.28L4.22 7.78C4.515 8.075 4.99 8.075 5.28 7.78L8.28 4.78C8.575 4.49 8.585 4.015 8.295 3.72C8.15 3.57 7.945 3.485 7.735 3.495ZM3.25 9C2.835 8.995 2.495 9.325 2.49 9.74C2.485 10.155 2.815 10.495 3.23 10.5C3.235 10.5 3.245 10.5 3.25 10.5H7.75C8.165 10.505 8.505 10.175 8.51 9.76C8.515 9.345 8.185 9.005 7.77 9C7.765 9 7.755 9 7.75 9H3.25ZM13.25 9C12.835 8.995 12.495 9.325 12.49 9.74C12.485 10.155 12.815 10.495 13.23 10.5C13.235 10.5 13.245 10.5 13.25 10.5H17.75C18.165 10.505 18.505 10.175 18.51 9.76C18.515 9.345 18.185 9.005 17.77 9C17.765 9 17.755 9 17.75 9H13.25ZM3.25 11.5C2.835 11.495 2.495 11.825 2.49 12.24C2.485 12.655 2.815 12.995 3.23 13C3.235 13 3.245 13 3.25 13H7.75C8.165 13.005 8.505 12.675 8.51 12.26C8.515 11.845 8.185 11.505 7.77 11.5C7.765 11.5 7.755 11.5 7.75 11.5H3.25ZM13.25 11.5C12.835 11.495 12.495 11.825 12.49 12.24C12.485 12.655 12.815 12.995 13.23 13C13.235 13 13.245 13 13.25 13H17.75C18.165 13.005 18.505 12.675 18.51 12.26C18.515 11.845 18.185 11.505 17.77 11.5C17.765 11.5 17.755 11.5 17.75 11.5H13.25Z" fill="#04242B"/>
</svg>
