<svg width="20" height="20" viewBox="0 0 20 20" fill="none" xmlns="http://www.w3.org/2000/svg">
<path d="M19.4474 9.10569L1.44744 0.105685C1.27051 0.0171664 1.0713 -0.0168839 0.875019 0.00784163C0.678736 0.0325672 0.494197 0.114958 0.34475 0.244589C0.195304 0.37422 0.0876655 0.545266 0.035454 0.736086C-0.0167574 0.926906 -0.0111957 1.12893 0.0514355 1.31658L2.94594 10.0002L0.0514355 18.6838C-0.0111957 18.8714 -0.0167574 19.0735 0.035454 19.2643C0.0876655 19.4551 0.195304 19.6262 0.34475 19.7558C0.494197 19.8854 0.678736 19.9678 0.875019 19.9925C1.0713 20.0173 1.27051 19.9832 1.44744 19.8947L19.4474 10.8947C19.6136 10.8116 19.7533 10.684 19.851 10.526C19.9486 10.368 20.0004 10.1859 20.0004 10.0002C20.0004 9.81445 19.9486 9.63238 19.851 9.47438C19.7533 9.31639 19.6136 9.18872 19.4474 9.10569ZM2.71204 17.0266L4.72094 11.0002H10.0001C10.2654 11.0002 10.5197 10.8948 10.7072 10.7073C10.8948 10.5198 11.0001 10.2654 11.0001 10.0002C11.0001 9.73497 10.8948 9.48061 10.7072 9.29308C10.5197 9.10554 10.2654 9.00019 10.0001 9.00019H4.72094L2.71204 2.97378L16.7643 10.0002L2.71204 17.0266Z" fill="white"/>
</svg>
