<svg width="21" height="19" viewBox="0 0 21 19" fill="none" xmlns="http://www.w3.org/2000/svg">
<path d="M4.01708 0C2.69208 0 1.61209 0.899997 0.972089 2.15499C0.332091 3.40999 0.0170915 5.07999 0.0170915 6.99998C0.0170915 8.76997 0.38209 10.45 1.15709 11.755C1.22709 11.87 1.31709 11.965 1.39709 12.075C0.777089 12.725 0.297091 13.17 0.297091 13.17C-0.0329083 13.42 -0.0979081 13.89 0.152091 14.22C0.40209 14.55 0.872089 14.615 1.20209 14.365C1.21709 14.355 1.23209 14.34 1.24709 14.33C1.24709 14.33 1.76709 13.865 2.45208 13.185C3.10208 13.68 3.87708 14 4.76708 14C6.61207 14 8.33207 13.065 9.73706 11.825C10.2271 12.215 10.8071 12.5 11.5171 12.5C12.3921 12.5 13.1221 12.045 13.647 11.48C14.172 10.915 14.547 10.23 14.857 9.57497C15.037 9.18997 15.157 8.89997 15.297 8.56497C15.312 8.66997 15.322 8.73497 15.337 8.84497C15.402 9.35997 15.477 9.89497 15.662 10.39C15.757 10.635 15.877 10.885 16.092 11.105C16.307 11.325 16.657 11.5 17.017 11.5C17.487 11.5 17.922 11.2 18.142 10.905C18.362 10.61 18.477 10.315 18.607 10.02C18.867 9.42997 19.137 8.82997 19.747 8.32498C20.067 8.05998 20.107 7.58498 19.842 7.26998C19.577 6.95498 19.102 6.90998 18.787 7.17498C17.897 7.91998 17.497 8.81997 17.237 9.41997C17.152 9.60997 17.107 9.68497 17.052 9.79497C16.962 9.52997 16.882 9.11497 16.827 8.65997C16.767 8.17498 16.722 7.66998 16.632 7.22498C16.587 6.99998 16.537 6.79498 16.407 6.55998C16.272 6.32998 15.942 5.99998 15.517 5.99998C15.007 5.99998 14.772 6.31998 14.622 6.52998C14.472 6.73998 14.362 6.96498 14.247 7.21998C14.017 7.72498 13.7821 8.33498 13.5021 8.92997C13.2221 9.51997 12.8921 10.085 12.5471 10.46C12.2021 10.835 11.8971 11 11.5171 11C11.2171 11 10.9771 10.905 10.7571 10.76C12.0671 9.27497 13.0171 7.57498 13.0171 5.99998C13.0171 5.45998 12.8571 4.89499 12.4971 4.39999C12.1371 3.90999 11.5171 3.49999 10.7671 3.49999C9.84206 3.49999 9.03706 4.05499 8.60707 4.83999C8.17707 5.61998 8.01707 6.60498 8.01707 7.74998C8.01707 8.64997 8.23207 9.70497 8.73207 10.63C7.51207 11.695 6.09707 12.5 4.76708 12.5C4.25208 12.5 3.81208 12.355 3.42208 12.085C5.06708 10.18 7.01707 7.28498 7.01707 3.74999C7.01707 3.12499 6.88207 2.29499 6.45707 1.515C6.03207 0.734998 5.17708 0 4.01708 0ZM4.01708 1.5C4.60708 1.5 4.88208 1.76499 5.14208 2.23499C5.40208 2.70499 5.51708 3.37499 5.51708 3.74999C5.51708 6.59498 3.86708 9.13997 2.41208 10.9C1.85209 9.91497 1.51709 8.51498 1.51709 6.99998C1.51709 5.24998 1.82709 3.78499 2.31208 2.83999C2.79708 1.89499 3.33708 1.5 4.01708 1.5ZM10.7671 4.99999C11.0171 4.99999 11.1421 5.08998 11.2871 5.28498C11.4271 5.47998 11.5171 5.78998 11.5171 5.99998C11.5171 6.86998 10.8371 8.21498 9.87206 9.43997C9.66206 8.87497 9.51706 8.25998 9.51706 7.74998C9.51706 6.75998 9.68706 5.99498 9.92206 5.55998C10.1621 5.12498 10.3521 4.99999 10.7671 4.99999ZM0.767089 17.4999C0.352091 17.4949 0.0120915 17.8249 0.00709156 18.2399C-0.00290841 18.6549 0.327091 18.9949 0.742089 18.9999C0.747089 18.9999 0.757089 18.9999 0.762089 18.9999H19.262C19.677 19.0049 20.017 18.6749 20.022 18.2599C20.027 17.8449 19.697 17.5049 19.282 17.4999C19.277 17.4999 19.267 17.4999 19.262 17.4999H0.767089Z" fill="#04242B"/>
</svg>
