<svg width="17" height="20" viewBox="0 0 17 20" fill="none" xmlns="http://www.w3.org/2000/svg">
<path d="M2.3 0C1 0 0 1 0 2.3V17.8C0 19 1 20 2.3 20H13.8C15 20 16.1 19 16.1 17.7V7.3C16.1 7.1 16 6.9 15.9 6.8L9.3 0.2C9.1 0.1 8.9 0 8.8 0H2.3ZM2.3 1.5H8V5.8C8 7 9 8 10.3 8H14.6V17.8C14.6 18.2 14.3 18.6 13.8 18.6H2.3C1.9 18.6 1.5 18.3 1.5 17.8V2.3C1.5 1.8 1.8 1.5 2.3 1.5ZM9.5 2.6L13.4 6.5H10.2C9.8 6.5 9.4 6.2 9.4 5.7V2.6H9.5ZM4.8 10.5C4.4 10.5 4 10.8 4 11.2C4 11.7 4.3 12 4.7 12H11.2C11.6 12 12 11.7 12 11.3C12 10.9 11.7 10.5 11.3 10.5H4.8ZM4.8 14C4.3 14 4 14.3 4 14.7C4 15.1 4.3 15.5 4.7 15.5H9.2C9.6 15.5 10 15.2 10 14.8C10 14.4 9.7 14 9.3 14H4.8Z" fill="#04242B"/>
</svg>
