<svg width="39" height="41" viewBox="0 0 39 41" fill="none" xmlns="http://www.w3.org/2000/svg">
<path d="M22.6 0C20.8 0 19.4 1 18.6 2.4C17.8 2.2 17.2 2 16.6 2C14 2 12 4 12 6.6V25C10.6 24.2 8.8 23.2 7.4 22.6C6.6 22.2 5.8 22 5 22C3 22 1.4 23 0.8 24.2C0.2 25.2 0 26.2 0 26.2C0 26.6 0.2 27.2 0.4 27.4C0.4 27.4 8.8 35 11 37.4C13 39.4 15.6 41 18.8 41H27.4C33.8 41 39 35.8 39 29.6V10.6C39 8.2 37 6 34.4 6C33.8 6 33.4 6.2 32.8 6.2C32.8 4 30.8 2 28.6 2C27.8 2 27.2 2.2 26.6 2.6C25.8 1 24.2 0 22.6 0ZM22.6 3C23.4 3 24.2 3.6 24.2 4.6V6.6V19.6C24.2 20.4 24.8 21.2 25.6 21.2C26.4 21.2 27.2 20.6 27.2 19.8V6.6C27.2 5.8 27.8 5 28.8 5C29.6 5 30.4 5.6 30.4 6.6V10.6V20.6C30.4 21.4 31 22.2 31.8 22.2C32.6 22.2 33.4 21.6 33.4 20.8V10.8C33.4 10 34 9.2 35 9.2C36 9.2 36 9.6 36 10.6V29.6C36 34.4 32.2 38.2 27.4 38H18.8C16.8 38 14.8 37 13.4 35.4C10.8 32.8 4.2 26.8 3.2 26C3.2 26 3.2 26 3.2 25.8C3.4 25.4 3.8 25 5 25C5.4 25 5.8 25 6.2 25.2C7.4 25.6 9.8 27 11.2 28C12.8 29 15 27.6 15 25.8V6.6C15 5.8 15.6 5 16.6 5C17.4 5 18 5.6 18 6.6V19.6C18 20.4 18.6 21.2 19.4 21.2C20.2 21.2 21 20.6 21 19.8V6.6V4.6C21 3.6 21.6 3 22.6 3ZM28.4 24C28 24 27.6 24.2 27.4 24.4L25 26.8L22.6 24.4C22.4 24.2 22 24 21.6 24C20.8 24 20.2 24.6 20.2 25.6C20.2 26 20.4 26.4 20.6 26.6L23 29L20.6 31.4C20 32 20 33 20.6 33.6C21.2 34.2 22.2 34.2 22.8 33.6L25.2 31.2L27.6 33.6C28.2 34.2 29.2 34.2 29.8 33.6C30.4 33 30.4 32 29.8 31.4L27.4 29L29.8 26.6C30.4 26 30.4 25 29.8 24.4C29.4 24.2 29 24 28.4 24Z" fill="white"/>
</svg>
