<svg width="21" height="20" viewBox="0 0 21 20" fill="none" xmlns="http://www.w3.org/2000/svg">
<path d="M3.3 0C1.5 0 0 1.5 0 3.3V11.8C0 13.5 1.5 15 3.3 15H4V17.8C4 18.8 5.2 19.4 6 18.8L11 15H16.8C18.6 15 20.1 13.5 20.1 11.7V3.3C20 1.5 18.5 0 16.8 0H3.3ZM3.3 1.5H16.8C17.8 1.5 18.6 2.3 18.6 3.3V11.8C18.6 12.8 17.8 13.6 16.8 13.6H10.8C10.6 13.6 10.5 13.7 10.3 13.8L5.5 17.4V14.4C5.5 14 5.2 13.7 4.7 13.6H3.3C2.3 13.6 1.5 12.8 1.5 11.8V3.3C1.5 2.3 2.3 1.5 3.3 1.5ZM5.8 5C5.3 5 5 5.3 5 5.7C5 6.1 5.3 6.5 5.7 6.5H14.2C14.6 6.5 15 6.2 15 5.8C15 5.3 14.7 5 14.3 5H5.8ZM5.8 8.5C5.3 8.5 5 8.8 5 9.2C5 9.7 5.3 10 5.7 10H12.2C12.6 10 13 9.7 13 9.3C13 8.9 12.7 8.5 12.3 8.5H5.8Z" fill="#04242B"/>
</svg>
