<svg width="20" height="20" viewBox="0 0 20 20" fill="none" xmlns="http://www.w3.org/2000/svg">
<path d="M19.5 14H8C6.9 14 6 13.1 6 12V0.5C6 0.22 5.78 0 5.5 0C5.22 0 5 0.22 5 0.5V5H0.5C0.22 5 0 5.22 0 5.5C0 5.78 0.22 6 0.5 6H5V12C5 13.66 6.34 15 8 15H15V19.5C15 19.78 15.22 20 15.5 20C15.78 20 16 19.78 16 19.5V15H19.5C19.78 15 20 14.78 20 14.5C20 14.22 19.78 14 19.5 14Z" fill="#FF4460"/>
<path d="M7.5 6H13C14.1 6 15 6.9 15 8V12.5C15 12.78 15.22 13 15.5 13C15.78 13 16 12.78 16 12.5V8C16 6.34 14.66 5 13 5H7.5C7.22 5 7 5.22 7 5.5C7 5.78 7.22 6 7.5 6Z" fill="#FF4460"/>
<path d="M19.0003 0H16.4103C15.5203 0 15.0703 1.08 15.7003 1.71L18.2903 4.3C18.9203 4.92 20.0003 4.48 20.0003 3.59V1C20.0003 0.45 19.5503 0 19.0003 0Z" fill="#FF4460"/>
<path d="M1.71 15.7105C1.08 15.0805 0 15.5205 0 16.4105V19.0005C0 19.5505 0.45 20.0005 1 20.0005H3.59C4.48 20.0005 4.93 18.9205 4.3 18.2905L1.71 15.7105Z" fill="#FF4460"/>
</svg>
