<svg width="22" height="22" viewBox="0 0 22 22" fill="none" xmlns="http://www.w3.org/2000/svg">
<path d="M3.0025 0C2.7425 0 2.4925 0.1 2.2925 0.29L0.2925 2.29C-0.0975 2.68 -0.0975 3.31 0.2925 3.7L7.5925 11L0.3025 18.29C-0.0875 18.68 -0.0875 19.31 0.3025 19.7L2.3025 21.7C2.6925 22.09 3.3225 22.09 3.7125 21.7L11.0025 14.41L18.2925 21.7C18.6825 22.09 19.3125 22.09 19.7025 21.7L21.7025 19.7C22.0925 19.31 22.0925 18.68 21.7025 18.29L14.4125 11L21.7025 3.71C22.0925 3.32 22.0925 2.69 21.7025 2.3L19.7025 0.3C19.3125 -0.09 18.6825 -0.09 18.2925 0.3L11.0025 7.59L3.7125 0.29C3.5125 0.1 3.2625 0 3.0025 0Z" fill="#FF4460"/>
</svg>
