<svg width="18" height="15" viewBox="0 0 18 15" fill="none" xmlns="http://www.w3.org/2000/svg">
<path d="M9 0C8.29286 0 7.71429 0.578571 7.71429 1.28571C7.71429 1.76143 7.97786 2.19857 8.39571 2.41714L5.85 7.18714L2.39143 5.14929C2.50714 4.95643 2.57143 4.73143 2.57143 4.5C2.57143 3.79286 1.99286 3.21429 1.28571 3.21429C0.578571 3.21429 0 3.79286 0 4.5C0 5.20714 0.578571 5.78571 1.28571 5.78571C1.33071 5.78571 1.36929 5.78571 1.41429 5.77929L1.92857 10.9286H3.85714H12.2143H14.1429H16.0714L16.5857 5.77929C16.6307 5.78571 16.6693 5.78571 16.7143 5.78571C17.4214 5.78571 18 5.20714 18 4.5C18 3.79286 17.4214 3.21429 16.7143 3.21429C16.0071 3.21429 15.4286 3.79286 15.4286 4.5C15.4286 4.73143 15.4929 4.95643 15.6086 5.14929L12.15 7.18714L9.60429 2.41714C10.0221 2.19857 10.2857 1.76143 10.2857 1.28571C10.2857 0.578571 9.70714 0 9 0ZM1.92857 12.2143V13.5C1.92857 14.2071 2.50071 14.7857 3.21429 14.7857H14.7857C15.4929 14.7857 16.0714 14.2071 16.0714 13.5V12.2143H1.92857Z" fill="url(#paint0_linear_7_26735)"/>
<path d="M9 0C8.29286 0 7.71429 0.578571 7.71429 1.28571C7.71429 1.76143 7.97786 2.19857 8.39571 2.41714L5.85 7.18714L2.39143 5.14929C2.50714 4.95643 2.57143 4.73143 2.57143 4.5C2.57143 3.79286 1.99286 3.21429 1.28571 3.21429C0.578571 3.21429 0 3.79286 0 4.5C0 5.20714 0.578571 5.78571 1.28571 5.78571C1.33071 5.78571 1.36929 5.78571 1.41429 5.77929L1.92857 10.9286H3.85714H12.2143H14.1429H16.0714L16.5857 5.77929C16.6307 5.78571 16.6693 5.78571 16.7143 5.78571C17.4214 5.78571 18 5.20714 18 4.5C18 3.79286 17.4214 3.21429 16.7143 3.21429C16.0071 3.21429 15.4286 3.79286 15.4286 4.5C15.4286 4.73143 15.4929 4.95643 15.6086 5.14929L12.15 7.18714L9.60429 2.41714C10.0221 2.19857 10.2857 1.76143 10.2857 1.28571C10.2857 0.578571 9.70714 0 9 0ZM1.92857 12.2143V13.5C1.92857 14.2071 2.50071 14.7857 3.21429 14.7857H14.7857C15.4929 14.7857 16.0714 14.2071 16.0714 13.5V12.2143H1.92857Z" fill="#FFCA41" fill-opacity="0.4"/>
<defs>
<linearGradient id="paint0_linear_7_26735" x1="-9.97814" y1="-31.7618" x2="28.4744" y2="-18.5802" gradientUnits="userSpaceOnUse">
<stop offset="0.494921" stop-color="#976123"/>
<stop offset="0.563768" stop-color="#E8B945"/>
<stop offset="0.637897" stop-color="#FFF1A8"/>
<stop offset="0.706377" stop-color="#E1A94A"/>
<stop offset="0.760947" stop-color="#E1A94A"/>
<stop offset="0.843565" stop-color="#BA812B"/>
<stop offset="0.930386" stop-color="#FFF1A8"/>
<stop offset="1" stop-color="#E8B945"/>
</linearGradient>
</defs>
</svg>
