<svg width="22" height="22" viewBox="0 0 22 22" fill="none" xmlns="http://www.w3.org/2000/svg">
<path d="M7.3 0C4.5 0 2.3 2.2 2.3 5C2.3 7.8 4.5 10 7.3 10C10.1 10 12.3 7.8 12.3 5C12.3 2.2 10 0 7.3 0ZM7.3 1.5C9.2 1.5 10.8 3.1 10.8 5C10.8 6.9 9.2 8.5 7.3 8.5C5.4 8.5 3.8 6.9 3.8 5C3.8 3.1 5.3 1.5 7.3 1.5ZM16.3 11C13.3 11 10.8 13.5 10.8 16.5C10.8 19.5 13.3 22 16.3 22C19.3 22 21.8 19.5 21.8 16.5C21.8 13.5 19.3 11 16.3 11ZM1.9 12C0.9 12 0 12.9 0 14V14.8C0 16.4 0.8 17.9 2.4 18.8C3.7 19.6 5.4 20 7.3 20C8.4 20 9.5 19.8 10.5 19.5C10.3 19.1 10.1 18.6 10 18.1C9.2 18.4 8.2 18.5 7.3 18.5C4.5 18.5 1.5 17.3 1.5 14.7V14C1.5 13.7 1.7 13.5 1.9 13.5H10.5C10.8 12.9 11.2 12.4 11.6 12H1.9ZM13.8 13.5C13.9 13.5 14.1 13.5 14.2 13.6L16.3 15.7L18.4 13.6C18.6 13.4 18.9 13.4 19.1 13.6C19.3 13.8 19.3 14.1 19.1 14.3L17 16.5L19.1 18.6C19.3 18.8 19.3 19.1 19.1 19.3C19 19.4 18.9 19.4 18.7 19.4C18.5 19.4 18.4 19.4 18.3 19.3L16.2 17.2L14.1 19.3C14 19.4 13.9 19.4 13.7 19.4C13.5 19.4 13.4 19.4 13.3 19.3C13.1 19.1 13.1 18.8 13.3 18.6L15.4 16.5L13.3 14.4C13.1 14.2 13.1 13.9 13.3 13.7C13.5 13.5 13.6 13.5 13.8 13.5Z" fill="#FF4460"/>
</svg>
