<svg width="22" height="21" viewBox="0 0 22 21" fill="none" xmlns="http://www.w3.org/2000/svg">
<path d="M8.89778 7.40234C8.91778 7.40234 8.94778 7.40234 8.96778 7.41234C8.97778 7.41234 8.98778 7.41234 8.98778 7.42234V18.1423C8.98778 18.8323 8.18778 19.4123 7.22778 19.4123H1.51778C1.25778 19.4123 1.08778 19.3023 1.01778 19.2223C0.987778 19.1523 0.997778 19.1423 1.01778 19.1023L8.76778 7.43234C8.77778 7.42234 8.80778 7.41234 8.88778 7.40234H8.89778ZM8.89778 6.40234C8.86778 6.40234 8.83778 6.40234 8.80778 6.40234C8.44778 6.43234 8.11778 6.59234 7.93778 6.87234L0.187778 18.5523C-0.0722222 18.9423 -0.0622222 19.4123 0.217778 19.7923C0.497778 20.1723 0.987778 20.4023 1.52778 20.4023H7.24778C8.76778 20.4023 10.0078 19.3823 10.0078 18.1323V7.30234C10.0078 6.88234 9.67778 6.53234 9.17778 6.43234C9.07778 6.41234 8.98778 6.40234 8.89778 6.40234Z" fill="#B3BACF"/>
<path d="M12.188 6.40219C12.548 6.43219 12.878 6.59219 13.058 6.87219L20.818 18.5522C21.078 18.9422 21.068 19.4122 20.788 19.7922C20.508 20.1722 20.018 20.4022 19.478 20.4022H13.758C12.238 20.4022 10.998 19.3822 10.998 18.1322V7.30219C10.998 6.88219 11.328 6.53219 11.828 6.43219C11.948 6.40219 12.068 6.39219 12.188 6.40219Z" fill="#B3BACF"/>
<path d="M20.5674 2.52268L17.8274 0.122676C17.5074 -0.157324 16.9974 0.0726765 16.9974 0.502676V2.40268H3.99738V0.502676C3.99738 0.0726765 3.48738 -0.157324 3.16738 0.122676L0.427383 2.52268C0.197383 2.72268 0.197383 3.07268 0.427383 3.27268L3.16738 5.67268C3.48738 5.96268 3.99738 5.73268 3.99738 5.30268V3.40268H16.9974V5.30268C16.9974 5.73268 17.5074 5.96268 17.8274 5.68268L20.5674 3.28268C20.7974 3.08268 20.7974 2.72268 20.5674 2.52268Z" fill="#B3BACF"/>
</svg>
