<svg width="23" height="23" viewBox="0 0 23 23" fill="none" xmlns="http://www.w3.org/2000/svg">
<path d="M19.725 0C19.31 0.005 18.98 0.345 18.985 0.76C18.985 0.76 18.985 1.265 19 2.01C19 3.265 19.76 4.015 20.26 4.445C20.76 4.875 21 4.99 21 5.745C21 6.455 20.445 7.01 19.75 7.01C19.055 7.01 18.5 6.455 18.5 5.745C18.505 5.33 18.175 4.99 17.76 4.985C17.345 4.98 17.005 5.31 17 5.725C17 5.73 17 5.74 17 5.745C17 7.26 18.24 8.51 19.75 8.51C21.26 8.51 22.5 7.26 22.5 5.745C22.5 4.49 21.74 3.74 21.24 3.31C20.74 2.88 20.5 2.765 20.5 2.01C20.5 2.005 20.5 2 20.5 1.995C20.49 1.25 20.485 0.76 20.485 0.76C20.49 0.345 20.16 0.005 19.745 0C19.74 0 19.73 0 19.725 0ZM10.16 4.015C9.96 4.005 9.765 4.025 9.575 4.06C8.44 4.29 7.515 5.3 7.515 6.555V7.66C6.305 8.195 5.155 9.075 4.17 10.385C4.08 10.505 3.945 10.52 3.81 10.415C3.045 9.81 2.13 9.645 1.365 9.555C1.05 9.52 0.75 9.69 0.61 9.84C0.47 9.99 0.41 10.12 0.355 10.25C0.25 10.51 0.19 10.78 0.145 11.09C0.045 11.71 0 12.49 0 13.27C0 14.055 0.04 14.83 0.14 15.455C0.19 15.765 0.245 16.035 0.355 16.3C0.41 16.43 0.475 16.565 0.62 16.715C0.765 16.865 1.08 17.025 1.385 16.98C2.15 16.87 3.115 16.755 3.895 16.11C4.07 15.965 4.15 15.965 4.245 16.095C5.465 17.705 7.145 18.755 8.985 19.215V19.92C8.985 21.055 9.91 22.015 11.055 22.015C12.94 22.015 14.335 20.59 14.645 18.84C16.605 18.075 18.415 16.635 19.73 14.485C19.735 14.475 19.74 14.47 19.745 14.46C20.06 13.9 20.025 13.25 19.835 12.665C19.645 12.08 19.295 11.515 18.83 10.96C17.955 9.9 16.655 8.88 15.13 8.135C14.325 5.87 12.47 4.625 10.76 4.115C10.56 4.055 10.36 4.02 10.16 4.015ZM10.085 5.51C10.165 5.515 10.25 5.53 10.335 5.555C11.31 5.845 12.295 6.405 13.01 7.335C11.875 7.035 10.68 6.925 9.475 7.095C9.325 7.115 9.175 7.15 9.02 7.185V6.56C9.02 5.925 9.51 5.475 10.085 5.51ZM10.645 8.52C11.605 8.54 12.57 8.78 13.495 9.125C13.135 9.8 12.75 10.705 12.57 11.995C12.35 13.575 12.535 15.56 13.56 17.67C10.575 18.61 7.345 17.69 5.445 15.185C4.84 14.385 3.66 14.355 2.94 14.955C2.7 15.155 2.16 15.245 1.66 15.35C1.65 15.295 1.64 15.285 1.63 15.225C1.545 14.73 1.5 14 1.5 13.275C1.5 12.55 1.55 11.82 1.625 11.32C1.64 11.23 1.65 11.21 1.67 11.135C2.145 11.23 2.59 11.36 2.88 11.585C3.635 12.185 4.78 12.07 5.375 11.285C6.67 9.565 8.15 8.8 9.685 8.575C10.005 8.53 10.325 8.515 10.645 8.52ZM14.855 9.73C16.01 10.365 17.04 11.145 17.675 11.915C18.05 12.37 18.3 12.805 18.405 13.13C18.51 13.455 18.48 13.625 18.43 13.72C17.47 15.28 16.24 16.35 14.91 17.06C14 15.21 13.86 13.54 14.045 12.205C14.21 11.05 14.575 10.245 14.855 9.73ZM15.735 12.01C15.32 12.01 14.985 12.345 14.985 12.76C14.985 13.175 15.32 13.51 15.735 13.51C16.15 13.51 16.485 13.175 16.485 12.76C16.485 12.345 16.15 12.01 15.735 12.01ZM12.935 19.325C12.59 20.055 11.94 20.51 11.05 20.51C10.72 20.51 10.48 20.265 10.48 19.915V19.455C11.295 19.52 12.12 19.48 12.935 19.325Z" fill="#04242B"/>
</svg>
