<svg width="17" height="20" viewBox="0 0 17 20" fill="none" xmlns="http://www.w3.org/2000/svg">
<path d="M8.5 0C3.815 0 0 3.815 0 8.5C0 10.605 0.77 12.53 2.04 14.015L2.045 14.02L2.05 14.025C2.05 14.025 5.665 18.15 6.955 19.38C7.815 20.2 9.195 20.2 10.055 19.38C11.52 17.98 14.96 14.025 14.96 14.025V14.02L14.965 14.015C16.23 12.53 17 10.605 17 8.5C17 3.815 13.185 0 8.5 0ZM8.5 1.5C12.375 1.5 15.5 4.625 15.5 8.5C15.5 10.24 14.865 11.815 13.82 13.04C13.815 13.05 10.295 17.07 9.015 18.29C8.72 18.575 8.28 18.575 7.985 18.29C6.915 17.27 3.19 13.05 3.18 13.04C2.135 11.815 1.5 10.235 1.5 8.5C1.5 4.625 4.625 1.5 8.5 1.5ZM8.5 5.5C7.56 5.5 6.765 5.88 6.25 6.455C5.74 7.03 5.5 7.77 5.5 8.5C5.5 9.23 5.74 9.97 6.25 10.545C6.765 11.12 7.565 11.5 8.5 11.5C9.435 11.5 10.235 11.12 10.75 10.545C11.26 9.97 11.5 9.23 11.5 8.5C11.5 7.77 11.26 7.03 10.75 6.455C10.235 5.88 9.44 5.5 8.5 5.5ZM8.5 7C9.06 7 9.39 7.185 9.625 7.45C9.86 7.715 10 8.105 10 8.5C10 8.895 9.865 9.28 9.625 9.55C9.385 9.82 9.06 10 8.5 10C7.94 10 7.61 9.815 7.375 9.55C7.14 9.285 7 8.895 7 8.5C7 8.105 7.135 7.72 7.375 7.45C7.615 7.18 7.94 7 8.5 7Z" fill="#FF4460"/>
</svg>
