<svg width="20" height="20" viewBox="0 0 20 20" fill="none" xmlns="http://www.w3.org/2000/svg">
<path d="M9.525 0C5.825 0 2.525 1.6 0.225 4.2C-0.075 4.5 -0.075 5 0.225 5.2C0.525 5.4 1.025 5.5 1.325 5.2C3.325 3 6.325 1.5 9.525 1.5C12.725 1.5 15.725 3 17.725 5.2C18.025 5.5 18.425 5.6 18.825 5.3C19.125 5 19.225 4.6 18.925 4.2C16.525 1.6 13.125 0 9.525 0ZM17.725 9C17.425 9 17.125 9.2 17.025 9.6C16.225 12.6 13.025 15 9.525 15C6.025 15 2.825 12.6 2.025 9.6C1.925 9.2 1.625 9 1.325 9C0.925 9 0.525 9.3 0.525 9.7C0.525 9.8 0.525 9.8 0.525 9.9C0.725 10.8 1.125 11.6 1.725 12.4L0.325 13.6C0.025 13.9 -0.075 14.3 0.225 14.7C0.525 15.1 0.925 15.1 1.325 14.8L2.825 13.6C3.325 14.2 3.925 14.7 4.625 15.1L3.725 16.7C3.525 17.1 3.625 17.5 4.025 17.7C4.425 17.9 4.825 17.8 5.025 17.4L5.925 15.8C6.825 16.2 7.725 16.5 8.825 16.5V18.3C8.825 18.7 9.125 19.1 9.525 19.1C9.925 19.1 10.325 18.8 10.325 18.4V16.6C11.325 16.5 12.325 16.2 13.225 15.9L14.225 17.5C14.425 17.9 14.925 18 15.225 17.8C15.525 17.6 15.725 17.1 15.525 16.8L14.425 15C15.125 14.6 15.725 14.1 16.225 13.5L17.725 14.7C18.025 15 18.525 14.9 18.825 14.6C19.125 14.3 19.025 13.8 18.725 13.5L17.325 12.3C17.825 11.5 18.225 10.7 18.525 9.8C18.625 9.4 18.425 9 18.025 8.9C17.925 9 17.825 9 17.725 9Z" fill="#04242B"/>
</svg>
