<svg width="20" height="16" viewBox="0 0 20 16" fill="none" xmlns="http://www.w3.org/2000/svg">
<path d="M2.25 0C1.015 0 0 1.015 0 2.25V13.75C0 14.985 1.015 16 2.25 16H17.75C18.985 16 20 14.985 20 13.75V4.75C20 3.515 18.985 2.5 17.75 2.5H10.02L7.785 0.64C7.29 0.225 6.67 0 6.025 0H2.25ZM2.25 1.5H6.025C6.32 1.5 6.6 1.605 6.825 1.79L9.27 3.825C9.405 3.94 9.575 4 9.75 4H17.75C18.175 4 18.5 4.325 18.5 4.75V13.75C18.5 14.175 18.175 14.5 17.75 14.5H16.56L11.415 9.57C11.02 9.195 10.51 9.005 9.995 9.005C9.485 9.005 8.97 9.195 8.58 9.57L3.44 14.5H2.25C1.825 14.5 1.5 14.175 1.5 13.75V2.25C1.5 1.825 1.825 1.5 2.25 1.5ZM12.75 5.5C12.06 5.5 11.5 6.06 11.5 6.75C11.5 7.44 12.06 8 12.75 8C13.44 8 14 7.44 14 6.75C14 6.06 13.44 5.5 12.75 5.5ZM10 10.495C10.135 10.495 10.27 10.55 10.38 10.65L14.395 14.5H5.605L9.62 10.655C9.73 10.55 9.865 10.495 10 10.495Z" fill="#04242B"/>
</svg>
