<svg width="42" height="36" viewBox="0 0 42 36" fill="none" xmlns="http://www.w3.org/2000/svg">
<path d="M2 0C0.9 0 0 0.9 0 2V30C0 31.1 0.9 32 2 32H28.44C28.4 31.88 28.36 31.76 28.32 31.64C26.72 23 34.48 22 35.62 22L31.34 18.08C29.6 16.48 26.94 16.5 25.22 18.08L17.7 25.26L13.24 21.18C11.54 19.74 9.04 19.74 7.36 21.18L1 26.68V2C1 1.44 1.44 1 2 1H38C38.56 1 39 1.44 39 2V22.88C39.36 23.06 39.68 23.28 40 23.52V2C40 0.9 39.1 0 38 0H2ZM13 6.68C11.3 6.68 9.92 8.06 9.92 9.76C9.92 11.46 11.3 12.84 13 12.84C14.7 12.84 16.08 11.46 16.08 9.76C16.08 8.06 14.7 6.68 13 6.68ZM35.5 23C31.9 23 29 25.9 29 29.5C29 33.1 31.9 36 35.5 36C39.1 36 42 33.1 42 29.5C42 25.9 39.1 23 35.5 23ZM35.5 25.5C35.78 25.5 36 25.72 36 26V29H39C39.28 29 39.5 29.22 39.5 29.5C39.5 29.78 39.28 30 39 30H36V33C36 33.28 35.78 33.5 35.5 33.5C35.22 33.5 35 33.28 35 33V30H32C31.72 30 31.5 29.78 31.5 29.5C31.5 29.22 31.72 29 32 29H35V26C35 25.72 35.22 25.5 35.5 25.5Z" fill="url(#paint0_linear_7_26090)"/>
<defs>
<linearGradient id="paint0_linear_7_26090" x1="0.567567" y1="1.55676" x2="47.9516" y2="14.9606" gradientUnits="userSpaceOnUse">
<stop stop-color="#FF4460"/>
<stop offset="0.53125" stop-color="#AD00FF"/>
<stop offset="0.927083" stop-color="#31CEFF"/>
</linearGradient>
</defs>
</svg>
