<svg width="21" height="21" viewBox="0 0 21 21" fill="none" xmlns="http://www.w3.org/2000/svg">
<path d="M2.75 0C1.235 0 0 1.235 0 2.75V15.25C0 16.765 1.235 18 2.75 18H9.57L9.87 16.95C9.915 16.795 9.98 16.645 10.055 16.5H2.75C2.7 16.5 2.65 16.49 2.6 16.485L8.635 10.645C8.84 10.445 9.16 10.45 9.365 10.645L12.62 13.795L13.68 12.735L10.41 9.57C9.62 8.805 8.385 8.805 7.595 9.57L1.52 15.445C1.51 15.38 1.5 15.315 1.5 15.25V2.75C1.5 2.06 2.06 1.5 2.75 1.5H15.25C15.94 1.5 16.5 2.06 16.5 2.75V9.92C16.925 9.51 17.44 9.23 18 9.095V2.75C18 1.235 16.765 0 15.25 0H2.75ZM12.25 3.5C11.56 3.5 10.95 3.785 10.565 4.22C10.175 4.655 10 5.21 10 5.75C10 6.29 10.175 6.845 10.565 7.28C10.95 7.715 11.565 8 12.25 8C12.935 8 13.55 7.715 13.935 7.28C14.32 6.845 14.5 6.29 14.5 5.75C14.5 5.21 14.325 4.655 13.935 4.22C13.55 3.785 12.94 3.5 12.25 3.5ZM12.25 5C12.56 5 12.7 5.09 12.815 5.215C12.93 5.34 13 5.54 13 5.75C13 5.96 12.925 6.155 12.815 6.285C12.705 6.415 12.56 6.5 12.25 6.5C11.94 6.5 11.8 6.41 11.685 6.285C11.57 6.16 11.5 5.96 11.5 5.75C11.5 5.54 11.575 5.345 11.685 5.215C11.795 5.085 11.94 5 12.25 5ZM18.755 10C18.18 10 17.605 10.22 17.17 10.655L11.165 16.665C11.01 16.82 10.895 17.015 10.835 17.225L10.03 20.045C9.955 20.305 10.025 20.59 10.22 20.78C10.36 20.925 10.555 21 10.75 21C10.82 21 10.89 20.99 10.955 20.97L13.775 20.165C13.985 20.105 14.18 19.99 14.335 19.835L20.345 13.825C20.77 13.4 21 12.84 21 12.24C21 11.64 20.765 11.08 20.345 10.655C19.905 10.22 19.33 10 18.755 10Z" fill="#04242B"/>
</svg>
