<svg width="22" height="25" viewBox="0 0 22 25" fill="none" xmlns="http://www.w3.org/2000/svg">
<path d="M7 0L6.5 3.49L4.13 7.89C3.44 9.19 2.08 10 0.61 10H0V23H2C3.28 24.28 5.02 25 6.83 25H17C18.1 25 19 24.1 19 23V21.95C20.16 21.71 21 20.69 21 19.5C21 18.89 20.77 18.3 20.37 17.84C21.35 17.48 22 16.54 22 15.5C22 14.71 21.63 13.97 21 13.5C21.63 13.03 22 12.29 22 11.5C22 10.12 20.88 9 19.5 9H10C10 9 11 5.73 11 5C11 2.75 11 0 8 0H7Z" fill="url(#paint0_linear_7_30449)"/>
<defs>
<linearGradient id="paint0_linear_7_30449" x1="13.75" y1="23.2954" x2="0.0942654" y2="4.26847" gradientUnits="userSpaceOnUse">
<stop stop-color="#40C900"/>
<stop offset="1" stop-color="#20E800"/>
</linearGradient>
</defs>
</svg>
