<svg width="21" height="20" viewBox="0 0 21 20" fill="none" xmlns="http://www.w3.org/2000/svg">
<path d="M2.25 0C1.01 0 0 1.01 0 2.25V13.75C0 14.99 1.01 16 2.25 16H9.315C9.16 15.52 9.06 15.02 9.025 14.5H2.25C1.835 14.5 1.5 14.165 1.5 13.75V2.25C1.5 1.835 1.835 1.5 2.25 1.5H17.75C18.165 1.5 18.5 1.835 18.5 2.25V8.235C19.05 8.52 19.555 8.885 20 9.315V2.25C20 1.01 18.99 0 17.75 0H2.25ZM6 4.5C5.17 4.5 4.5 5.17 4.5 6C4.5 6.83 5.17 7.5 6 7.5C6.83 7.5 7.5 6.83 7.5 6C7.5 5.17 6.83 4.5 6 4.5ZM11.25 5.5C10.835 5.495 10.495 5.825 10.49 6.24C10.485 6.655 10.815 6.995 11.23 7C11.235 7 11.245 7 11.25 7H15.75C16.165 7.005 16.505 6.675 16.51 6.26C16.515 5.845 16.185 5.505 15.77 5.5C15.765 5.5 15.755 5.5 15.75 5.5H11.25ZM4.25 8.5C3.835 8.5 3.5 8.835 3.5 9.25C3.5 10 3.5 11.5 5.95 11.5H6.05C8.5 11.5 8.5 10 8.5 9.25C8.5 8.835 8.165 8.5 7.75 8.5H4.25ZM15.5 8.5C12.46 8.5 10 10.96 10 14C10 17.04 12.46 19.5 15.5 19.5C18.54 19.5 21 17.04 21 14C21 10.96 18.54 8.5 15.5 8.5ZM18.5 11.5C18.63 11.5 18.755 11.55 18.855 11.645C19.05 11.84 19.05 12.155 18.855 12.35L14.855 16.35C14.755 16.45 14.63 16.5 14.5 16.5C14.37 16.5 14.245 16.45 14.145 16.355L12.145 14.355C11.95 14.16 11.95 13.845 12.145 13.65C12.34 13.455 12.655 13.455 12.85 13.65L14.5 15.295L18.145 11.65C18.245 11.55 18.37 11.5 18.5 11.5Z" fill="#04242B"/>
</svg>
