<svg width="20" height="16" viewBox="0 0 20 16" fill="none" xmlns="http://www.w3.org/2000/svg">
<path d="M2.25 0C1.015 0 0 1.015 0 2.25V13.75C0 14.985 1.015 16 2.25 16H17.75C18.985 16 20 14.985 20 13.75V2.25C20 1.015 18.985 0 17.75 0H2.25ZM2.25 1.5H17.75C18.175 1.5 18.5 1.825 18.5 2.25V13.75C18.5 14.175 18.175 14.5 17.75 14.5H2.25C1.825 14.5 1.5 14.175 1.5 13.75V2.25C1.5 1.825 1.825 1.5 2.25 1.5ZM6 4.5C5.17 4.5 4.5 5.17 4.5 6C4.5 6.83 5.17 7.5 6 7.5C6.83 7.5 7.5 6.83 7.5 6C7.5 5.17 6.83 4.5 6 4.5ZM11.25 5.5C10.835 5.495 10.495 5.825 10.49 6.24C10.485 6.655 10.815 6.995 11.23 7C11.235 7 11.245 7 11.25 7H15.75C16.165 7.005 16.505 6.675 16.51 6.26C16.515 5.845 16.185 5.505 15.77 5.5C15.765 5.5 15.755 5.5 15.75 5.5H11.25ZM4.25 8.5C3.835 8.5 3.5 8.835 3.5 9.25C3.5 10 3.5 11.5 5.95 11.5H6.05C8.5 11.5 8.5 10 8.5 9.25C8.5 8.835 8.165 8.5 7.75 8.5H4.25ZM11.25 9C10.835 8.995 10.495 9.325 10.49 9.74C10.485 10.155 10.815 10.495 11.23 10.5C11.235 10.5 11.245 10.5 11.25 10.5H15.75C16.165 10.505 16.505 10.175 16.51 9.76C16.515 9.345 16.185 9.005 15.77 9C15.765 9 15.755 9 15.75 9H11.25Z" fill="#FF4460"/>
</svg>
