<svg width="20" height="20" viewBox="0 0 20 20" fill="none" xmlns="http://www.w3.org/2000/svg">
<path d="M10 0C8.6 0 7.4 0.8 6.7 2C5.4 1.5 3.9 1.8 2.8 2.8C1.8 3.8 1.5 5.4 2 6.7C0.8 7.4 0 8.6 0 10C0 11.4 0.8 12.6 2 13.3C1.5 14.6 1.8 16.1 2.8 17.2C3.8 18.2 5.4 18.5 6.7 18C7.3 19.2 8.5 20 10 20C11.4 20 12.6 19.2 13.3 18C14.6 18.5 16.1 18.2 17.2 17.2C18.2 16.2 18.5 14.6 18 13.3C19.2 12.7 20 11.5 20 10C20 8.6 19.2 7.4 18 6.7C18.5 5.4 18.2 3.9 17.2 2.8C16.2 1.8 14.6 1.5 13.3 2C12.6 0.8 11.4 0 10 0ZM10 1.5C11 1.5 11.9 2.2 12.2 3.2C12.3 3.6 12.7 3.8 13.1 3.7C13.2 3.7 13.2 3.6 13.3 3.6C14.2 3 15.3 3.1 16.1 3.9C16.9 4.7 17 5.8 16.4 6.7C16.2 7 16.3 7.5 16.6 7.7C16.7 7.7 16.7 7.8 16.8 7.8C17.8 8.1 18.5 8.9 18.5 10C18.5 11.1 17.8 11.9 16.8 12.2C16.4 12.3 16.2 12.7 16.3 13.1C16.3 13.2 16.4 13.2 16.4 13.3C17 14.2 16.9 15.3 16.1 16.1C15.3 16.9 14.2 17 13.3 16.4C13 16.2 12.5 16.3 12.3 16.6C12.3 16.7 12.2 16.7 12.2 16.8C11.9 17.8 11.1 18.5 10 18.5C8.9 18.5 8.1 17.8 7.8 16.8C7.7 16.4 7.3 16.2 6.9 16.3C6.8 16.3 6.8 16.4 6.7 16.4C5.8 17 4.7 16.9 3.9 16.1C3.1 15.3 3 14.2 3.6 13.3C3.8 13 3.7 12.5 3.4 12.3C3.3 12.3 3.3 12.2 3.2 12.2C2.2 11.9 1.5 11.1 1.5 10C1.5 8.9 2.2 8.1 3.2 7.8C3.6 7.7 3.8 7.3 3.7 6.9C3.7 6.8 3.6 6.8 3.6 6.7C3 5.8 3.1 4.7 3.9 3.9C4.7 3.1 5.8 3 6.7 3.6C7 3.8 7.5 3.7 7.7 3.4C7.7 3.3 7.8 3.3 7.8 3.2C8.1 2.2 9 1.5 10 1.5ZM13.7 7C13.5 7 13.3 7.1 13.2 7.2L8.7 11.7L6.7 9.7C6.5 9.4 6 9.4 5.7 9.7C5.4 10 5.4 10.5 5.7 10.8L8.2 13.3C8.5 13.6 9 13.6 9.3 13.3L14.3 8.3C14.6 8 14.6 7.5 14.3 7.2C14.1 7.1 13.9 7 13.7 7Z" fill="#04242B"/>
</svg>
