<svg width="20" height="20" viewBox="0 0 20 20" fill="none" xmlns="http://www.w3.org/2000/svg">
<path d="M5.24633 0.000220969C5.05133 0.00522091 4.86634 0.08522 4.73134 0.225218L2.26137 2.69519L1.29138 1.7252C1.00638 1.4252 0.531387 1.4152 0.23139 1.7052C-0.0686062 1.9952 -0.0786061 2.46519 0.211391 2.76519C0.21639 2.77019 0.22639 2.78019 0.23139 2.78519L1.73137 4.28517C2.02637 4.58017 2.50136 4.58017 2.79136 4.28517L5.79133 1.28521C6.08632 0.995209 6.09632 0.520215 5.80632 0.225218C5.66133 0.0752201 5.45633 -0.00477897 5.24633 0.000220969ZM8.2613 2.0052C7.8463 2.0002 7.50631 2.33019 7.50131 2.74519C7.49631 3.16018 7.8263 3.50018 8.2413 3.50518C8.2463 3.50518 8.2563 3.50518 8.2613 3.50518H18.7612C19.1762 3.51018 19.5162 3.18018 19.5212 2.76519C19.5262 2.35019 19.1962 2.0102 18.7812 2.0052C18.7762 2.0052 18.7662 2.0052 18.7612 2.0052H8.2613ZM4.75634 5.99515C4.55634 6.00015 4.37134 6.08515 4.23134 6.22515L3.01136 7.44513L1.79137 6.22515C1.65137 6.08015 1.45638 6.00015 1.25638 6.00015C0.841383 6.00015 0.506387 6.33515 0.506387 6.75014C0.506387 6.95514 0.586386 7.14514 0.731385 7.29014L1.95137 8.51012L0.731385 9.73011C0.431388 10.0151 0.421388 10.4901 0.711385 10.7901C1.00138 11.0901 1.47138 11.1001 1.77137 10.8101C1.77637 10.8051 1.78637 10.7951 1.79137 10.7901L3.01136 9.57011L4.23134 10.7901C4.51634 11.0901 4.99133 11.1001 5.29133 10.8101C5.59133 10.5201 5.60133 10.0501 5.31133 9.75011C5.30633 9.74511 5.29633 9.73511 5.29133 9.73011L4.07135 8.51012L5.29133 7.29014C5.59133 7.00514 5.60133 6.53014 5.31133 6.23015C5.16633 6.07515 4.96634 5.99015 4.75634 5.99515ZM8.2613 8.00513C7.8463 8.00013 7.50631 8.33012 7.50131 8.74512C7.49631 9.16011 7.8263 9.50011 8.2413 9.50511C8.2463 9.50511 8.2563 9.50511 8.2613 9.50511H18.7612C19.1762 9.51011 19.5162 9.18011 19.5212 8.76512C19.5262 8.35012 19.1962 8.01013 18.7812 8.00513C18.7762 8.00513 18.7662 8.00513 18.7612 8.00513H8.2613ZM3.01136 12.0051C2.05137 12.0051 1.23638 12.6901 1.05138 13.6051C0.961382 14.0101 1.21138 14.4101 1.61637 14.5001C2.02137 14.5901 2.42137 14.3401 2.51136 13.9351C2.51136 13.9251 2.51636 13.9151 2.51636 13.9051C2.56136 13.6801 2.75636 13.5051 3.00636 13.5051C3.29135 13.5051 3.50635 13.7201 3.50635 14.0051C3.50635 14.3301 3.32635 14.5601 3.00136 14.86C2.84136 15.01 2.65636 15.15 2.47136 15.33C2.28637 15.51 2.01137 15.755 2.01137 16.255C2.00637 16.67 2.34137 17.01 2.75136 17.015C3.09636 17.02 3.40135 16.785 3.48635 16.45C3.48635 16.45 3.48135 16.445 3.51635 16.41C3.61135 16.315 3.80135 16.16 4.01635 15.97C4.44134 15.58 5.01133 14.935 5.01133 14.0101C5.01133 12.9101 4.10635 12.0051 3.01136 12.0051ZM8.2613 14.5051C7.8463 14.5001 7.50631 14.83 7.50131 15.245C7.49631 15.66 7.8263 16 8.2413 16.005C8.2463 16.005 8.2563 16.005 8.2613 16.005H18.7612C19.1762 16.01 19.5162 15.68 19.5212 15.265C19.5262 14.85 19.1962 14.5101 18.7812 14.5051C18.7762 14.5051 18.7662 14.5051 18.7612 14.5051H8.2613ZM2.76136 17.505C2.34637 17.505 2.01137 17.84 2.01137 18.255C2.01137 18.67 2.34637 19.005 2.76136 19.005C3.17636 19.005 3.51135 18.67 3.51135 18.255C3.51135 17.84 3.17636 17.505 2.76136 17.505Z" fill="#04242B"/>
</svg>
