<svg width="22" height="19" viewBox="0 0 22 19" fill="none" xmlns="http://www.w3.org/2000/svg">
<path d="M5.575 0C5.375 0 5.075 0.1 4.975 0.4L0.075 9.1C-0.025 9.4 -0.025 9.6 0.075 9.9L4.975 18.6C5.075 18.9 5.375 19 5.575 19H15.375C15.675 19 15.875 18.9 16.075 18.6L20.975 9.8C21.075 9.6 21.075 9.3 20.975 9.1L15.975 0.4C15.875 0.1 15.575 0 15.375 0H5.575ZM6.075 1.5H14.975L19.475 9.5L14.975 17.5H6.075L1.575 9.5L6.075 1.5ZM10.475 4.5C10.075 4.5 9.775 4.8 9.775 5.3V10.3C9.775 10.7 10.075 11.1 10.475 11.1C10.875 11.1 11.275 10.8 11.275 10.4V5.4C11.275 4.8 10.875 4.5 10.475 4.5ZM10.475 12.5C9.875 12.5 9.475 12.9 9.475 13.5C9.475 14.1 9.875 14.5 10.475 14.5C11.075 14.5 11.475 14.1 11.475 13.5C11.475 12.9 11.075 12.5 10.475 12.5Z" fill="#04242B"/>
</svg>
