<svg width="19" height="19" viewBox="0 0 19 19" fill="none" xmlns="http://www.w3.org/2000/svg">
<path d="M7.24944 0C3.25475 0 0 3.25475 0 7.24944C0 11.2441 3.25475 14.4989 7.24944 14.4989C8.97931 14.4989 10.5642 13.8889 11.8141 12.874L16.7187 17.7786C17.0037 18.0786 17.4786 18.0886 17.7786 17.7986C18.0786 17.5086 18.0886 17.0387 17.7986 16.7387C17.7936 16.7337 17.7836 16.7237 17.7786 16.7187L12.874 11.8141C13.8889 10.5642 14.4989 8.97931 14.4989 7.24944C14.4989 3.25475 11.2441 0 7.24944 0ZM7.24944 1.49988C10.4342 1.49988 12.999 4.06469 12.999 7.24944C12.999 8.79932 12.389 10.2042 11.3941 11.2341C11.3341 11.2791 11.2791 11.3341 11.2341 11.3941C10.2042 12.389 8.79932 12.999 7.24944 12.999C4.06469 12.999 1.49988 10.4342 1.49988 7.24944C1.49988 4.06469 4.06469 1.49988 7.24944 1.49988ZM7.24944 3.49973C6.28451 3.49973 5.49957 4.28467 5.49957 5.24959C5.49957 6.21452 6.28451 6.99946 7.24944 6.99946C8.21437 6.99946 8.9993 6.21452 8.9993 5.24959C8.9993 4.28467 8.21437 3.49973 7.24944 3.49973ZM4.72463 7.99938C4.32467 7.99938 3.99969 8.34935 3.99969 8.74932V8.87431C3.99969 9.98423 5.1696 10.9991 7.24944 10.9991C9.32928 10.9991 10.4992 9.98423 10.4992 8.87431V8.74932C10.4992 8.34935 10.1742 7.99938 9.77424 7.99938H4.72463Z" fill="#04242B"/>
</svg>
