<svg width="18" height="12" viewBox="0 0 18 12" fill="none" xmlns="http://www.w3.org/2000/svg">
<path d="M17.5 9H14.95C14.72 7.86 13.71 7 12.5 7C11.12 7 10 8.12 10 9.5C10 10.88 11.12 12 12.5 12C13.71 12 14.72 11.14 14.95 10H17.5C17.78 10 18 9.78 18 9.5C18 9.22 17.78 9 17.5 9ZM12.5 11C11.67 11 11 10.33 11 9.5C11 8.67 11.67 8 12.5 8C13.33 8 14 8.67 14 9.5C14 10.33 13.33 11 12.5 11Z" fill="#B3BACF"/>
<path d="M8.5 9H0.5C0.22 9 0 9.22 0 9.5C0 9.78 0.22 10 0.5 10H8.5C8.78 10 9 9.78 9 9.5C9 9.22 8.78 9 8.5 9Z" fill="#B3BACF"/>
<path d="M18 2.5C18 2.22 17.78 2 17.5 2H9.5C9.22 2 9 2.22 9 2.5C9 2.78 9.22 3 9.5 3H17.5C17.78 3 18 2.78 18 2.5Z" fill="#B3BACF"/>
<path d="M0.5 3H3.05C3.28 4.14 4.29 5 5.5 5C6.88 5 8 3.88 8 2.5C8 1.12 6.88 0 5.5 0C4.29 0 3.28 0.86 3.05 2H0.5C0.22 2 0 2.22 0 2.5C0 2.78 0.22 3 0.5 3ZM5.5 1C6.33 1 7 1.67 7 2.5C7 3.33 6.33 4 5.5 4C4.67 4 4 3.33 4 2.5C4 1.67 4.67 1 5.5 1Z" fill="#B3BACF"/>
</svg>
