<svg width="24" height="24" viewBox="0 0 24 24" fill="none" xmlns="http://www.w3.org/2000/svg">
<path d="M12 0C5.4 0 0 5.4 0 12C0 18.6 5.4 24 12 24C18.6 24 24 18.6 24 12C24 5.4 18.6 0 12 0ZM12 2C17.5 2 22 6.5 22 12C22 17.5 17.5 22 12 22C6.5 22 2 17.5 2 12C2 6.5 6.5 2 12 2ZM6 10C5.4 10 5 10.4 5 11C5 11.6 5.4 12 6 12H9C9.6 12 10 11.6 10 11C10 10.4 9.6 10 9 10H6ZM15 10C14.4 10 14 10.4 14 11C14 11.6 14.4 12 15 12H18C18.6 12 19 11.6 19 11C19 10.4 18.6 10 18 10H15ZM7 15C7 17.8 9.2 20 12 20C14.8 20 17 17.8 17 15H7Z" fill="#B3BACF"/>
</svg>
