<svg width="17" height="21" viewBox="0 0 17 21" fill="none" xmlns="http://www.w3.org/2000/svg">
<path d="M14.0003 2.40268H11.0003V0.502676C11.0003 0.0726765 10.4903 -0.157324 10.1703 0.122676L7.43031 2.52268C7.20031 2.72268 7.20031 3.07268 7.43031 3.27268L10.1703 5.67268C10.4903 5.96268 11.0003 5.73268 11.0003 5.30268V3.40268H14.0003C15.1003 3.40268 16.0003 4.30268 16.0003 5.40268V9.90268C16.0003 10.1827 16.2203 10.4027 16.5003 10.4027C16.7803 10.4027 17.0003 10.1827 17.0003 9.90268V5.40268C17.0003 3.74268 15.6603 2.40268 14.0003 2.40268Z" fill="#B3BACF"/>
<path d="M11 7.40234H2C0.9 7.40234 0 8.30234 0 9.40234V18.4023C0 19.5023 0.9 20.4023 2 20.4023H11C12.1 20.4023 13 19.5023 13 18.4023V9.40234C13 8.29234 12.1 7.40234 11 7.40234Z" fill="#B3BACF"/>
</svg>
