<svg width="19" height="16" viewBox="0 0 19 16" fill="none" xmlns="http://www.w3.org/2000/svg">
<path d="M9.58105 0C5.95115 0 2.7653 1.23267 1.15918 3.28809C1.09642 3.36547 1.04971 3.45457 1.02178 3.5502C0.993836 3.64583 0.985228 3.74607 0.996453 3.84507C1.00768 3.94406 1.03851 4.03982 1.08716 4.12677C1.1358 4.21372 1.20128 4.2901 1.27976 4.35146C1.35825 4.41283 1.44818 4.45794 1.54429 4.48417C1.64041 4.51039 1.74078 4.51721 1.83956 4.50422C1.93834 4.49123 2.03354 4.45869 2.1196 4.4085C2.20566 4.35831 2.28087 4.29148 2.34082 4.21191C3.5087 2.71733 6.30596 1.5 9.58105 1.5C10.9074 1.5 12.1529 1.69743 13.2471 2.03027C11.6462 2.6409 10.5 4.1909 10.5 6C10.5 8.33833 12.4117 10.25 14.75 10.25C17.0593 10.25 18.9485 8.38453 18.9951 6.08594C18.9984 6.05741 19 6.02872 19 6C19 5.87204 18.9924 5.74539 18.9805 5.62012C18.9745 5.55359 18.9641 5.48848 18.9551 5.42285C18.9493 5.38308 18.9445 5.34319 18.9375 5.30371C18.7949 4.44932 18.3971 3.68009 17.8232 3.07715C17.3536 2.53478 16.7685 2.05113 16.0986 1.64551C14.3851 0.607986 12.0963 0 9.58105 0ZM14.75 3.25C15.499 3.25 16.1738 3.54478 16.668 4.02441C17.2142 4.64295 17.5 5.31717 17.5 6C17.5 7.52767 16.2777 8.75 14.75 8.75C13.2223 8.75 12 7.52767 12 6C12 4.47233 13.2223 3.25 14.75 3.25ZM4.25 5.75C1.94038 5.75 0.0510276 7.61599 0.00488281 9.91504C0.00164866 9.94324 1.8425e-05 9.97161 0 10C0 10.128 0.0075649 10.2546 0.0195312 10.3799C0.0255047 10.4464 0.0358876 10.5115 0.0449219 10.5771C0.0507379 10.6169 0.0555082 10.6568 0.0625 10.6963C0.205119 11.5507 0.602919 12.3199 1.17676 12.9229C1.6464 13.4652 2.23145 13.9489 2.90137 14.3545C4.61491 15.392 6.90367 16 9.41895 16C13.0489 16 16.2347 14.7673 17.8408 12.7119C17.9036 12.6345 17.9503 12.5454 17.9782 12.4498C18.0062 12.3542 18.0148 12.2539 18.0035 12.1549C17.9923 12.0559 17.9615 11.9602 17.9128 11.8732C17.8642 11.7863 17.7987 11.7099 17.7202 11.6485C17.6417 11.5872 17.5518 11.5421 17.4557 11.5158C17.3596 11.4896 17.2592 11.4828 17.1604 11.4958C17.0617 11.5088 16.9665 11.5413 16.8804 11.5915C16.7943 11.6417 16.7191 11.7085 16.6592 11.7881C15.4913 13.2827 12.694 14.5 9.41895 14.5C8.09261 14.5 6.84711 14.3026 5.75293 13.9697C7.35376 13.3591 8.5 11.8091 8.5 10C8.5 7.66167 6.58833 5.75 4.25 5.75ZM4.25 7.25C5.77767 7.25 7 8.47233 7 10C7 11.5277 5.77767 12.75 4.25 12.75C3.50095 12.75 2.82617 12.4552 2.33203 11.9756C1.78579 11.3571 1.5 10.6828 1.5 10C1.5 8.47233 2.72233 7.25 4.25 7.25Z" fill="#919AB6"/>
</svg>
