<svg width="20" height="20" viewBox="0 0 20 20" fill="none" xmlns="http://www.w3.org/2000/svg">
<path d="M10 0C4.48615 0 0 4.48615 0 10C0 11.6377 0.431354 13.1684 1.13086 14.5332L0.046875 18.4141C-0.205601 19.3158 0.685963 20.2073 1.58789 19.9551L5.47168 18.8711C6.83537 19.5691 8.36388 20 10 20C15.5139 20 20 15.5139 20 10C20 4.48615 15.5139 0 10 0ZM10 1.5C14.7031 1.5 18.5 5.29685 18.5 10C18.5 14.7031 14.7031 18.5 10 18.5C8.49921 18.5 7.0953 18.1097 5.87109 17.4277C5.69853 17.3316 5.495 17.3073 5.30469 17.3604L1.61133 18.3906L2.64258 14.6992C2.69585 14.5086 2.67163 14.3047 2.5752 14.1318C1.89183 12.9067 1.5 11.5023 1.5 10C1.5 5.29685 5.29685 1.5 10 1.5ZM6.62012 5.50098C6.46062 5.50098 6.2029 5.5608 5.9834 5.7998C5.7644 6.0378 5.14746 6.61504 5.14746 7.79004C5.14746 8.96504 6.00257 10.0998 6.12207 10.2598C6.24107 10.4183 7.77367 12.9073 10.2012 13.8643C12.2182 14.6593 12.6284 14.5009 13.0664 14.4609C13.5044 14.4219 14.4797 13.8842 14.6787 13.3262C14.8777 12.7682 14.8778 12.2909 14.8193 12.1924C14.7598 12.0929 14.6003 12.0326 14.3613 11.9131C14.1228 11.7936 12.9495 11.2162 12.7305 11.1367C12.5115 11.0572 12.3514 11.0169 12.1924 11.2559C12.0334 11.4949 11.576 12.0324 11.4365 12.1914C11.297 12.3514 11.1579 12.3715 10.9189 12.252C10.6794 12.1315 9.91105 11.8799 8.99805 11.0664C8.28805 10.4339 7.8104 9.65209 7.6709 9.41309C7.5319 9.17509 7.65589 9.04428 7.77539 8.92578C7.88289 8.81878 8.01429 8.64731 8.13379 8.50781C8.25229 8.36831 8.29159 8.26935 8.37109 8.11035C8.45059 7.95185 8.41106 7.81188 8.35156 7.69238C8.29206 7.57288 7.82773 6.39145 7.61523 5.91895C7.43673 5.52195 7.24862 5.51334 7.07812 5.50684C6.93913 5.50134 6.77912 5.50098 6.62012 5.50098Z" fill="white"/>
</svg>
