<svg width="40" height="40" viewBox="0 0 40 40" fill="none" xmlns="http://www.w3.org/2000/svg">
<rect x="0.5" y="0.5" width="39" height="39" rx="11.5" fill="white" stroke="url(#paint0_linear_7_21067)"/>
<path d="M17.1858 27H11.2578V26.088C11.5138 25.928 11.7858 25.792 12.0738 25.68C12.3778 25.552 12.6738 25.456 12.9618 25.392L19.1538 9.912H20.9298L26.9538 25.392C27.2738 25.456 27.5938 25.552 27.9138 25.68C28.2338 25.792 28.5138 25.928 28.7538 26.088V27H21.2418V26.088C21.5458 25.944 21.8738 25.808 22.2258 25.68C22.5778 25.552 22.9138 25.456 23.2338 25.392L21.8418 21.576H16.5138L15.0978 25.392C15.8338 25.488 16.5298 25.72 17.1858 26.088V27ZM17.0898 20.016H21.3378L19.7778 15.432L19.3218 13.368H19.2738L18.7458 15.48L17.0898 20.016Z" fill="url(#paint1_linear_7_21067)"/>
<defs>
<linearGradient id="paint0_linear_7_21067" x1="0.54054" y1="1.72973" x2="46.573" y2="12.891" gradientUnits="userSpaceOnUse">
<stop stop-color="#FF4460"/>
<stop offset="0.53125" stop-color="#AD00FF"/>
<stop offset="0.927083" stop-color="#31CEFF"/>
</linearGradient>
<linearGradient id="paint1_linear_7_21067" x1="0.54054" y1="4.34054" x2="44.934" y2="18.2294" gradientUnits="userSpaceOnUse">
<stop stop-color="#FF4460"/>
<stop offset="0.53125" stop-color="#AD00FF"/>
<stop offset="0.927083" stop-color="#31CEFF"/>
</linearGradient>
</defs>
</svg>
