<svg width="101" height="30" viewBox="0 0 101 30" fill="none" xmlns="http://www.w3.org/2000/svg">
<path d="M37.5824 30H34.3162V13.9744H38.0403V24.0476L46.5263 13.9744H49.7924V30H46.0684V19.9267L37.5824 30ZM58.431 30H54.707V13.9744C55.0122 13.9744 55.8669 13.9744 57.2405 13.9438C58.6142 13.9133 59.5604 13.9133 60.0183 13.9133C65.0549 13.9133 67.1612 16.1722 67.1612 19.591C67.1612 21.2698 66.5812 22.674 65.3907 23.7424C64.2002 24.8107 62.6129 25.3602 60.5678 25.3602C59.8352 25.3602 59.1331 25.3297 58.431 25.2686V30ZM58.431 17.4847V21.7277C59.2857 21.8193 59.9573 21.8498 60.4457 21.8498C62.1245 21.8498 63.1929 21.0562 63.1929 19.591C63.1929 18.1563 62.2772 17.4237 60.4151 17.4237C59.8962 17.4237 59.2552 17.4542 58.431 17.4847ZM73.8767 30H70.6105V13.9744H74.3346V24.0476L82.8205 13.9744H86.0867V30H82.3626V19.9267L73.8767 30ZM10.2137 2.68926H5.29915V7.60379H10.2137V2.68926ZM5.29609 7.60684H0.381563V12.5214H5.29609V7.60684ZM44.5116 7.60684H39.5971V12.5214H44.5116V7.60684ZM10.2106 12.5214H5.29609V17.4359H10.2106V12.5214ZM18.3394 7.60379H23.254V2.68926H18.3394V7.60379ZM14.8291 6.79487V2.68926H18.4005L17.265 0H12.6496L7.36874 12.5214H12.4603L14.8291 6.79487ZM20.4701 7.60379H15.1587L19.185 17.4359H10.4243H5.29609L0 30H5.29915L8.4188 22.3504H21.1966L24.3162 30H29.9145L20.4701 7.60379ZM27.4786 12.5214H32.3932V7.60684H27.4786V12.5214ZM22.5641 17.4359H27.4786V12.5214H22.5641V17.4359ZM95.3968 12.5214H100.311V7.60684H95.3968V12.5214ZM88.6508 18.8889H93.5653V13.9744H88.6508V18.8889Z" fill="url(#paint0_linear_7_5647)"/>
<defs>
<linearGradient id="paint0_linear_7_5647" x1="1.35556" y1="1.2973" x2="75.106" y2="61.0894" gradientUnits="userSpaceOnUse">
<stop stop-color="#FF4460"/>
<stop offset="0.53125" stop-color="#AD00FF"/>
<stop offset="0.927083" stop-color="#31CEFF"/>
</linearGradient>
</defs>
</svg>
